<?xml version="1.0" encoding="UTF-8" standalone="no"?>
<!DOCTYPE svg PUBLIC "-//W3C//DTD SVG 1.1//EN" "http://www.w3.org/Graphics/SVG/1.1/DTD/svg11.dtd">
<svg xmlns="http://www.w3.org/2000/svg" version="1.1" viewBox="0.00 0.00 256.00 256.00">
<g stroke-width="2.00" fill="none" stroke-linecap="butt">
<path stroke="#5b5c56" vector-effect="non-scaling-stroke" d="
  M 196.29 109.75
  Q 193.22 108.88 191.16 110.96
  Q 190.75 111.38 190.29 111.02
  L 187.73 109.03
  A 1.28 1.15 29.7 0 0 185.79 109.45
  C 185.34 110.73 182.60 109.95 181.29 111.62
  A 0.59 0.59 0.0 0 0 182.08 112.48
  Q 183.09 111.80 184.20 112.19
  Q 184.59 112.33 184.48 112.72
  L 183.63 115.87
  A 0.81 0.81 0.0 0 0 183.75 116.57
  Q 185.51 119.03 188.65 118.11
  Q 189.27 117.93 188.84 117.45
  Q 188.43 116.98 187.74 116.80
  Q 187.21 116.66 187.60 116.28
  L 188.00 115.87
  Q 188.39 115.49 188.93 115.55
  L 193.50 116.04"
/>
<path stroke="#5b5c56" vector-effect="non-scaling-stroke" d="
  M 176.13 136.47
  C 174.50 131.50 170.32 130.52 167.18 127.83
  Q 166.60 127.34 167.35 127.44
  C 170.14 127.80 172.27 128.02 174.86 126.62
  Q 179.32 124.21 183.27 120.96
  Q 183.56 120.72 183.27 120.50
  L 181.41 119.07
  Q 181.01 118.75 181.19 118.28
  Q 181.67 117.05 181.48 115.74
  Q 181.37 114.95 180.60 115.16
  L 178.17 115.81
  Q 177.76 115.92 177.39 115.70
  L 177.10 115.53
  Q 176.66 115.26 176.21 115.53
  Q 173.36 117.23 170.18 118.29
  C 167.89 119.05 165.80 118.25 163.22 119.24
  A 0.65 0.64 -23.8 0 1 162.42 118.94
  C 160.13 114.53 156.41 117.46 154.82 114.61
  A 0.60 0.60 0.0 0 0 153.73 115.08
  C 154.30 116.86 152.92 117.71 151.29 117.50"
/>
<path stroke="#5b5c56" vector-effect="non-scaling-stroke" d="
  M 153.29 111.50
  L 156.71 114.61
  Q 157.22 115.07 157.88 114.88
  L 162.08 113.64
  Q 162.67 113.47 162.40 112.92
  Q 161.15 110.38 158.75 111.73
  A 0.44 0.44 0.0 0 1 158.10 111.34
  Q 158.13 109.65 156.70 109.09
  A 1.12 1.12 0.0 0 1 156.29 107.29
  Q 158.60 104.76 158.33 101.30
  A 0.86 0.86 0.0 0 1 158.61 100.60
  Q 158.97 100.28 158.78 99.78
  Q 157.93 97.38 155.79 96.25"
/>
<path stroke="#5b5c56" vector-effect="non-scaling-stroke" d="
  M 162.96 161.00
  Q 162.19 161.07 161.41 160.70
  Q 160.97 160.50 160.82 160.96
  Q 159.87 163.92 157.64 166.05
  A 1.14 1.13 -25.0 0 1 155.73 165.36
  Q 155.49 163.14 155.42 160.92
  Q 155.40 160.31 154.96 159.90
  Q 154.50 159.48 154.50 158.80
  A 0.49 0.49 0.0 0 0 153.52 158.73
  Q 153.24 160.83 154.08 162.67
  Q 154.31 163.16 154.33 163.71
  Q 154.40 166.40 155.93 168.47
  Q 156.24 168.90 156.02 169.38
  Q 154.93 171.66 152.95 173.31
  Q 152.60 173.60 152.64 174.06
  Q 153.08 178.84 149.01 181.25
  Q 148.50 181.55 148.99 181.89
  Q 149.45 182.21 149.96 182.25"
/>
<path stroke="#5b5c56" vector-effect="non-scaling-stroke" d="
  M 149.96 183.75
  L 140.65 180.09
  Q 140.16 179.89 140.51 179.50
  Q 143.33 176.35 147.14 174.64
  A 0.59 0.58 55.1 0 1 147.80 174.76
  L 148.00 174.96
  Q 148.47 175.43 148.69 174.81
  Q 150.01 171.20 152.54 168.25
  A 1.13 1.13 0.0 0 0 152.76 167.19
  L 150.15 158.49
  A 1.58 1.55 61.4 0 0 147.64 157.73
  C 146.43 158.78 142.81 152.20 142.24 151.32
  A 0.39 0.39 0.0 0 0 141.52 151.58
  Q 141.75 153.21 142.76 154.47
  Q 143.08 154.87 143.22 155.36
  C 143.82 157.50 145.96 161.64 145.73 163.64
  Q 145.59 164.85 144.91 165.83
  A 4.02 3.93 -17.8 0 0 144.47 166.66
  L 142.90 170.72
  A 0.87 0.87 0.0 0 1 142.05 171.27
  Q 139.45 171.11 137.56 172.83
  A 0.78 0.77 -34.0 0 0 137.38 173.74
  Q 137.71 174.45 137.28 175.33
  Q 137.05 175.80 136.63 176.09
  L 133.82 178.08
  Q 133.51 178.29 133.52 178.67
  L 133.64 182.00
  Q 133.66 182.57 134.22 182.67
  L 137.61 183.27
  Q 138.17 183.37 138.08 183.93
  Q 137.87 185.26 136.30 185.28
  A 0.28 0.28 0.0 0 0 136.13 185.78
  Q 136.91 186.37 137.83 186.26
  Q 138.93 186.13 138.28 187.03
  L 137.58 188.00
  Q 137.30 188.39 136.88 188.14
  Q 134.19 186.55 131.80 186.46"
/>
<path stroke="#5b5c56" vector-effect="non-scaling-stroke" d="
  M 129.50 185.46
  Q 126.96 180.05 124.31 178.72
  Q 122.00 177.55 121.59 175.16
  A 0.44 0.43 32.8 0 1 122.44 174.98
  Q 123.05 177.25 125.27 177.78
  Q 126.06 177.97 125.73 177.22
  L 120.25 164.86
  Q 120.05 164.42 120.04 163.94
  Q 120.00 161.95 118.63 160.44
  Q 118.34 160.11 117.91 160.21
  L 116.64 160.50
  A 0.61 0.61 0.0 0 1 115.92 160.09
  L 114.83 156.62
  A 0.50 0.50 0.0 0 0 113.86 156.73
  L 113.30 164.78
  Q 113.26 165.40 112.66 165.25
  Q 111.68 165.01 111.62 163.89
  A 0.57 0.57 0.0 0 0 110.49 163.79
  Q 110.14 165.27 108.93 166.17
  A 0.49 0.39 -55.5 0 0 108.99 167.00
  Q 109.85 167.07 109.99 167.85
  Q 110.09 168.38 109.62 168.66
  L 108.52 169.29
  A 0.38 0.37 -59.7 0 0 108.70 169.99
  Q 110.69 169.99 110.19 171.90
  Q 110.08 172.32 109.65 172.36
  Q 108.06 172.49 106.71 171.68
  Q 106.06 171.28 106.28 172.01
  L 107.75 176.91
  Q 107.94 177.56 107.29 177.73
  L 105.94 178.07
  A 0.73 0.73 0.0 0 0 106.00 179.50
  Q 107.69 179.78 109.21 178.80
  A 1.36 1.34 29.7 0 1 110.00 178.59
  Q 112.41 178.71 113.41 180.78
  Q 113.69 181.37 114.34 181.32
  L 117.79 181.03
  A 0.39 0.39 0.0 0 1 117.99 181.77
  Q 109.44 185.99 101.72 180.53
  Q 101.18 180.14 101.63 179.65
  L 102.67 178.51
  Q 103.05 178.09 102.71 177.65
  L 102.26 177.05
  A 0.63 0.63 0.0 0 0 101.19 177.16
  Q 100.92 177.72 100.96 178.39
  A 0.41 0.41 0.0 0 1 100.28 178.73
  Q 98.58 177.31 96.28 177.27
  A 0.83 0.81 -12.5 0 1 95.56 176.82
  C 94.67 175.01 93.60 170.10 90.48 172.15
  A 1.02 1.00 -52.9 0 1 89.65 172.27
  L 87.00 171.48
  A 0.71 0.71 0.0 0 1 86.50 170.73
  Q 86.62 169.49 85.59 169.29
  Q 84.98 169.17 84.77 168.57
  L 82.07 161.03
  A 0.55 0.55 0.0 0 0 81.03 161.07
  Q 79.33 167.03 80.33 173.17
  Q 80.42 173.73 80.14 174.21
  Q 79.06 176.08 79.03 178.30
  A 0.45 0.45 0.0 0 1 78.29 178.64
  L 77.92 178.34
  Q 77.65 178.13 77.32 178.19
  Q 73.18 179.02 74.26 182.62
  A 1.50 1.50 0.0 0 1 74.20 183.60
  Q 73.60 185.04 72.19 185.51
  A 0.61 0.61 0.0 0 1 71.47 185.24
  Q 70.61 183.68 69.37 182.40
  Q 67.99 180.96 68.38 182.92
  L 68.49 183.50
  Q 68.62 184.16 67.97 184.36
  L 65.79 185.01
  Q 65.35 185.14 65.50 185.57
  Q 66.17 187.38 64.19 188.33
  Q 63.80 188.52 63.83 188.95
  Q 63.92 190.16 62.50 190.95
  Q 57.68 193.63 55.00 188.75
  A 0.88 0.88 0.0 0 1 55.91 187.46
  L 57.42 187.70
  A 0.61 0.60 -4.0 0 0 58.09 186.93
  Q 57.51 184.96 59.09 184.06
  Q 59.63 183.75 59.34 183.20
  C 58.29 181.22 59.34 176.43 58.71 173.50
  Q 57.28 166.82 58.43 159.47
  Q 58.53 158.80 57.11 157.33"
/>
<path stroke="#5b5c56" vector-effect="non-scaling-stroke" d="
  M 194.75 113.54
  Q 193.66 112.95 192.41 112.91
  Q 191.92 112.89 191.51 112.63
  Q 190.68 112.11 189.85 112.61
  Q 189.37 112.90 189.79 113.26
  Q 191.73 114.95 194.21 114.50"
/>
<path stroke="#5b5c56" vector-effect="non-scaling-stroke" d="
  M 40.54 209.50
  L 42.25 209.55
  Q 42.65 209.57 42.78 209.19
  Q 43.07 208.35 43.81 207.95
  Q 44.30 207.68 44.68 207.28
  L 46.92 204.93
  Q 47.28 204.54 46.76 204.59
  L 42.50 204.96"
/>
<path stroke="#5b5c56" vector-effect="non-scaling-stroke" d="
  M 44.25 197.96
  Q 45.25 199.22 44.62 200.63
  A 0.47 0.46 85.3 0 0 45.30 201.21
  Q 48.69 198.96 47.25 195.33"
/>
<path stroke="#191a1b" vector-effect="non-scaling-stroke" d="
  M 92.27 209.75
  L 88.32 202.11
  A 1.76 1.76 0.0 0 1 89.62 199.56
  C 92.10 199.20 97.42 193.21 99.32 191.28
  A 0.44 0.44 0.0 0 1 100.06 191.70
  C 98.91 196.26 95.32 197.83 92.41 201.02
  Q 92.10 201.36 92.06 201.81
  C 91.73 205.54 95.19 209.72 97.68 212.31
  Q 104.19 219.07 109.59 226.36
  A 1.12 1.12 0.0 0 0 111.57 225.99
  Q 111.96 224.53 112.55 224.28"
/>
<path stroke="#5b5c56" vector-effect="non-scaling-stroke" d="
  M 125.71 209.25
  Q 125.97 211.30 127.84 211.90
  Q 128.35 212.07 128.78 211.74
  Q 131.55 209.63 131.22 206.03
  A 1.65 1.63 59.0 0 1 131.47 205.00
  L 137.94 194.88
  A 0.64 0.64 0.0 0 0 136.95 194.07
  L 133.94 197.00
  Q 133.66 197.27 133.26 197.31
  L 132.42 197.39
  A 1.01 1.01 0.0 0 0 131.57 198.04
  Q 130.89 199.80 129.04 200.00"
/>
<path stroke="#5b5c56" vector-effect="non-scaling-stroke" d="
  M 170.96 105.85
  C 172.41 101.68 166.95 99.90 164.27 102.44
  Q 163.74 102.93 164.46 103.00
  Q 167.99 103.34 170.31 105.97
  Q 170.74 106.46 170.96 105.85"
/>
<path stroke="#5b5c56" vector-effect="non-scaling-stroke" d="
  M 165.75 106.00
  Q 165.66 106.03 165.53 106.07
  A 0.73 0.44 20.9 0 0 166.26 107.01
  Q 166.83 106.97 167.16 106.46
  A 0.43 0.43 0.0 0 0 166.98 105.83
  Q 166.49 105.62 166.12 105.82
  Q 165.78 105.99 165.75 106.00"
/>
<path stroke="#5b5c56" vector-effect="non-scaling-stroke" d="
  M 149.84 103.40
  Q 150.08 103.97 150.41 104.54
  A 0.37 0.37 0.0 0 0 151.10 104.30
  Q 150.17 98.29 146.66 93.34
  A 0.22 0.22 0.0 0 0 146.32 93.31
  L 146.08 93.54
  Q 145.81 93.81 146.03 94.13
  Q 147.41 96.18 147.19 98.52
  C 147.00 100.63 147.41 101.48 148.26 103.19
  Q 148.56 103.79 149.13 103.45
  L 149.45 103.26
  Q 149.72 103.10 149.84 103.40"
/>
<path stroke="#5b5c56" vector-effect="non-scaling-stroke" d="
  M 194.7985 111.5320
  A 1.27 0.52 2.8 0 0 193.5554 110.9506
  A 1.27 0.52 2.8 0 0 192.2615 111.4080
  A 1.27 0.52 2.8 0 0 193.5046 111.9894
  A 1.27 0.52 2.8 0 0 194.7985 111.5320"
/>
<path stroke="#5b5c56" vector-effect="non-scaling-stroke" d="
  M 146.59 177.65
  Q 147.26 177.55 147.74 177.16
  A 0.73 0.72 12.3 0 0 146.96 175.95
  L 143.91 177.45
  Q 143.25 177.78 143.73 178.35
  Q 144.50 179.25 145.46 179.90
  Q 147.26 181.11 146.51 179.08
  L 146.22 178.29
  Q 146.02 177.74 146.59 177.65"
/>
<path stroke="#5b5c56" vector-effect="non-scaling-stroke" d="
  M 148.82 192.05
  L 154.29 195.68
  A 0.10 0.10 0.0 0 0 154.42 195.66
  L 154.42 195.66
  A 3.23 1.84 33.6 0 0 152.75 192.34
  L 152.50 192.17
  A 3.23 1.84 33.6 0 0 148.79 191.91
  L 148.79 191.92
  A 0.10 0.10 0.0 0 0 148.82 192.05"
/>
<path stroke="#5b5c56" vector-effect="non-scaling-stroke" d="
  M 158.31 195.41
  L 159.68 196.17
  A 0.40 0.40 0.0 0 0 160.22 196.01
  L 160.29 195.89
  A 2.50 1.14 -61.1 0 0 160.50 193.15
  L 160.43 193.11
  A 2.50 1.14 -61.1 0 0 158.22 194.75
  L 158.16 194.87
  A 0.40 0.40 0.0 0 0 158.31 195.41"
/>
<path stroke="#5b5c56" vector-effect="non-scaling-stroke" d="
  M 178.18 224.63
  L 178.71 222.81
  Q 178.86 222.31 178.52 221.91
  L 176.71 219.78
  A 0.66 0.65 -35.3 0 0 175.86 219.64
  Q 174.55 220.41 175.15 222.35
  A 0.59 0.58 -39.0 0 0 176.22 222.46
  Q 176.46 222.03 176.83 222.44
  Q 177.14 222.79 177.04 223.24
  Q 176.44 225.96 178.63 227.39
  Q 178.90 227.56 178.80 227.86
  Q 178.69 228.17 178.58 228.50
  Q 178.47 228.86 178.83 228.92
  C 179.95 229.12 181.54 227.08 181.84 226.35
  A 0.56 0.55 14.2 0 0 181.38 225.58
  L 178.64 225.31
  Q 178.00 225.25 178.18 224.63"
/>
<path stroke="#5b5c56" vector-effect="non-scaling-stroke" d="
  M 104.31 233.82
  Q 104.01 234.87 104.52 235.65
  A 0.77 0.77 0.0 0 0 105.66 235.82
  L 108.90 233.09
  A 0.47 0.47 0.0 0 0 108.63 232.26
  L 104.86 231.94
  Q 104.30 231.89 104.24 232.44
  Q 104.20 232.78 104.30 233.08
  Q 104.41 233.45 104.31 233.82"
/>
<path stroke="#5b5c56" vector-effect="non-scaling-stroke" d="
  M 114.31 234.32
  L 114.07 232.97
  Q 113.94 232.27 113.29 232.55
  C 110.23 233.85 111.87 238.29 114.89 238.00
  A 1.21 1.20 -19.1 0 0 115.79 236.15
  Q 115.35 235.45 114.70 234.95
  Q 114.38 234.71 114.31 234.32"
/>
<path stroke="#5b5c56" vector-effect="non-scaling-stroke" d="
  M 50.25 196.90
  L 47.06 200.41
  A 0.78 0.78 0.0 0 0 47.10 201.49
  L 48.31 202.66
  Q 48.93 203.25 49.17 202.43
  L 50.77 197.19
  A 0.31 0.30 -15.7 0 0 50.25 196.90"
/>
<path stroke="#5b5c56" vector-effect="non-scaling-stroke" d="
  M 28.87 232.22
  L 30.28 234.17
  A 0.50 0.50 0.0 0 0 30.97 234.28
  L 31.10 234.19
  A 3.52 1.68 -35.8 0 0 32.98 230.76
  L 32.95 230.73
  A 3.52 1.68 -35.8 0 0 29.12 231.43
  L 28.99 231.52
  A 0.50 0.50 0.0 0 0 28.87 232.22"
/>
</g>
<path fill="#191a1b" d="
  M 196.29 109.75
  Q 193.22 108.88 191.16 110.96
  Q 190.75 111.38 190.29 111.02
  L 187.73 109.03
  A 1.28 1.15 29.7 0 0 185.79 109.45
  C 185.34 110.73 182.60 109.95 181.29 111.62
  A 0.59 0.59 0.0 0 0 182.08 112.48
  Q 183.09 111.80 184.20 112.19
  Q 184.59 112.33 184.48 112.72
  L 183.63 115.87
  A 0.81 0.81 0.0 0 0 183.75 116.57
  Q 185.51 119.03 188.65 118.11
  Q 189.27 117.93 188.84 117.45
  Q 188.43 116.98 187.74 116.80
  Q 187.21 116.66 187.60 116.28
  L 188.00 115.87
  Q 188.39 115.49 188.93 115.55
  L 193.50 116.04
  Q 190.77 118.27 188.40 120.88
  C 185.16 124.44 180.51 125.63 179.03 130.66
  Q 178.13 133.71 176.13 136.47
  C 174.50 131.50 170.32 130.52 167.18 127.83
  Q 166.60 127.34 167.35 127.44
  C 170.14 127.80 172.27 128.02 174.86 126.62
  Q 179.32 124.21 183.27 120.96
  Q 183.56 120.72 183.27 120.50
  L 181.41 119.07
  Q 181.01 118.75 181.19 118.28
  Q 181.67 117.05 181.48 115.74
  Q 181.37 114.95 180.60 115.16
  L 178.17 115.81
  Q 177.76 115.92 177.39 115.70
  L 177.10 115.53
  Q 176.66 115.26 176.21 115.53
  Q 173.36 117.23 170.18 118.29
  C 167.89 119.05 165.80 118.25 163.22 119.24
  A 0.65 0.64 -23.8 0 1 162.42 118.94
  C 160.13 114.53 156.41 117.46 154.82 114.61
  A 0.60 0.60 0.0 0 0 153.73 115.08
  C 154.30 116.86 152.92 117.71 151.29 117.50
  L 153.29 111.50
  L 156.71 114.61
  Q 157.22 115.07 157.88 114.88
  L 162.08 113.64
  Q 162.67 113.47 162.40 112.92
  Q 161.15 110.38 158.75 111.73
  A 0.44 0.44 0.0 0 1 158.10 111.34
  Q 158.13 109.65 156.70 109.09
  A 1.12 1.12 0.0 0 1 156.29 107.29
  Q 158.60 104.76 158.33 101.30
  A 0.86 0.86 0.0 0 1 158.61 100.60
  Q 158.97 100.28 158.78 99.78
  Q 157.93 97.38 155.79 96.25
  C 155.36 95.27 154.89 93.86 154.18 93.06
  C 140.07 77.32 122.74 56.03 121.18 34.06
  C 121.07 32.57 120.55 19.14 121.69 19.03
  Q 121.90 19.01 121.92 19.23
  C 122.45 25.45 122.40 32.23 123.83 37.89
  Q 126.32 47.72 131.53 56.39
  C 134.51 61.35 139.18 67.44 143.26 72.20
  Q 152.93 83.50 163.30 95.16
  Q 164.52 96.53 164.92 94.74
  Q 165.21 93.49 164.67 91.32
  C 162.17 81.19 159.13 71.22 158.18 60.78
  C 156.98 47.74 156.82 34.94 151.26 22.62
  C 149.96 19.74 147.60 16.98 146.21 13.73
  A 0.34 0.34 0.0 0 1 146.76 13.35
  C 151.76 18.24 154.96 26.76 157.38 33.22
  Q 158.94 37.40 161.23 54.75
  Q 162.83 66.94 165.67 76.21
  Q 167.02 80.61 168.21 85.87
  Q 169.49 91.48 171.65 96.85
  Q 171.84 97.33 172.36 97.38
  C 175.90 97.66 177.31 100.01 179.73 101.90
  Q 180.11 102.20 180.61 102.22
  Q 184.75 102.34 188.77 101.70
  C 193.22 101.00 197.60 105.39 196.29 109.75
  Z
  M 170.96 105.85
  C 172.41 101.68 166.95 99.90 164.27 102.44
  Q 163.74 102.93 164.46 103.00
  Q 167.99 103.34 170.31 105.97
  Q 170.74 106.46 170.96 105.85
  Z
  M 165.75 106.00
  Q 165.66 106.03 165.53 106.07
  A 0.73 0.44 20.9 0 0 166.26 107.01
  Q 166.83 106.97 167.16 106.46
  A 0.43 0.43 0.0 0 0 166.98 105.83
  Q 166.49 105.62 166.12 105.82
  Q 165.78 105.99 165.75 106.00
  Z"
/>
<path fill="#9d9e91" d="
  M 155.79 96.25
  Q 157.93 97.38 158.78 99.78
  Q 158.97 100.28 158.61 100.60
  A 0.86 0.86 0.0 0 0 158.33 101.30
  Q 158.60 104.76 156.29 107.29
  A 1.12 1.12 0.0 0 0 156.70 109.09
  Q 158.13 109.65 158.10 111.34
  A 0.44 0.44 0.0 0 0 158.75 111.73
  Q 161.15 110.38 162.40 112.92
  Q 162.67 113.47 162.08 113.64
  L 157.88 114.88
  Q 157.22 115.07 156.71 114.61
  L 153.29 111.50
  C 152.61 108.36 149.59 107.14 147.14 105.57
  Q 146.72 105.31 146.50 104.86
  C 145.68 103.20 140.62 86.82 145.76 89.04
  A 1.43 1.29 78.3 0 1 146.25 89.40
  Q 149.90 93.49 153.42 97.66
  A 1.34 1.34 0.0 0 0 155.79 96.80
  L 155.79 96.25
  Z
  M 149.84 103.40
  Q 150.08 103.97 150.41 104.54
  A 0.37 0.37 0.0 0 0 151.10 104.30
  Q 150.17 98.29 146.66 93.34
  A 0.22 0.22 0.0 0 0 146.32 93.31
  L 146.08 93.54
  Q 145.81 93.81 146.03 94.13
  Q 147.41 96.18 147.19 98.52
  C 147.00 100.63 147.41 101.48 148.26 103.19
  Q 148.56 103.79 149.13 103.45
  L 149.45 103.26
  Q 149.72 103.10 149.84 103.40
  Z"
/>
<path fill="#191a1b" d="
  M 149.45 103.26
  L 149.13 103.45
  Q 148.56 103.79 148.26 103.19
  C 147.41 101.48 147.00 100.63 147.19 98.52
  Q 147.41 96.18 146.03 94.13
  Q 145.81 93.81 146.08 93.54
  L 146.32 93.31
  A 0.22 0.22 0.0 0 1 146.66 93.34
  Q 150.17 98.29 151.10 104.30
  A 0.37 0.37 0.0 0 1 150.41 104.54
  Q 150.08 103.97 149.84 103.40
  Q 149.72 103.10 149.45 103.26
  Z"
/>
<path fill="#9d9e91" d="
  M 164.27 102.44
  C 166.95 99.90 172.41 101.68 170.96 105.85
  Q 170.74 106.46 170.31 105.97
  Q 167.99 103.34 164.46 103.00
  Q 163.74 102.93 164.27 102.44
  Z"
/>
<path fill="#9d9e91" d="
  M 166.12 105.82
  Q 166.49 105.62 166.98 105.83
  A 0.43 0.43 0.0 0 1 167.16 106.46
  Q 166.83 106.97 166.26 107.01
  A 0.73 0.44 20.9 0 1 165.53 106.07
  Q 165.66 106.03 165.75 106.00
  Q 165.78 105.99 166.12 105.82
  Z"
/>
<path fill="#9d9e91" d="
  M 196.29 109.75
  Q 196.22 111.94 194.75 113.54
  Q 193.66 112.95 192.41 112.91
  Q 191.92 112.89 191.51 112.63
  Q 190.68 112.11 189.85 112.61
  Q 189.37 112.90 189.79 113.26
  Q 191.73 114.95 194.21 114.50
  L 193.50 116.04
  L 188.93 115.55
  Q 188.39 115.49 188.00 115.87
  L 187.60 116.28
  Q 187.21 116.66 187.74 116.80
  Q 188.43 116.98 188.84 117.45
  Q 189.27 117.93 188.65 118.11
  Q 185.51 119.03 183.75 116.57
  A 0.81 0.81 0.0 0 1 183.63 115.87
  L 184.48 112.72
  Q 184.59 112.33 184.20 112.19
  Q 183.09 111.80 182.08 112.48
  A 0.59 0.59 0.0 0 1 181.29 111.62
  C 182.60 109.95 185.34 110.73 185.79 109.45
  A 1.28 1.15 29.7 0 1 187.73 109.03
  L 190.29 111.02
  Q 190.75 111.38 191.16 110.96
  Q 193.22 108.88 196.29 109.75
  Z
  M 194.7985 111.5320
  A 1.27 0.52 2.8 0 0 193.5554 110.9506
  A 1.27 0.52 2.8 0 0 192.2615 111.4080
  A 1.27 0.52 2.8 0 0 193.5046 111.9894
  A 1.27 0.52 2.8 0 0 194.7985 111.5320
  Z"
/>
<path fill="#191a1b" d="
  M 194.7985 111.5320
  A 1.27 0.52 2.8 0 1 193.5046 111.9894
  A 1.27 0.52 2.8 0 1 192.2615 111.4080
  A 1.27 0.52 2.8 0 1 193.5554 110.9506
  A 1.27 0.52 2.8 0 1 194.7985 111.5320
  Z"
/>
<path fill="#191a1b" d="
  M 194.75 113.54
  L 194.21 114.50
  Q 191.73 114.95 189.79 113.26
  Q 189.37 112.90 189.85 112.61
  Q 190.68 112.11 191.51 112.63
  Q 191.92 112.89 192.41 112.91
  Q 193.66 112.95 194.75 113.54
  Z"
/>
<path fill="#9d9e91" d="
  M 176.13 136.47
  Q 174.63 139.92 174.03 143.94
  C 173.45 147.88 172.14 150.26 170.08 153.31
  C 167.98 156.43 164.78 156.88 162.96 161.00
  Q 162.19 161.07 161.41 160.70
  Q 160.97 160.50 160.82 160.96
  Q 159.87 163.92 157.64 166.05
  A 1.14 1.13 -25.0 0 1 155.73 165.36
  Q 155.49 163.14 155.42 160.92
  Q 155.40 160.31 154.96 159.90
  Q 154.50 159.48 154.50 158.80
  A 0.49 0.49 0.0 0 0 153.52 158.73
  Q 153.24 160.83 154.08 162.67
  Q 154.31 163.16 154.33 163.71
  Q 154.40 166.40 155.93 168.47
  Q 156.24 168.90 156.02 169.38
  Q 154.93 171.66 152.95 173.31
  Q 152.60 173.60 152.64 174.06
  Q 153.08 178.84 149.01 181.25
  Q 148.50 181.55 148.99 181.89
  Q 149.45 182.21 149.96 182.25
  L 149.96 183.75
  L 140.65 180.09
  Q 140.16 179.89 140.51 179.50
  Q 143.33 176.35 147.14 174.64
  A 0.59 0.58 55.1 0 1 147.80 174.76
  L 148.00 174.96
  Q 148.47 175.43 148.69 174.81
  Q 150.01 171.20 152.54 168.25
  A 1.13 1.13 0.0 0 0 152.76 167.19
  L 150.15 158.49
  A 1.58 1.55 61.4 0 0 147.64 157.73
  C 146.43 158.78 142.81 152.20 142.24 151.32
  A 0.39 0.39 0.0 0 0 141.52 151.58
  Q 141.75 153.21 142.76 154.47
  Q 143.08 154.87 143.22 155.36
  C 143.82 157.50 145.96 161.64 145.73 163.64
  Q 145.59 164.85 144.91 165.83
  A 4.02 3.93 -17.8 0 0 144.47 166.66
  L 142.90 170.72
  A 0.87 0.87 0.0 0 1 142.05 171.27
  Q 139.45 171.11 137.56 172.83
  A 0.78 0.77 -34.0 0 0 137.38 173.74
  Q 137.71 174.45 137.28 175.33
  Q 137.05 175.80 136.63 176.09
  L 133.82 178.08
  Q 133.51 178.29 133.52 178.67
  L 133.64 182.00
  Q 133.66 182.57 134.22 182.67
  L 137.61 183.27
  Q 138.17 183.37 138.08 183.93
  Q 137.87 185.26 136.30 185.28
  A 0.28 0.28 0.0 0 0 136.13 185.78
  Q 136.91 186.37 137.83 186.26
  Q 138.93 186.13 138.28 187.03
  L 137.58 188.00
  Q 137.30 188.39 136.88 188.14
  Q 134.19 186.55 131.80 186.46
  L 129.50 185.46
  Q 126.96 180.05 124.31 178.72
  Q 122.00 177.55 121.59 175.16
  A 0.44 0.43 32.8 0 1 122.44 174.98
  Q 123.05 177.25 125.27 177.78
  Q 126.06 177.97 125.73 177.22
  L 120.25 164.86
  Q 120.05 164.42 120.04 163.94
  Q 120.00 161.95 118.63 160.44
  Q 118.34 160.11 117.91 160.21
  L 116.64 160.50
  A 0.61 0.61 0.0 0 1 115.92 160.09
  L 114.83 156.62
  A 0.50 0.50 0.0 0 0 113.86 156.73
  L 113.30 164.78
  Q 113.26 165.40 112.66 165.25
  Q 111.68 165.01 111.62 163.89
  A 0.57 0.57 0.0 0 0 110.49 163.79
  Q 110.14 165.27 108.93 166.17
  A 0.49 0.39 -55.5 0 0 108.99 167.00
  Q 109.85 167.07 109.99 167.85
  Q 110.09 168.38 109.62 168.66
  L 108.52 169.29
  A 0.38 0.37 -59.7 0 0 108.70 169.99
  Q 110.69 169.99 110.19 171.90
  Q 110.08 172.32 109.65 172.36
  Q 108.06 172.49 106.71 171.68
  Q 106.06 171.28 106.28 172.01
  L 107.75 176.91
  Q 107.94 177.56 107.29 177.73
  L 105.94 178.07
  A 0.73 0.73 0.0 0 0 106.00 179.50
  Q 107.69 179.78 109.21 178.80
  A 1.36 1.34 29.7 0 1 110.00 178.59
  Q 112.41 178.71 113.41 180.78
  Q 113.69 181.37 114.34 181.32
  L 117.79 181.03
  A 0.39 0.39 0.0 0 1 117.99 181.77
  Q 109.44 185.99 101.72 180.53
  Q 101.18 180.14 101.63 179.65
  L 102.67 178.51
  Q 103.05 178.09 102.71 177.65
  L 102.26 177.05
  A 0.63 0.63 0.0 0 0 101.19 177.16
  Q 100.92 177.72 100.96 178.39
  A 0.41 0.41 0.0 0 1 100.28 178.73
  Q 98.58 177.31 96.28 177.27
  A 0.83 0.81 -12.5 0 1 95.56 176.82
  C 94.67 175.01 93.60 170.10 90.48 172.15
  A 1.02 1.00 -52.9 0 1 89.65 172.27
  L 87.00 171.48
  A 0.71 0.71 0.0 0 1 86.50 170.73
  Q 86.62 169.49 85.59 169.29
  Q 84.98 169.17 84.77 168.57
  L 82.07 161.03
  A 0.55 0.55 0.0 0 0 81.03 161.07
  Q 79.33 167.03 80.33 173.17
  Q 80.42 173.73 80.14 174.21
  Q 79.06 176.08 79.03 178.30
  A 0.45 0.45 0.0 0 1 78.29 178.64
  L 77.92 178.34
  Q 77.65 178.13 77.32 178.19
  Q 73.18 179.02 74.26 182.62
  A 1.50 1.50 0.0 0 1 74.20 183.60
  Q 73.60 185.04 72.19 185.51
  A 0.61 0.61 0.0 0 1 71.47 185.24
  Q 70.61 183.68 69.37 182.40
  Q 67.99 180.96 68.38 182.92
  L 68.49 183.50
  Q 68.62 184.16 67.97 184.36
  L 65.79 185.01
  Q 65.35 185.14 65.50 185.57
  Q 66.17 187.38 64.19 188.33
  Q 63.80 188.52 63.83 188.95
  Q 63.92 190.16 62.50 190.95
  Q 57.68 193.63 55.00 188.75
  A 0.88 0.88 0.0 0 1 55.91 187.46
  L 57.42 187.70
  A 0.61 0.60 -4.0 0 0 58.09 186.93
  Q 57.51 184.96 59.09 184.06
  Q 59.63 183.75 59.34 183.20
  C 58.29 181.22 59.34 176.43 58.71 173.50
  Q 57.28 166.82 58.43 159.47
  Q 58.53 158.80 57.11 157.33
  Q 61.28 147.94 71.57 142.32
  Q 79.15 138.18 87.02 138.08
  C 95.51 137.98 103.52 136.88 113.70 136.17
  C 118.72 135.82 121.82 132.32 126.02 131.07
  Q 131.73 129.38 137.75 130.50
  C 141.55 131.20 147.20 124.75 148.89 121.78
  Q 150.10 119.66 151.29 117.50
  C 152.92 117.71 154.30 116.86 153.73 115.08
  A 0.60 0.60 0.0 0 1 154.82 114.61
  C 156.41 117.46 160.13 114.53 162.42 118.94
  A 0.65 0.64 -23.8 0 0 163.22 119.24
  C 165.80 118.25 167.89 119.05 170.18 118.29
  Q 173.36 117.23 176.21 115.53
  Q 176.66 115.26 177.10 115.53
  L 177.39 115.70
  Q 177.76 115.92 178.17 115.81
  L 180.60 115.16
  Q 181.37 114.95 181.48 115.74
  Q 181.67 117.05 181.19 118.28
  Q 181.01 118.75 181.41 119.07
  L 183.27 120.50
  Q 183.56 120.72 183.27 120.96
  Q 179.32 124.21 174.86 126.62
  C 172.27 128.02 170.14 127.80 167.35 127.44
  Q 166.60 127.34 167.18 127.83
  C 170.32 130.52 174.50 131.50 176.13 136.47
  Z
  M 146.59 177.65
  Q 147.26 177.55 147.74 177.16
  A 0.73 0.72 12.3 0 0 146.96 175.95
  L 143.91 177.45
  Q 143.25 177.78 143.73 178.35
  Q 144.50 179.25 145.46 179.90
  Q 147.26 181.11 146.51 179.08
  L 146.22 178.29
  Q 146.02 177.74 146.59 177.65
  Z"
/>
<path fill="#191a1b" d="
  M 149.96 183.75
  Q 150.65 184.69 151.08 184.91
  C 155.74 187.27 160.76 189.93 163.73 194.45
  Q 170.33 204.54 177.71 214.07
  C 179.64 216.56 180.95 219.80 182.98 222.48
  Q 186.40 227.02 188.61 231.68
  A 1.37 1.37 0.0 0 1 187.46 233.63
  Q 182.80 233.92 179.52 230.75
  A 1.39 1.37 -16.8 0 0 178.80 230.37
  L 177.99 230.21
  Q 177.38 230.09 177.19 229.51
  Q 176.03 226.12 173.85 223.29
  Q 173.51 222.85 173.49 222.30
  C 173.36 217.49 170.86 214.37 169.24 211.06
  C 164.33 201.04 155.59 197.44 146.29 192.48
  Q 144.48 191.51 142.49 191.79
  A 1.30 1.26 -76.1 0 0 141.63 192.33
  Q 136.66 199.49 133.94 209.44
  C 132.99 212.92 129.49 214.15 127.44 216.27
  Q 121.93 221.96 116.80 228.00
  Q 116.48 228.38 116.53 228.87
  C 117.04 234.81 121.34 237.85 121.45 244.13
  A 1.14 1.13 -81.2 0 1 119.95 245.23
  C 116.89 244.18 111.26 241.11 110.61 237.59
  A 0.61 0.60 -33.1 0 0 109.51 237.36
  L 103.62 246.08
  A 1.24 1.24 0.0 0 1 101.52 246.00
  C 99.00 241.66 100.78 231.67 106.47 230.32
  A 1.03 1.03 0.0 0 0 107.08 228.74
  Q 100.34 218.90 92.27 209.75
  L 88.32 202.11
  A 1.76 1.76 0.0 0 1 89.62 199.56
  C 92.10 199.20 97.42 193.21 99.32 191.28
  A 0.44 0.44 0.0 0 1 100.06 191.70
  C 98.91 196.26 95.32 197.83 92.41 201.02
  Q 92.10 201.36 92.06 201.81
  C 91.73 205.54 95.19 209.72 97.68 212.31
  Q 104.19 219.07 109.59 226.36
  A 1.12 1.12 0.0 0 0 111.57 225.99
  Q 111.96 224.53 112.55 224.28
  L 125.71 209.25
  Q 125.97 211.30 127.84 211.90
  Q 128.35 212.07 128.78 211.74
  Q 131.55 209.63 131.22 206.03
  A 1.65 1.63 59.0 0 1 131.47 205.00
  L 137.94 194.88
  A 0.64 0.64 0.0 0 0 136.95 194.07
  L 133.94 197.00
  Q 133.66 197.27 133.26 197.31
  L 132.42 197.39
  A 1.01 1.01 0.0 0 0 131.57 198.04
  Q 130.89 199.80 129.04 200.00
  L 131.80 186.46
  Q 134.19 186.55 136.88 188.14
  Q 137.30 188.39 137.58 188.00
  L 138.28 187.03
  Q 138.93 186.13 137.83 186.26
  Q 136.91 186.37 136.13 185.78
  A 0.28 0.28 0.0 0 1 136.30 185.28
  Q 137.87 185.26 138.08 183.93
  Q 138.17 183.37 137.61 183.27
  L 134.22 182.67
  Q 133.66 182.57 133.64 182.00
  L 133.52 178.67
  Q 133.51 178.29 133.82 178.08
  L 136.63 176.09
  Q 137.05 175.80 137.28 175.33
  Q 137.71 174.45 137.38 173.74
  A 0.78 0.77 -34.0 0 1 137.56 172.83
  Q 139.45 171.11 142.05 171.27
  A 0.87 0.87 0.0 0 0 142.90 170.72
  L 144.47 166.66
  A 4.02 3.93 -17.8 0 1 144.91 165.83
  Q 145.59 164.85 145.73 163.64
  C 145.96 161.64 143.82 157.50 143.22 155.36
  Q 143.08 154.87 142.76 154.47
  Q 141.75 153.21 141.52 151.58
  A 0.39 0.39 0.0 0 1 142.24 151.32
  C 142.81 152.20 146.43 158.78 147.64 157.73
  A 1.58 1.55 61.4 0 1 150.15 158.49
  L 152.76 167.19
  A 1.13 1.13 0.0 0 1 152.54 168.25
  Q 150.01 171.20 148.69 174.81
  Q 148.47 175.43 148.00 174.96
  L 147.80 174.76
  A 0.59 0.58 55.1 0 0 147.14 174.64
  Q 143.33 176.35 140.51 179.50
  Q 140.16 179.89 140.65 180.09
  L 149.96 183.75
  Z
  M 148.82 192.05
  L 154.29 195.68
  A 0.10 0.10 0.0 0 0 154.42 195.66
  L 154.42 195.66
  A 3.23 1.84 33.6 0 0 152.75 192.34
  L 152.50 192.17
  A 3.23 1.84 33.6 0 0 148.79 191.91
  L 148.79 191.92
  A 0.10 0.10 0.0 0 0 148.82 192.05
  Z
  M 158.31 195.41
  L 159.68 196.17
  A 0.40 0.40 0.0 0 0 160.22 196.01
  L 160.29 195.89
  A 2.50 1.14 -61.1 0 0 160.50 193.15
  L 160.43 193.11
  A 2.50 1.14 -61.1 0 0 158.22 194.75
  L 158.16 194.87
  A 0.40 0.40 0.0 0 0 158.31 195.41
  Z
  M 178.18 224.63
  L 178.71 222.81
  Q 178.86 222.31 178.52 221.91
  L 176.71 219.78
  A 0.66 0.65 -35.3 0 0 175.86 219.64
  Q 174.55 220.41 175.15 222.35
  A 0.59 0.58 -39.0 0 0 176.22 222.46
  Q 176.46 222.03 176.83 222.44
  Q 177.14 222.79 177.04 223.24
  Q 176.44 225.96 178.63 227.39
  Q 178.90 227.56 178.80 227.86
  Q 178.69 228.17 178.58 228.50
  Q 178.47 228.86 178.83 228.92
  C 179.95 229.12 181.54 227.08 181.84 226.35
  A 0.56 0.55 14.2 0 0 181.38 225.58
  L 178.64 225.31
  Q 178.00 225.25 178.18 224.63
  Z
  M 104.31 233.82
  Q 104.01 234.87 104.52 235.65
  A 0.77 0.77 0.0 0 0 105.66 235.82
  L 108.90 233.09
  A 0.47 0.47 0.0 0 0 108.63 232.26
  L 104.86 231.94
  Q 104.30 231.89 104.24 232.44
  Q 104.20 232.78 104.30 233.08
  Q 104.41 233.45 104.31 233.82
  Z
  M 114.31 234.32
  L 114.07 232.97
  Q 113.94 232.27 113.29 232.55
  C 110.23 233.85 111.87 238.29 114.89 238.00
  A 1.21 1.20 -19.1 0 0 115.79 236.15
  Q 115.35 235.45 114.70 234.95
  Q 114.38 234.71 114.31 234.32
  Z"
/>
<path fill="#191a1b" d="
  M 129.50 185.46
  Q 121.57 186.68 114.00 185.81
  A 2.75 2.74 -65.2 0 0 111.70 186.66
  C 107.41 191.31 98.65 197.00 96.60 202.83
  A 1.18 1.18 0.0 0 0 96.70 203.82
  Q 103.45 214.91 112.55 224.28
  Q 111.96 224.53 111.57 225.99
  A 1.12 1.12 0.0 0 1 109.59 226.36
  Q 104.19 219.07 97.68 212.31
  C 95.19 209.72 91.73 205.54 92.06 201.81
  Q 92.10 201.36 92.41 201.02
  C 95.32 197.83 98.91 196.26 100.06 191.70
  A 0.44 0.44 0.0 0 0 99.32 191.28
  C 97.42 193.21 92.10 199.20 89.62 199.56
  A 1.76 1.76 0.0 0 0 88.32 202.11
  L 92.27 209.75
  Q 87.84 206.75 85.54 203.32
  A 2.50 2.50 0.0 0 1 85.90 200.11
  Q 91.72 194.60 94.28 187.00
  A 1.45 1.45 0.0 0 0 93.37 185.17
  C 88.12 183.42 83.94 180.75 78.96 185.25
  C 76.07 187.85 71.43 193.04 67.49 193.47
  Q 64.98 193.74 60.89 196.34
  C 48.84 204.00 43.99 215.09 39.16 227.87
  Q 37.77 231.54 35.65 234.70
  C 33.18 238.39 31.16 242.74 27.15 245.18
  A 0.62 0.62 0.0 0 1 26.35 245.04
  C 24.08 242.23 26.13 236.16 26.35 232.76
  A 2.36 2.36 0.0 0 1 27.66 230.78
  C 34.72 227.32 37.65 216.41 40.54 209.50
  L 42.25 209.55
  Q 42.65 209.57 42.78 209.19
  Q 43.07 208.35 43.81 207.95
  Q 44.30 207.68 44.68 207.28
  L 46.92 204.93
  Q 47.28 204.54 46.76 204.59
  L 42.50 204.96
  L 44.25 197.96
  Q 45.25 199.22 44.62 200.63
  A 0.47 0.46 85.3 0 0 45.30 201.21
  Q 48.69 198.96 47.25 195.33
  C 53.07 191.27 55.34 184.18 56.43 177.20
  C 57.29 171.67 55.85 165.98 56.76 160.46
  Q 56.99 159.04 57.11 157.33
  Q 58.53 158.80 58.43 159.47
  Q 57.28 166.82 58.71 173.50
  C 59.34 176.43 58.29 181.22 59.34 183.20
  Q 59.63 183.75 59.09 184.06
  Q 57.51 184.96 58.09 186.93
  A 0.61 0.60 -4.0 0 1 57.42 187.70
  L 55.91 187.46
  A 0.88 0.88 0.0 0 0 55.00 188.75
  Q 57.68 193.63 62.50 190.95
  Q 63.92 190.16 63.83 188.95
  Q 63.80 188.52 64.19 188.33
  Q 66.17 187.38 65.50 185.57
  Q 65.35 185.14 65.79 185.01
  L 67.97 184.36
  Q 68.62 184.16 68.49 183.50
  L 68.38 182.92
  Q 67.99 180.96 69.37 182.40
  Q 70.61 183.68 71.47 185.24
  A 0.61 0.61 0.0 0 0 72.19 185.51
  Q 73.60 185.04 74.20 183.60
  A 1.50 1.50 0.0 0 0 74.26 182.62
  Q 73.18 179.02 77.32 178.19
  Q 77.65 178.13 77.92 178.34
  L 78.29 178.64
  A 0.45 0.45 0.0 0 0 79.03 178.30
  Q 79.06 176.08 80.14 174.21
  Q 80.42 173.73 80.33 173.17
  Q 79.33 167.03 81.03 161.07
  A 0.55 0.55 0.0 0 1 82.07 161.03
  L 84.77 168.57
  Q 84.98 169.17 85.59 169.29
  Q 86.62 169.49 86.50 170.73
  A 0.71 0.71 0.0 0 0 87.00 171.48
  L 89.65 172.27
  A 1.02 1.00 -52.9 0 0 90.48 172.15
  C 93.60 170.10 94.67 175.01 95.56 176.82
  A 0.83 0.81 -12.5 0 0 96.28 177.27
  Q 98.58 177.31 100.28 178.73
  A 0.41 0.41 0.0 0 0 100.96 178.39
  Q 100.92 177.72 101.19 177.16
  A 0.63 0.63 0.0 0 1 102.26 177.05
  L 102.71 177.65
  Q 103.05 178.09 102.67 178.51
  L 101.63 179.65
  Q 101.18 180.14 101.72 180.53
  Q 109.44 185.99 117.99 181.77
  A 0.39 0.39 0.0 0 0 117.79 181.03
  L 114.34 181.32
  Q 113.69 181.37 113.41 180.78
  Q 112.41 178.71 110.00 178.59
  A 1.36 1.34 29.7 0 0 109.21 178.80
  Q 107.69 179.78 106.00 179.50
  A 0.73 0.73 0.0 0 1 105.94 178.07
  L 107.29 177.73
  Q 107.94 177.56 107.75 176.91
  L 106.28 172.01
  Q 106.06 171.28 106.71 171.68
  Q 108.06 172.49 109.65 172.36
  Q 110.08 172.32 110.19 171.90
  Q 110.69 169.99 108.70 169.99
  A 0.38 0.37 -59.7 0 1 108.52 169.29
  L 109.62 168.66
  Q 110.09 168.38 109.99 167.85
  Q 109.85 167.07 108.99 167.00
  A 0.49 0.39 -55.5 0 1 108.93 166.17
  Q 110.14 165.27 110.49 163.79
  A 0.57 0.57 0.0 0 1 111.62 163.89
  Q 111.68 165.01 112.66 165.25
  Q 113.26 165.40 113.30 164.78
  L 113.86 156.73
  A 0.50 0.50 0.0 0 1 114.83 156.62
  L 115.92 160.09
  A 0.61 0.61 0.0 0 0 116.64 160.50
  L 117.91 160.21
  Q 118.34 160.11 118.63 160.44
  Q 120.00 161.95 120.04 163.94
  Q 120.05 164.42 120.25 164.86
  L 125.73 177.22
  Q 126.06 177.97 125.27 177.78
  Q 123.05 177.25 122.44 174.98
  A 0.44 0.43 32.8 0 0 121.59 175.16
  Q 122.00 177.55 124.31 178.72
  Q 126.96 180.05 129.50 185.46
  Z
  M 50.25 196.90
  L 47.06 200.41
  A 0.78 0.78 0.0 0 0 47.10 201.49
  L 48.31 202.66
  Q 48.93 203.25 49.17 202.43
  L 50.77 197.19
  A 0.31 0.30 -15.7 0 0 50.25 196.90
  Z
  M 28.87 232.22
  L 30.28 234.17
  A 0.50 0.50 0.0 0 0 30.97 234.28
  L 31.10 234.19
  A 3.52 1.68 -35.8 0 0 32.98 230.76
  L 32.95 230.73
  A 3.52 1.68 -35.8 0 0 29.12 231.43
  L 28.99 231.52
  A 0.50 0.50 0.0 0 0 28.87 232.22
  Z"
/>
<path fill="#191a1b" d="
  M 162.96 161.00
  Q 161.03 164.50 158.63 167.70
  C 156.34 170.74 155.56 173.80 154.15 177.19
  C 153.22 179.43 151.51 180.47 149.96 182.25
  Q 149.45 182.21 148.99 181.89
  Q 148.50 181.55 149.01 181.25
  Q 153.08 178.84 152.64 174.06
  Q 152.60 173.60 152.95 173.31
  Q 154.93 171.66 156.02 169.38
  Q 156.24 168.90 155.93 168.47
  Q 154.40 166.40 154.33 163.71
  Q 154.31 163.16 154.08 162.67
  Q 153.24 160.83 153.52 158.73
  A 0.49 0.49 0.0 0 1 154.50 158.80
  Q 154.50 159.48 154.96 159.90
  Q 155.40 160.31 155.42 160.92
  Q 155.49 163.14 155.73 165.36
  A 1.14 1.13 -25.0 0 0 157.64 166.05
  Q 159.87 163.92 160.82 160.96
  Q 160.97 160.50 161.41 160.70
  Q 162.19 161.07 162.96 161.00
  Z"
/>
<path fill="#191a1b" d="
  M 146.22 178.29
  L 146.51 179.08
  Q 147.26 181.11 145.46 179.90
  Q 144.50 179.25 143.73 178.35
  Q 143.25 177.78 143.91 177.45
  L 146.96 175.95
  A 0.73 0.72 12.3 0 1 147.74 177.16
  Q 147.26 177.55 146.59 177.65
  Q 146.02 177.74 146.22 178.29
  Z"
/>
<path fill="#9d9e91" d="
  M 148.82 192.05
  A 0.10 0.10 0.0 0 1 148.79 191.92
  L 148.79 191.91
  A 3.23 1.84 33.6 0 1 152.50 192.17
  L 152.75 192.34
  A 3.23 1.84 33.6 0 1 154.42 195.66
  L 154.42 195.66
  A 0.10 0.10 0.0 0 1 154.29 195.68
  L 148.82 192.05
  Z"
/>
<path fill="#9d9e91" d="
  M 158.31 195.41
  A 0.40 0.40 0.0 0 1 158.16 194.87
  L 158.22 194.75
  A 2.50 1.14 -61.1 0 1 160.43 193.11
  L 160.50 193.15
  A 2.50 1.14 -61.1 0 1 160.29 195.89
  L 160.22 196.01
  A 0.40 0.40 0.0 0 1 159.68 196.17
  L 158.31 195.41
  Z"
/>
<path fill="#9d9e91" d="
  M 125.71 209.25
  L 129.04 200.00
  Q 130.89 199.80 131.57 198.04
  A 1.01 1.01 0.0 0 1 132.42 197.39
  L 133.26 197.31
  Q 133.66 197.27 133.94 197.00
  L 136.95 194.07
  A 0.64 0.64 0.0 0 1 137.94 194.88
  L 131.47 205.00
  A 1.65 1.63 59.0 0 0 131.22 206.03
  Q 131.55 209.63 128.78 211.74
  Q 128.35 212.07 127.84 211.90
  Q 125.97 211.30 125.71 209.25
  Z"
/>
<path fill="#9d9e91" d="
  M 47.25 195.33
  Q 48.69 198.96 45.30 201.21
  A 0.47 0.46 85.3 0 1 44.62 200.63
  Q 45.25 199.22 44.25 197.96
  Q 44.84 196.28 47.25 195.33
  Z"
/>
<path fill="#9d9e91" d="
  M 50.25 196.90
  A 0.31 0.30 -15.7 0 1 50.77 197.19
  L 49.17 202.43
  Q 48.93 203.25 48.31 202.66
  L 47.10 201.49
  A 0.78 0.78 0.0 0 1 47.06 200.41
  L 50.25 196.90
  Z"
/>
<path fill="#9d9e91" d="
  M 40.54 209.50
  L 42.50 204.96
  L 46.76 204.59
  Q 47.28 204.54 46.92 204.93
  L 44.68 207.28
  Q 44.30 207.68 43.81 207.95
  Q 43.07 208.35 42.78 209.19
  Q 42.65 209.57 42.25 209.55
  L 40.54 209.50
  Z"
/>
<path fill="#9d9e91" d="
  M 178.64 225.31
  L 181.38 225.58
  A 0.56 0.55 14.2 0 1 181.84 226.35
  C 181.54 227.08 179.95 229.12 178.83 228.92
  Q 178.47 228.86 178.58 228.50
  Q 178.69 228.17 178.80 227.86
  Q 178.90 227.56 178.63 227.39
  Q 176.44 225.96 177.04 223.24
  Q 177.14 222.79 176.83 222.44
  Q 176.46 222.03 176.22 222.46
  A 0.59 0.58 -39.0 0 1 175.15 222.35
  Q 174.55 220.41 175.86 219.64
  A 0.66 0.65 -35.3 0 1 176.71 219.78
  L 178.52 221.91
  Q 178.86 222.31 178.71 222.81
  L 178.18 224.63
  Q 178.00 225.25 178.64 225.31
  Z"
/>
<path fill="#9d9e91" d="
  M 28.87 232.22
  A 0.50 0.50 0.0 0 1 28.99 231.52
  L 29.12 231.43
  A 3.52 1.68 -35.8 0 1 32.95 230.73
  L 32.98 230.76
  A 3.52 1.68 -35.8 0 1 31.10 234.19
  L 30.97 234.28
  A 0.50 0.50 0.0 0 1 30.28 234.17
  L 28.87 232.22
  Z"
/>
<path fill="#9d9e91" d="
  M 104.30 233.08
  Q 104.20 232.78 104.24 232.44
  Q 104.30 231.89 104.86 231.94
  L 108.63 232.26
  A 0.47 0.47 0.0 0 1 108.90 233.09
  L 105.66 235.82
  A 0.77 0.77 0.0 0 1 104.52 235.65
  Q 104.01 234.87 104.31 233.82
  Q 104.41 233.45 104.30 233.08
  Z"
/>
<path fill="#9d9e91" d="
  M 114.70 234.95
  Q 115.35 235.45 115.79 236.15
  A 1.21 1.20 -19.1 0 1 114.89 238.00
  C 111.87 238.29 110.23 233.85 113.29 232.55
  Q 113.94 232.27 114.07 232.97
  L 114.31 234.32
  Q 114.38 234.71 114.70 234.95
  Z"
/>
</svg>
