<?xml version="1.0" encoding="UTF-8" standalone="no"?>
<!DOCTYPE svg PUBLIC "-//W3C//DTD SVG 1.1//EN" "http://www.w3.org/Graphics/SVG/1.1/DTD/svg11.dtd">
<svg xmlns="http://www.w3.org/2000/svg" version="1.1" viewBox="0.00 0.00 256.00 256.00">
<g stroke-width="2.00" fill="none" stroke-linecap="butt">
<path stroke="#927b6a" vector-effect="non-scaling-stroke" d="
  M 48.41 98.65
  C 46.55 100.69 47.76 103.61 48.35 105.98"
/>
<path stroke="#6a5140" vector-effect="non-scaling-stroke" d="
  M 48.35 105.98
  L 47.32 110.74
  A 0.82 0.82 0.0 0 0 47.67 111.60
  Q 49.28 112.67 48.79 114.50"
/>
<path stroke="#31241c" vector-effect="non-scaling-stroke" d="
  M 48.79 114.50
  Q 47.68 112.09 45.92 113.38"
/>
<path stroke="#6a5140" vector-effect="non-scaling-stroke" d="
  M 45.92 113.38
  Q 44.61 112.24 43.55 113.01"
/>
<path stroke="#31241c" vector-effect="non-scaling-stroke" d="
  M 43.55 113.01
  C 41.39 110.59 38.27 114.77 37.66 116.50
  A 1.11 1.11 0.0 0 1 36.24 117.18
  Q 34.23 116.45 33.14 114.70
  A 0.77 0.77 0.0 0 0 32.36 114.34
  Q 31.92 114.41 31.54 114.25"
/>
<path stroke="#a88369" vector-effect="non-scaling-stroke" d="
  M 53.50 115.23
  Q 52.90 115.81 52.06 115.59
  Q 51.54 115.46 51.18 115.85
  L 49.44 117.71"
/>
<path stroke="#523c2e" vector-effect="non-scaling-stroke" d="
  M 49.44 117.71
  Q 48.45 115.93 48.79 114.50"
/>
<path stroke="#e1c4ad" vector-effect="non-scaling-stroke" d="
  M 66.46 112.02
  L 64.27 114.25
  Q 63.97 114.55 64.01 114.97
  Q 64.23 117.28 61.83 117.46
  Q 61.33 117.50 61.13 117.96
  Q 59.40 122.14 62.12 125.32
  Q 62.50 125.76 62.65 126.32
  Q 63.49 129.37 64.95 132.21
  Q 65.16 132.62 65.14 133.08
  Q 64.95 136.72 67.26 139.60
  Q 67.53 139.94 67.95 140.02
  Q 73.65 141.13 77.77 145.22
  C 82.18 149.60 86.87 141.12 92.84 147.65
  C 93.71 148.60 95.01 149.77 95.74 151.27
  C 97.50 154.87 101.16 157.69 104.20 160.42
  A 0.74 0.73 35.0 0 0 105.34 160.22
  L 107.89 155.33
  Q 108.13 154.88 108.60 154.69
  C 112.46 153.08 111.29 145.69 112.28 142.24
  C 113.25 138.84 113.16 135.68 114.69 132.48
  C 115.36 131.07 116.98 130.10 117.23 127.97
  A 2.03 2.02 65.7 0 1 117.56 127.09
  Q 118.83 125.29 119.94 123.41
  Q 120.17 123.03 119.77 123.24
  L 119.40 123.44
  Q 119.07 123.62 119.18 123.27
  L 120.47 119.25
  Q 120.61 118.82 120.91 118.49
  Q 122.07 117.23 122.35 115.99"
/>
<path stroke="#d0ad92" vector-effect="non-scaling-stroke" d="
  M 200.81 167.56
  Q 203.71 158.41 201.66 151.11"
/>
<path stroke="#b3937c" vector-effect="non-scaling-stroke" d="
  M 201.66 151.11
  Q 206.15 144.84 205.55 136.96
  A 0.54 0.54 0.0 0 0 204.56 136.72
  Q 202.60 139.85 199.54 141.89
  A 1.41 1.41 0.0 0 0 198.98 142.60
  L 197.27 147.23
  A 1.20 1.20 0.0 0 1 196.50 147.97
  C 195.84 148.18 195.28 148.45 194.88 149.05
  Q 191.52 154.08 188.40 158.68"
/>
<path stroke="#d0ad92" vector-effect="non-scaling-stroke" d="
  M 188.40 158.68
  Q 187.34 163.25 187.51 157.00
  Q 187.53 156.27 187.07 156.83
  L 184.97 159.42
  Q 184.65 159.81 184.64 160.33
  Q 184.60 161.86 183.80 163.04
  A 1.38 1.37 48.5 0 1 181.45 162.89
  C 179.63 159.40 183.13 156.85 181.41 152.51
  A 1.37 1.36 -44.7 0 1 181.42 151.49
  Q 183.24 147.17 179.34 145.09
  Q 178.95 144.89 178.57 145.09
  L 177.37 145.70
  Q 177.04 145.86 176.82 145.57
  Q 175.97 144.46 174.69 144.08
  Q 174.22 143.94 174.07 144.40
  L 173.60 145.83
  Q 173.39 146.48 172.70 146.42
  C 171.05 146.27 170.04 144.98 170.04 143.28
  Q 170.05 138.74 169.52 131.48
  Q 169.34 129.04 171.61 127.80
  A 0.89 0.88 73.9 0 0 172.07 126.96
  L 171.54 119.73
  A 2.29 2.29 0.0 0 0 169.00 117.63
  L 163.97 118.22
  Q 163.74 118.25 163.75 118.47
  Q 163.75 118.61 163.76 118.77
  Q 163.80 119.14 163.43 119.15
  C 157.15 119.44 150.80 118.23 144.94 118.49
  Q 136.44 118.87 127.94 119.14
  C 123.55 119.28 122.10 124.21 119.46 126.85
  Q 119.10 127.21 119.03 127.72
  Q 118.67 130.31 117.19 132.36
  C 115.65 134.49 115.47 139.52 114.18 140.66
  Q 113.83 140.98 113.66 141.42
  Q 112.84 143.65 113.44 145.22"
/>
<path stroke="#d0ad92" vector-effect="non-scaling-stroke" d="
  M 113.44 145.22
  Q 113.07 148.62 112.30 151.54
  C 111.22 155.64 112.72 158.81 109.02 162.04
  C 106.43 164.30 103.43 163.54 101.21 161.33
  Q 100.84 160.96 100.36 160.79
  Q 99.39 160.44 99.11 159.55
  Q 98.98 159.12 98.64 158.82
  Q 96.18 156.61 94.54 153.79
  C 93.34 151.74 93.49 148.79 90.26 147.55
  A 0.33 0.33 0.0 0 0 89.97 148.15
  C 94.02 150.58 92.13 152.96 94.02 155.97
  C 95.99 159.07 101.16 165.06 105.49 165.82
  Q 106.01 165.92 106.48 165.66
  L 112.41 162.41"
/>
<path stroke="#c7a388" vector-effect="non-scaling-stroke" d="
  M 112.41 162.41
  L 107.85 165.60
  Q 107.47 165.87 107.39 166.33
  Q 107.09 168.01 105.35 167.98
  Q 104.84 167.97 104.41 168.23
  Q 101.06 170.28 97.67 168.26
  Q 97.06 167.90 97.08 167.19
  L 97.16 163.48
  Q 97.17 163.04 96.90 162.69
  Q 92.88 157.57 91.77 151.15
  Q 91.68 150.61 91.31 150.22
  C 89.49 148.29 87.25 149.18 85.93 151.23"
/>
<path stroke="#9a7b66" vector-effect="non-scaling-stroke" d="
  M 85.93 151.23
  L 83.99 153.73"
/>
<path stroke="#c7a388" vector-effect="non-scaling-stroke" d="
  M 83.99 153.73
  C 81.50 155.23 81.35 157.98 79.91 160.65
  Q 77.19 165.70 81.20 169.40
  Q 81.62 169.79 81.24 170.22
  Q 80.41 171.17 78.02 170.01
  A 1.62 1.52 80.5 0 1 77.56 169.66
  Q 76.06 168.05 73.71 169.75"
/>
<path stroke="#c7a388" vector-effect="non-scaling-stroke" d="
  M 55.17 153.58
  Q 53.87 148.97 49.89 145.80
  A 1.25 1.23 20.4 0 1 49.42 144.79
  Q 49.46 142.67 48.31 140.99
  Q 48.07 140.64 47.66 140.56
  Q 44.94 140.04 42.86 140.92"
/>
<path stroke="#7a6657" vector-effect="non-scaling-stroke" d="
  M 34.37 141.21
  Q 27.38 142.27 29.85 139.03"
/>
<path stroke="#927b6a" vector-effect="non-scaling-stroke" d="
  M 29.85 139.03
  L 37.78 139.29
  Q 38.36 139.31 38.57 138.76
  L 40.02 134.97"
/>
<path stroke="#b3937c" vector-effect="non-scaling-stroke" d="
  M 40.02 134.97
  C 42.63 133.99 43.65 129.92 46.53 130.70
  Q 47.01 130.83 47.38 130.50
  L 52.87 125.45"
/>
<path stroke="#d0ad92" vector-effect="non-scaling-stroke" d="
  M 52.87 125.45
  Q 53.40 123.34 55.30 122.27
  Q 55.71 122.04 55.80 121.57
  Q 56.72 116.90 61.26 115.37
  A 1.00 0.98 -1.9 0 0 61.89 114.71
  Q 62.72 111.94 61.19 109.68"
/>
<path stroke="#e1c4ad" vector-effect="non-scaling-stroke" d="
  M 61.19 109.68
  Q 61.06 105.81 63.08 102.44
  A 1.12 1.12 0.0 0 0 62.23 100.75
  Q 60.23 100.55 59.64 102.43
  Q 59.50 102.87 59.09 103.07
  L 56.98 104.08
  Q 56.51 104.30 56.43 104.82
  L 55.53 110.84
  Q 55.45 111.37 55.09 110.97
  Q 53.87 109.61 53.97 107.82
  A 1.79 1.77 -72.1 0 0 53.16 106.22
  Q 49.83 104.10 49.32 108.21"
/>
<path stroke="#b3937c" vector-effect="non-scaling-stroke" d="
  M 49.32 108.21
  Q 49.08 106.53 48.35 105.98"
/>
<path stroke="#523c2e" vector-effect="non-scaling-stroke" d="
  M 43.55 113.01
  L 41.43 118.05
  A 1.22 1.19 -44.4 0 0 41.41 118.97
  L 41.79 119.96
  A 0.53 0.53 0.0 0 0 42.77 120.00
  L 45.92 113.38"
/>
<path stroke="#523c2e" vector-effect="non-scaling-stroke" d="
  M 48.35 119.17
  Q 47.13 120.07 45.09 120.02
  Q 44.33 120.00 45.01 120.36
  Q 47.83 121.86 50.78 121.00
  Q 51.27 120.86 51.33 121.37
  C 51.73 124.64 50.46 125.97 47.40 127.23
  Q 42.77 129.15 40.45 133.50"
/>
<path stroke="#31241c" vector-effect="non-scaling-stroke" d="
  M 40.45 133.50
  L 39.23 134.33
  Q 38.72 134.68 38.28 134.24
  L 36.38 132.25
  A 1.29 1.29 0.0 0 0 34.20 133.45
  Q 34.88 136.23 32.28 136.59
  Q 31.79 136.66 31.47 137.05
  L 29.85 139.03"
/>
<path stroke="#d6b59a" vector-effect="non-scaling-stroke" d="
  M 61.19 109.68
  C 59.66 112.95 57.30 117.88 53.50 115.23"
/>
<path stroke="#b89b84" vector-effect="non-scaling-stroke" d="
  M 53.50 115.23
  Q 52.21 111.20 49.32 108.21"
/>
<path stroke="#a88369" vector-effect="non-scaling-stroke" d="
  M 52.87 125.45
  Q 52.78 122.68 53.66 120.65
  A 1.20 1.19 2.4 0 0 52.18 119.05
  Q 49.08 120.10 48.35 119.17"
/>
<path stroke="#6f5644" vector-effect="non-scaling-stroke" d="
  M 48.35 119.17
  L 49.44 117.71"
/>
<path stroke="#6a5140" vector-effect="non-scaling-stroke" d="
  M 40.02 134.97
  L 40.45 133.50"
/>
<path stroke="#a88369" vector-effect="non-scaling-stroke" d="
  M 201.66 151.11
  L 192.66 168.93
  A 1.05 1.05 0.0 0 0 193.31 170.41
  L 193.75 170.54"
/>
<path stroke="#b89b84" vector-effect="non-scaling-stroke" d="
  M 192.04 181.33
  Q 190.58 187.08 196.25 190.42"
/>
<path stroke="#72523c" vector-effect="non-scaling-stroke" d="
  M 194.67 206.22
  Q 193.84 201.38 194.54 196.56
  Q 194.63 195.98 194.06 195.84
  Q 191.50 195.24 191.29 192.59
  A 0.19 0.19 0.0 0 0 190.91 192.59
  C 190.73 195.18 194.89 196.65 193.20 198.55
  A 1.03 1.03 0.0 0 1 191.63 198.52
  Q 187.25 193.18 187.53 186.15
  C 187.71 181.70 186.22 179.06 182.38 177.13
  A 1.29 1.28 -87.5 0 1 181.76 176.45
  L 181.00 174.54"
/>
<path stroke="#a0836e" vector-effect="non-scaling-stroke" d="
  M 105.62 201.31
  L 106.53 203.93"
/>
<path stroke="#392518" vector-effect="non-scaling-stroke" d="
  M 105.40 212.76
  L 103.84 212.72
  Q 103.24 212.71 103.07 212.13
  Q 102.73 210.88 101.51 210.73
  Q 100.94 210.65 100.80 210.10
  Q 100.32 208.22 101.21 206.50"
/>
<path stroke="#866248" vector-effect="non-scaling-stroke" d="
  M 101.21 206.50
  Q 100.89 208.17 101.91 209.57
  A 0.53 0.52 48.9 0 0 102.71 209.63
  C 103.82 208.46 104.83 205.50 102.85 204.58
  Q 102.44 204.39 102.25 204.79
  Q 102.16 204.99 102.16 205.19"
/>
<path stroke="#392518" vector-effect="non-scaling-stroke" d="
  M 102.16 205.19
  C 98.59 198.23 104.00 194.45 103.39 187.35
  Q 103.14 184.42 103.04 181.51
  Q 103.02 181.00 102.68 180.60
  Q 98.43 175.66 90.73 169.01
  Q 86.37 165.25 88.19 159.11
  A 0.97 0.96 30.6 0 0 87.94 158.14
  Q 86.85 157.05 87.01 155.50
  Q 87.07 154.80 86.38 154.75
  Q 84.54 154.62 83.25 155.96"
/>
<path stroke="#866248" vector-effect="non-scaling-stroke" d="
  M 83.25 155.96
  Q 83.87 154.91 83.99 153.73"
/>
<path stroke="#c7a388" vector-effect="non-scaling-stroke" d="
  M 146.21 173.25
  Q 146.83 172.19 147.91 171.60
  Q 148.65 171.20 148.30 171.96
  L 148.00 172.60
  A 0.36 0.36 0.0 0 0 148.16 173.07
  Q 151.00 174.53 153.96 175.72
  Q 154.41 175.90 154.87 175.75
  Q 157.05 175.05 158.86 176.23
  Q 159.20 176.45 159.37 176.80
  Q 159.83 177.70 161.11 177.45
  A 2.85 2.71 21.0 0 0 162.15 177.02
  Q 164.40 175.50 167.15 175.28
  Q 167.69 175.23 167.91 174.73
  L 169.29 171.50"
/>
<path stroke="#9f795e" vector-effect="non-scaling-stroke" d="
  M 169.29 171.50
  C 171.25 173.84 168.65 176.18 167.71 178.00"
/>
<path stroke="#cdab90" vector-effect="non-scaling-stroke" d="
  M 112.35 178.59
  Q 112.40 178.07 112.24 177.69
  A 1.35 1.35 0.0 0 0 109.71 177.78
  C 108.93 180.10 108.32 181.85 108.32 184.48
  C 108.32 187.89 107.10 191.07 106.81 194.21
  Q 106.49 197.77 105.62 201.31"
/>
<path stroke="#866248" vector-effect="non-scaling-stroke" d="
  M 105.62 201.31
  Q 104.98 191.34 107.22 181.73
  Q 107.62 180.02 106.20 177.53
  Q 105.90 177.01 105.36 177.29
  Q 104.39 177.79 103.97 176.67
  A 0.73 0.72 -12.7 0 0 103.21 176.20
  Q 100.64 176.48 99.50 174.32
  Q 99.25 173.84 98.75 173.63
  L 95.78 172.35
  Q 95.42 172.20 95.31 171.82
  C 94.48 168.82 91.35 169.26 90.70 165.07
  C 89.99 160.39 90.77 154.79 88.84 151.01
  Q 88.60 150.53 88.07 150.51
  Q 87.02 150.46 85.93 151.23"
/>
<path stroke="#bc9375" vector-effect="non-scaling-stroke" d="
  M 112.41 162.41
  Q 113.55 157.25 113.25 151.33"
/>
<path stroke="#a88369" vector-effect="non-scaling-stroke" d="
  M 188.40 158.68
  L 189.08 168.40
  A 1.62 1.59 59.7 0 1 188.83 169.39
  Q 186.22 173.44 187.43 178.04
  A 0.66 0.66 0.0 0 1 186.39 178.73
  L 181.00 174.54"
/>
<path stroke="#8f6c53" vector-effect="non-scaling-stroke" d="
  M 181.00 174.54
  C 180.42 173.13 174.94 161.58 172.18 165.69"
/>
<path stroke="#6f5644" vector-effect="non-scaling-stroke" d="
  M 172.18 165.69
  Q 170.59 165.67 170.00 166.02"
/>
<path stroke="#a88369" vector-effect="non-scaling-stroke" d="
  M 170.00 166.02
  Q 168.09 165.90 166.68 167.95"
/>
<path stroke="#d0ad92" vector-effect="non-scaling-stroke" d="
  M 166.68 167.95
  L 167.25 165.49
  A 0.78 0.78 0.0 0 0 166.88 164.63
  Q 164.42 163.26 161.56 163.75
  C 160.70 163.89 159.88 163.64 159.98 162.64
  Q 160.03 162.16 159.64 161.89
  Q 158.53 161.12 159.27 160.27
  A 0.60 0.40 9.1 0 0 158.58 159.63
  Q 156.72 159.81 156.72 157.93
  Q 156.71 157.75 156.53 157.75
  Q 156.39 157.75 156.25 157.75
  Q 155.76 157.76 155.75 158.25
  Q 155.75 158.38 155.75 158.51
  A 0.08 0.08 0.0 0 1 155.67 158.59
  L 151.90 158.82
  Q 151.49 158.84 151.19 158.55
  C 149.23 156.61 145.22 157.41 145.11 160.62
  Q 145.09 161.15 144.66 161.48
  Q 142.15 163.39 141.77 166.57
  A 0.75 0.73 86.7 0 1 141.21 167.21
  L 138.72 167.81
  A 1.13 1.13 0.0 0 0 138.53 169.95
  L 146.21 173.25"
/>
<path stroke="#bc9375" vector-effect="non-scaling-stroke" d="
  M 146.21 173.25
  L 146.69 174.48
  A 0.69 0.68 76.2 0 1 146.13 175.41
  L 139.71 176.14
  Q 138.38 176.29 138.21 174.97
  Q 137.87 172.43 135.71 171.40
  Q 135.25 171.18 135.25 170.66
  L 135.25 166.48
  A 1.06 1.03 70.8 0 1 135.63 165.67
  Q 137.71 163.93 136.99 161.49
  C 135.29 155.79 138.64 150.95 144.66 151.10
  A 1.31 1.31 0.0 0 0 145.94 149.39
  Q 144.54 145.01 147.04 140.96
  Q 147.33 140.50 147.85 140.36
  L 151.89 139.29
  Q 152.51 139.13 152.95 139.58
  L 153.63 140.26
  A 0.70 0.69 18.8 0 0 154.81 139.68
  Q 154.47 137.05 152.04 135.88
  A 0.95 0.95 0.0 0 1 151.50 135.02
  L 151.50 134.49
  Q 151.50 133.91 151.13 133.46
  Q 149.23 131.13 149.09 128.16
  Q 149.08 128.01 148.93 128.01
  Q 148.79 128.00 148.65 128.00
  Q 148.26 127.99 148.02 127.67
  C 146.24 125.26 144.37 125.59 141.61 126.67
  C 138.53 127.88 136.25 126.33 133.61 126.57
  Q 131.82 126.73 130.09 127.28
  Q 129.61 127.44 129.37 127.89
  C 128.02 130.34 125.19 131.47 123.76 132.75
  C 121.23 135.03 117.24 137.75 116.23 141.09
  Q 114.71 146.11 113.25 151.33"
/>
<path stroke="#c59d7f" vector-effect="non-scaling-stroke" d="
  M 113.25 151.33
  Q 113.94 148.09 113.44 145.22"
/>
<path stroke="#664c3a" vector-effect="non-scaling-stroke" d="
  M 83.25 155.96
  L 80.33 165.29
  A 1.38 1.34 -47.7 0 0 80.36 166.21
  Q 82.08 170.59 86.37 171.43
  C 91.85 172.51 99.96 179.14 99.99 185.25
  Q 100.03 191.02 98.93 196.76
  Q 98.80 197.45 98.49 196.82
  Q 97.73 195.28 96.48 194.66"
/>
<path stroke="#392518" vector-effect="non-scaling-stroke" d="
  M 187.23 242.00
  Q 186.87 242.33 186.57 241.96
  Q 186.25 241.57 186.31 241.07
  C 186.66 238.08 188.45 236.24 188.66 233.50
  Q 189.02 228.70 188.12 223.97
  C 187.21 219.24 188.11 214.94 188.67 210.34
  C 189.16 206.32 188.98 202.83 188.69 198.94
  C 188.57 197.40 188.89 195.39 188.19 193.32
  C 187.60 191.54 185.71 190.92 186.02 188.32
  Q 186.09 187.78 185.80 187.32
  Q 184.56 185.36 184.36 183.01
  Q 184.31 182.39 183.85 181.97
  L 180.61 178.99
  Q 180.34 178.74 180.30 178.38
  Q 180.08 176.52 178.99 175.01
  Q 178.69 174.60 178.57 174.11
  C 178.14 172.23 176.58 171.10 175.75 169.63
  Q 174.18 166.86 172.18 165.69"
/>
<path stroke="#664c3a" vector-effect="non-scaling-stroke" d="
  M 102.16 205.19
  L 101.21 206.50"
/>
<path stroke="#6f5644" vector-effect="non-scaling-stroke" d="
  M 106.95 240.73
  Q 103.93 242.51 103.27 246.85"
/>
<path stroke="#31241c" vector-effect="non-scaling-stroke" d="
  M 103.27 246.85
  Q 103.54 248.70 102.82 250.08"
/>
<path stroke="#392518" vector-effect="non-scaling-stroke" d="
  M 102.82 250.08
  Q 101.20 248.60 101.72 246.53
  Q 101.97 245.54 101.18 246.19
  Q 100.53 246.73 100.24 247.53
  A 1.35 1.35 0.0 0 0 100.27 248.52
  Q 100.96 250.12 99.97 251.43
  Q 99.68 251.81 99.25 251.62
  Q 96.71 250.51 96.91 252.96"
/>
<path stroke="#31241c" vector-effect="non-scaling-stroke" d="
  M 98.38 245.11
  Q 99.10 244.38 98.13 243.33
  A 0.48 0.48 0.0 0 1 98.16 242.64
  Q 99.27 241.66 99.84 240.29
  A 0.40 0.40 0.0 0 0 99.27 239.78
  Q 96.86 241.13 96.46 244.26"
/>
<path stroke="#b3937c" vector-effect="non-scaling-stroke" d="
  M 186.90 215.10
  Q 184.77 219.35 184.38 224.31"
/>
<path stroke="#523c2e" vector-effect="non-scaling-stroke" d="
  M 168.51 242.68
  Q 168.47 242.01 169.19 241.59
  A 0.69 0.69 0.0 0 1 170.02 241.68
  C 172.62 244.08 174.66 237.37 175.80 234.61
  Q 176.01 234.12 176.54 234.07
  Q 178.63 233.89 179.47 235.74
  Q 179.65 236.15 180.08 236.01
  L 180.42 235.90
  A 0.42 0.41 -16.2 0 0 180.70 235.40
  Q 180.09 232.99 177.75 232.73
  Q 176.95 232.65 177.43 232.01
  C 178.06 231.16 178.37 230.72 178.58 229.66
  Q 180.36 220.90 182.91 212.34
  C 184.15 208.19 186.61 206.89 185.32 201.74
  C 183.75 195.50 183.64 191.00 177.25 188.13"
/>
<path stroke="#b3937c" vector-effect="non-scaling-stroke" d="
  M 166.68 167.95
  Q 169.34 168.89 169.29 171.50"
/>
<path stroke="#523c2e" vector-effect="non-scaling-stroke" d="
  M 178.48 246.36
  Q 178.76 244.60 180.23 243.83
  Q 180.68 243.59 180.70 243.07
  C 180.84 239.80 183.37 237.59 183.05 234.73"
/>
<path stroke="#7a6657" vector-effect="non-scaling-stroke" d="
  M 185.39 223.95
  L 186.90 215.10"
/>
<path stroke="#523c2e" vector-effect="non-scaling-stroke" d="
  M 186.90 215.10
  Q 189.73 201.52 183.10 189.21
  A 1.26 1.25 39.2 0 1 183.00 188.25
  C 184.10 184.44 182.52 182.84 179.55 180.93
  C 176.52 178.99 174.26 174.39 172.74 171.22
  C 171.97 169.60 170.83 168.45 169.78 167.02
  Q 169.53 166.69 169.77 166.36
  L 170.00 166.02"
/>
<path stroke="#513a2a" vector-effect="non-scaling-stroke" d="
  M 102.82 250.08
  Q 102.91 251.20 103.88 252.27"
/>
<path stroke="#876b57" vector-effect="non-scaling-stroke" d="
  M 106.42 250.36
  Q 104.12 248.71 103.27 246.85"
/>
<path stroke="#513a2a" vector-effect="non-scaling-stroke" d="
  M 36.43 107.00
  L 38.04 108.41
  A 0.23 0.23 0.0 0 0 38.36 108.39
  L 38.46 108.28
  A 4.29 1.26 -48.8 0 0 40.33 104.22
  L 40.27 104.17
  A 4.29 1.26 -48.8 0 0 36.50 106.57
  L 36.41 106.67
  A 0.23 0.23 0.0 0 0 36.43 107.00"
/>
<path stroke="#d0ad92" vector-effect="non-scaling-stroke" d="
  M 202.73 130.80
  L 200.96 130.47
  Q 200.43 130.37 200.13 130.82
  C 198.56 133.14 201.23 135.71 199.13 137.09
  A 1.46 1.45 82.7 0 0 198.54 137.86
  Q 197.98 139.59 196.42 140.45
  A 1.05 1.03 -8.9 0 0 195.91 141.13
  L 195.53 142.76
  Q 195.47 143.03 195.72 142.91
  C 198.66 141.55 200.97 137.23 202.92 134.60
  A 1.80 1.75 -27.8 0 0 203.26 133.56
  L 203.23 130.40
  Q 203.23 130.30 203.14 130.34
  Q 202.94 130.42 202.94 130.63
  Q 202.93 130.84 202.73 130.80"
/>
<path stroke="#31241c" vector-effect="non-scaling-stroke" d="
  M 24.47 135.86
  L 26.41 138.05
  A 0.74 0.74 0.0 0 0 27.45 138.12
  L 27.95 137.68
  A 2.07 2.03 48.6 0 0 28.11 134.78
  L 27.93 134.59
  A 2.07 2.03 48.6 0 0 25.04 134.37
  L 24.54 134.82
  A 0.74 0.74 0.0 0 0 24.47 135.86"
/>
<path stroke="#866248" vector-effect="non-scaling-stroke" d="
  M 125.56 167.39
  C 125.98 161.99 121.72 154.68 119.71 149.55
  A 1.36 1.36 0.0 0 0 117.61 148.98
  C 115.13 150.91 115.14 157.32 115.06 160.34
  C 114.92 165.00 116.67 168.19 119.74 171.31
  Q 120.13 171.71 120.68 171.79
  L 124.95 172.40
  A 1.74 1.74 0.0 0 0 126.93 170.60
  Q 126.87 169.16 125.86 168.20
  A 1.02 1.00 -65.9 0 1 125.56 167.39"
/>
<path stroke="#72523c" vector-effect="non-scaling-stroke" d="
  M 193.06 162.74
  Q 196.40 158.76 197.79 153.69
  Q 197.93 153.19 197.43 153.09
  L 196.93 153.00
  A 0.82 0.81 -71.1 0 0 196.03 153.45
  Q 195.37 154.80 193.91 155.23
  Q 193.35 155.40 193.29 155.98
  L 193.17 157.17
  Q 193.12 157.67 192.75 158.02
  L 189.92 160.69
  A 1.08 1.07 -35.9 0 0 189.71 161.99
  L 191.04 164.45
  A 0.73 0.73 0.0 0 0 192.11 164.69
  Q 192.71 164.26 192.75 163.53
  A 1.41 1.36 67.6 0 1 193.06 162.74"
/>
</g>
<path fill="#49392e" d="
  M 48.41 98.65
  C 46.55 100.69 47.76 103.61 48.35 105.98
  L 47.32 110.74
  A 0.82 0.82 0.0 0 0 47.67 111.60
  Q 49.28 112.67 48.79 114.50
  Q 47.68 112.09 45.92 113.38
  Q 44.61 112.24 43.55 113.01
  C 41.39 110.59 38.27 114.77 37.66 116.50
  A 1.11 1.11 0.0 0 1 36.24 117.18
  Q 34.23 116.45 33.14 114.70
  A 0.77 0.77 0.0 0 0 32.36 114.34
  Q 31.92 114.41 31.54 114.25
  Q 31.56 110.47 33.55 107.28
  Q 33.81 106.86 33.79 106.36
  C 33.41 96.34 30.96 86.20 29.53 76.28
  Q 29.46 75.77 29.51 75.26
  Q 29.65 74.03 28.80 73.08
  Q 28.43 72.66 28.61 72.14
  C 29.14 70.63 28.55 69.46 28.39 68.18
  Q 24.90 41.43 13.97 16.01
  Q 12.76 13.20 12.65 9.80
  Q 12.62 8.82 13.02 9.71
  C 20.79 26.88 28.06 43.44 31.01 59.50
  Q 34.81 80.23 39.05 102.18
  A 0.89 0.88 42.9 0 0 40.80 102.12
  Q 41.91 92.43 43.60 82.30
  C 44.05 79.63 45.17 76.29 45.56 73.21
  C 45.74 71.77 46.10 71.06 46.64 69.77
  Q 46.82 69.31 46.76 68.82
  Q 46.57 67.46 47.54 66.50
  A 0.90 0.90 0.0 0 0 47.79 65.71
  C 47.44 63.65 48.47 62.36 48.70 60.76
  C 51.04 44.28 54.35 25.44 43.43 9.71
  A 0.34 0.34 0.0 0 1 43.95 9.27
  Q 51.22 16.45 52.97 27.05
  C 56.84 50.44 50.33 72.70 47.73 95.74
  Q 47.66 96.40 48.41 98.65
  Z
  M 36.43 107.00
  L 38.04 108.41
  A 0.23 0.23 0.0 0 0 38.36 108.39
  L 38.46 108.28
  A 4.29 1.26 -48.8 0 0 40.33 104.22
  L 40.27 104.17
  A 4.29 1.26 -48.8 0 0 36.50 106.57
  L 36.41 106.67
  A 0.23 0.23 0.0 0 0 36.43 107.00
  Z"
/>
<path fill="#dbbca5" d="
  M 66.46 112.02
  L 64.27 114.25
  Q 63.97 114.55 64.01 114.97
  Q 64.23 117.28 61.83 117.46
  Q 61.33 117.50 61.13 117.96
  Q 59.40 122.14 62.12 125.32
  Q 62.50 125.76 62.65 126.32
  Q 63.49 129.37 64.95 132.21
  Q 65.16 132.62 65.14 133.08
  Q 64.95 136.72 67.26 139.60
  Q 67.53 139.94 67.95 140.02
  Q 73.65 141.13 77.77 145.22
  C 82.18 149.60 86.87 141.12 92.84 147.65
  C 93.71 148.60 95.01 149.77 95.74 151.27
  C 97.50 154.87 101.16 157.69 104.20 160.42
  A 0.74 0.73 35.0 0 0 105.34 160.22
  L 107.89 155.33
  Q 108.13 154.88 108.60 154.69
  C 112.46 153.08 111.29 145.69 112.28 142.24
  C 113.25 138.84 113.16 135.68 114.69 132.48
  C 115.36 131.07 116.98 130.10 117.23 127.97
  A 2.03 2.02 65.7 0 1 117.56 127.09
  Q 118.83 125.29 119.94 123.41
  Q 120.17 123.03 119.77 123.24
  L 119.40 123.44
  Q 119.07 123.62 119.18 123.27
  L 120.47 119.25
  Q 120.61 118.82 120.91 118.49
  Q 122.07 117.23 122.35 115.99
  C 132.29 116.96 142.25 115.14 151.30 114.82
  C 157.97 114.58 163.46 114.37 171.15 113.74
  C 182.88 112.79 193.04 119.13 203.16 126.11
  C 214.22 133.73 208.61 145.62 207.81 156.60
  Q 207.30 163.46 200.81 167.56
  Q 203.71 158.41 201.66 151.11
  Q 206.15 144.84 205.55 136.96
  A 0.54 0.54 0.0 0 0 204.56 136.72
  Q 202.60 139.85 199.54 141.89
  A 1.41 1.41 0.0 0 0 198.98 142.60
  L 197.27 147.23
  A 1.20 1.20 0.0 0 1 196.50 147.97
  C 195.84 148.18 195.28 148.45 194.88 149.05
  Q 191.52 154.08 188.40 158.68
  Q 187.34 163.25 187.51 157.00
  Q 187.53 156.27 187.07 156.83
  L 184.97 159.42
  Q 184.65 159.81 184.64 160.33
  Q 184.60 161.86 183.80 163.04
  A 1.38 1.37 48.5 0 1 181.45 162.89
  C 179.63 159.40 183.13 156.85 181.41 152.51
  A 1.37 1.36 -44.7 0 1 181.42 151.49
  Q 183.24 147.17 179.34 145.09
  Q 178.95 144.89 178.57 145.09
  L 177.37 145.70
  Q 177.04 145.86 176.82 145.57
  Q 175.97 144.46 174.69 144.08
  Q 174.22 143.94 174.07 144.40
  L 173.60 145.83
  Q 173.39 146.48 172.70 146.42
  C 171.05 146.27 170.04 144.98 170.04 143.28
  Q 170.05 138.74 169.52 131.48
  Q 169.34 129.04 171.61 127.80
  A 0.89 0.88 73.9 0 0 172.07 126.96
  L 171.54 119.73
  A 2.29 2.29 0.0 0 0 169.00 117.63
  L 163.97 118.22
  Q 163.74 118.25 163.75 118.47
  Q 163.75 118.61 163.76 118.77
  Q 163.80 119.14 163.43 119.15
  C 157.15 119.44 150.80 118.23 144.94 118.49
  Q 136.44 118.87 127.94 119.14
  C 123.55 119.28 122.10 124.21 119.46 126.85
  Q 119.10 127.21 119.03 127.72
  Q 118.67 130.31 117.19 132.36
  C 115.65 134.49 115.47 139.52 114.18 140.66
  Q 113.83 140.98 113.66 141.42
  Q 112.84 143.65 113.44 145.22
  Q 113.07 148.62 112.30 151.54
  C 111.22 155.64 112.72 158.81 109.02 162.04
  C 106.43 164.30 103.43 163.54 101.21 161.33
  Q 100.84 160.96 100.36 160.79
  Q 99.39 160.44 99.11 159.55
  Q 98.98 159.12 98.64 158.82
  Q 96.18 156.61 94.54 153.79
  C 93.34 151.74 93.49 148.79 90.26 147.55
  A 0.33 0.33 0.0 0 0 89.97 148.15
  C 94.02 150.58 92.13 152.96 94.02 155.97
  C 95.99 159.07 101.16 165.06 105.49 165.82
  Q 106.01 165.92 106.48 165.66
  L 112.41 162.41
  L 107.85 165.60
  Q 107.47 165.87 107.39 166.33
  Q 107.09 168.01 105.35 167.98
  Q 104.84 167.97 104.41 168.23
  Q 101.06 170.28 97.67 168.26
  Q 97.06 167.90 97.08 167.19
  L 97.16 163.48
  Q 97.17 163.04 96.90 162.69
  Q 92.88 157.57 91.77 151.15
  Q 91.68 150.61 91.31 150.22
  C 89.49 148.29 87.25 149.18 85.93 151.23
  L 83.99 153.73
  C 81.50 155.23 81.35 157.98 79.91 160.65
  Q 77.19 165.70 81.20 169.40
  Q 81.62 169.79 81.24 170.22
  Q 80.41 171.17 78.02 170.01
  A 1.62 1.52 80.5 0 1 77.56 169.66
  Q 76.06 168.05 73.71 169.75
  C 66.09 165.40 60.91 159.40 55.17 153.58
  Q 53.87 148.97 49.89 145.80
  A 1.25 1.23 20.4 0 1 49.42 144.79
  Q 49.46 142.67 48.31 140.99
  Q 48.07 140.64 47.66 140.56
  Q 44.94 140.04 42.86 140.92
  Q 37.73 140.23 34.37 141.21
  Q 27.38 142.27 29.85 139.03
  L 37.78 139.29
  Q 38.36 139.31 38.57 138.76
  L 40.02 134.97
  C 42.63 133.99 43.65 129.92 46.53 130.70
  Q 47.01 130.83 47.38 130.50
  L 52.87 125.45
  Q 53.40 123.34 55.30 122.27
  Q 55.71 122.04 55.80 121.57
  Q 56.72 116.90 61.26 115.37
  A 1.00 0.98 -1.9 0 0 61.89 114.71
  Q 62.72 111.94 61.19 109.68
  Q 61.06 105.81 63.08 102.44
  A 1.12 1.12 0.0 0 0 62.23 100.75
  Q 60.23 100.55 59.64 102.43
  Q 59.50 102.87 59.09 103.07
  L 56.98 104.08
  Q 56.51 104.30 56.43 104.82
  L 55.53 110.84
  Q 55.45 111.37 55.09 110.97
  Q 53.87 109.61 53.97 107.82
  A 1.79 1.77 -72.1 0 0 53.16 106.22
  Q 49.83 104.10 49.32 108.21
  Q 49.08 106.53 48.35 105.98
  C 47.76 103.61 46.55 100.69 48.41 98.65
  Q 50.11 99.88 50.43 102.06
  A 0.68 0.68 0.0 0 0 51.02 102.63
  C 56.49 103.28 61.52 98.91 64.90 95.47
  A 1.06 1.05 73.2 0 1 66.68 96.43
  Q 65.57 101.79 63.66 106.46
  C 62.47 109.39 62.74 111.85 66.46 112.02
  Z
  M 202.73 130.80
  L 200.96 130.47
  Q 200.43 130.37 200.13 130.82
  C 198.56 133.14 201.23 135.71 199.13 137.09
  A 1.46 1.45 82.7 0 0 198.54 137.86
  Q 197.98 139.59 196.42 140.45
  A 1.05 1.03 -8.9 0 0 195.91 141.13
  L 195.53 142.76
  Q 195.47 143.03 195.72 142.91
  C 198.66 141.55 200.97 137.23 202.92 134.60
  A 1.80 1.75 -27.8 0 0 203.26 133.56
  L 203.23 130.40
  Q 203.23 130.30 203.14 130.34
  Q 202.94 130.42 202.94 130.63
  Q 202.93 130.84 202.73 130.80
  Z"
/>
<path fill="#e6ccb5" d="
  M 61.19 109.68
  C 59.66 112.95 57.30 117.88 53.50 115.23
  Q 52.21 111.20 49.32 108.21
  Q 49.83 104.10 53.16 106.22
  A 1.79 1.77 -72.1 0 1 53.97 107.82
  Q 53.87 109.61 55.09 110.97
  Q 55.45 111.37 55.53 110.84
  L 56.43 104.82
  Q 56.51 104.30 56.98 104.08
  L 59.09 103.07
  Q 59.50 102.87 59.64 102.43
  Q 60.23 100.55 62.23 100.75
  A 1.12 1.12 0.0 0 1 63.08 102.44
  Q 61.06 105.81 61.19 109.68
  Z"
/>
<path fill="#593a26" d="
  M 36.43 107.00
  A 0.23 0.23 0.0 0 1 36.41 106.67
  L 36.50 106.57
  A 4.29 1.26 -48.8 0 1 40.27 104.17
  L 40.33 104.22
  A 4.29 1.26 -48.8 0 1 38.46 108.28
  L 38.36 108.39
  A 0.23 0.23 0.0 0 1 38.04 108.41
  L 36.43 107.00
  Z"
/>
<path fill="#8a6952" d="
  M 48.35 105.98
  Q 49.08 106.53 49.32 108.21
  Q 52.21 111.20 53.50 115.23
  Q 52.90 115.81 52.06 115.59
  Q 51.54 115.46 51.18 115.85
  L 49.44 117.71
  Q 48.45 115.93 48.79 114.50
  Q 49.28 112.67 47.67 111.60
  A 0.82 0.82 0.0 0 1 47.32 110.74
  L 48.35 105.98
  Z"
/>
<path fill="#c59d7f" d="
  M 61.19 109.68
  Q 62.72 111.94 61.89 114.71
  A 1.00 0.98 -1.9 0 1 61.26 115.37
  Q 56.72 116.90 55.80 121.57
  Q 55.71 122.04 55.30 122.27
  Q 53.40 123.34 52.87 125.45
  Q 52.78 122.68 53.66 120.65
  A 1.20 1.19 2.4 0 0 52.18 119.05
  Q 49.08 120.10 48.35 119.17
  L 49.44 117.71
  L 51.18 115.85
  Q 51.54 115.46 52.06 115.59
  Q 52.90 115.81 53.50 115.23
  C 57.30 117.88 59.66 112.95 61.19 109.68
  Z"
/>
<path fill="#e6ccb5" d="
  M 122.35 115.99
  Q 122.07 117.23 120.91 118.49
  Q 120.61 118.82 120.47 119.25
  L 119.18 123.27
  Q 119.07 123.62 119.40 123.44
  L 119.77 123.24
  Q 120.17 123.03 119.94 123.41
  Q 118.83 125.29 117.56 127.09
  A 2.03 2.02 65.7 0 0 117.23 127.97
  C 116.98 130.10 115.36 131.07 114.69 132.48
  C 113.16 135.68 113.25 138.84 112.28 142.24
  C 111.29 145.69 112.46 153.08 108.60 154.69
  Q 108.13 154.88 107.89 155.33
  L 105.34 160.22
  A 0.74 0.73 35.0 0 1 104.20 160.42
  C 101.16 157.69 97.50 154.87 95.74 151.27
  C 95.01 149.77 93.71 148.60 92.84 147.65
  C 86.87 141.12 82.18 149.60 77.77 145.22
  Q 73.65 141.13 67.95 140.02
  Q 67.53 139.94 67.26 139.60
  Q 64.95 136.72 65.14 133.08
  Q 65.16 132.62 64.95 132.21
  Q 63.49 129.37 62.65 126.32
  Q 62.50 125.76 62.12 125.32
  Q 59.40 122.14 61.13 117.96
  Q 61.33 117.50 61.83 117.46
  Q 64.23 117.28 64.01 114.97
  Q 63.97 114.55 64.27 114.25
  L 66.46 112.02
  Q 71.31 115.70 76.89 118.24
  Q 77.34 118.45 77.82 118.36
  C 84.76 117.09 90.37 117.03 97.21 113.27
  C 103.94 109.58 116.18 114.51 122.35 115.99
  Z"
/>
<path fill="#190f09" d="
  M 43.55 113.01
  L 41.43 118.05
  A 1.22 1.19 -44.4 0 0 41.41 118.97
  L 41.79 119.96
  A 0.53 0.53 0.0 0 0 42.77 120.00
  L 45.92 113.38
  Q 47.68 112.09 48.79 114.50
  Q 48.45 115.93 49.44 117.71
  L 48.35 119.17
  Q 47.13 120.07 45.09 120.02
  Q 44.33 120.00 45.01 120.36
  Q 47.83 121.86 50.78 121.00
  Q 51.27 120.86 51.33 121.37
  C 51.73 124.64 50.46 125.97 47.40 127.23
  Q 42.77 129.15 40.45 133.50
  L 39.23 134.33
  Q 38.72 134.68 38.28 134.24
  L 36.38 132.25
  A 1.29 1.29 0.0 0 0 34.20 133.45
  Q 34.88 136.23 32.28 136.59
  Q 31.79 136.66 31.47 137.05
  L 29.85 139.03
  Q 27.38 142.27 34.37 141.21
  C 28.64 144.98 23.81 140.11 22.17 135.11
  A 2.53 2.52 -33.2 0 1 22.69 132.63
  Q 28.20 126.43 32.06 119.08
  Q 32.31 118.60 32.22 118.07
  L 31.54 114.25
  Q 31.92 114.41 32.36 114.34
  A 0.77 0.77 0.0 0 1 33.14 114.70
  Q 34.23 116.45 36.24 117.18
  A 1.11 1.11 0.0 0 0 37.66 116.50
  C 38.27 114.77 41.39 110.59 43.55 113.01
  Z
  M 24.47 135.86
  L 26.41 138.05
  A 0.74 0.74 0.0 0 0 27.45 138.12
  L 27.95 137.68
  A 2.07 2.03 48.6 0 0 28.11 134.78
  L 27.93 134.59
  A 2.07 2.03 48.6 0 0 25.04 134.37
  L 24.54 134.82
  A 0.74 0.74 0.0 0 0 24.47 135.86
  Z"
/>
<path fill="#8a6952" d="
  M 45.92 113.38
  L 42.77 120.00
  A 0.53 0.53 0.0 0 1 41.79 119.96
  L 41.41 118.97
  A 1.22 1.19 -44.4 0 1 41.43 118.05
  L 43.55 113.01
  Q 44.61 112.24 45.92 113.38
  Z"
/>
<path fill="#c59d7f" d="
  M 188.40 158.68
  L 189.08 168.40
  A 1.62 1.59 59.7 0 1 188.83 169.39
  Q 186.22 173.44 187.43 178.04
  A 0.66 0.66 0.0 0 1 186.39 178.73
  L 181.00 174.54
  C 180.42 173.13 174.94 161.58 172.18 165.69
  Q 170.59 165.67 170.00 166.02
  Q 168.09 165.90 166.68 167.95
  L 167.25 165.49
  A 0.78 0.78 0.0 0 0 166.88 164.63
  Q 164.42 163.26 161.56 163.75
  C 160.70 163.89 159.88 163.64 159.98 162.64
  Q 160.03 162.16 159.64 161.89
  Q 158.53 161.12 159.27 160.27
  A 0.60 0.40 9.1 0 0 158.58 159.63
  Q 156.72 159.81 156.72 157.93
  Q 156.71 157.75 156.53 157.75
  Q 156.39 157.75 156.25 157.75
  Q 155.76 157.76 155.75 158.25
  Q 155.75 158.38 155.75 158.51
  A 0.08 0.08 0.0 0 1 155.67 158.59
  L 151.90 158.82
  Q 151.49 158.84 151.19 158.55
  C 149.23 156.61 145.22 157.41 145.11 160.62
  Q 145.09 161.15 144.66 161.48
  Q 142.15 163.39 141.77 166.57
  A 0.75 0.73 86.7 0 1 141.21 167.21
  L 138.72 167.81
  A 1.13 1.13 0.0 0 0 138.53 169.95
  L 146.21 173.25
  L 146.69 174.48
  A 0.69 0.68 76.2 0 1 146.13 175.41
  L 139.71 176.14
  Q 138.38 176.29 138.21 174.97
  Q 137.87 172.43 135.71 171.40
  Q 135.25 171.18 135.25 170.66
  L 135.25 166.48
  A 1.06 1.03 70.8 0 1 135.63 165.67
  Q 137.71 163.93 136.99 161.49
  C 135.29 155.79 138.64 150.95 144.66 151.10
  A 1.31 1.31 0.0 0 0 145.94 149.39
  Q 144.54 145.01 147.04 140.96
  Q 147.33 140.50 147.85 140.36
  L 151.89 139.29
  Q 152.51 139.13 152.95 139.58
  L 153.63 140.26
  A 0.70 0.69 18.8 0 0 154.81 139.68
  Q 154.47 137.05 152.04 135.88
  A 0.95 0.95 0.0 0 1 151.50 135.02
  L 151.50 134.49
  Q 151.50 133.91 151.13 133.46
  Q 149.23 131.13 149.09 128.16
  Q 149.08 128.01 148.93 128.01
  Q 148.79 128.00 148.65 128.00
  Q 148.26 127.99 148.02 127.67
  C 146.24 125.26 144.37 125.59 141.61 126.67
  C 138.53 127.88 136.25 126.33 133.61 126.57
  Q 131.82 126.73 130.09 127.28
  Q 129.61 127.44 129.37 127.89
  C 128.02 130.34 125.19 131.47 123.76 132.75
  C 121.23 135.03 117.24 137.75 116.23 141.09
  Q 114.71 146.11 113.25 151.33
  Q 113.94 148.09 113.44 145.22
  Q 112.84 143.65 113.66 141.42
  Q 113.83 140.98 114.18 140.66
  C 115.47 139.52 115.65 134.49 117.19 132.36
  Q 118.67 130.31 119.03 127.72
  Q 119.10 127.21 119.46 126.85
  C 122.10 124.21 123.55 119.28 127.94 119.14
  Q 136.44 118.87 144.94 118.49
  C 150.80 118.23 157.15 119.44 163.43 119.15
  Q 163.80 119.14 163.76 118.77
  Q 163.75 118.61 163.75 118.47
  Q 163.74 118.25 163.97 118.22
  L 169.00 117.63
  A 2.29 2.29 0.0 0 1 171.54 119.73
  L 172.07 126.96
  A 0.89 0.88 73.9 0 1 171.61 127.80
  Q 169.34 129.04 169.52 131.48
  Q 170.05 138.74 170.04 143.28
  C 170.04 144.98 171.05 146.27 172.70 146.42
  Q 173.39 146.48 173.60 145.83
  L 174.07 144.40
  Q 174.22 143.94 174.69 144.08
  Q 175.97 144.46 176.82 145.57
  Q 177.04 145.86 177.37 145.70
  L 178.57 145.09
  Q 178.95 144.89 179.34 145.09
  Q 183.24 147.17 181.42 151.49
  A 1.37 1.36 -44.7 0 0 181.41 152.51
  C 183.13 156.85 179.63 159.40 181.45 162.89
  A 1.38 1.37 48.5 0 0 183.80 163.04
  Q 184.60 161.86 184.64 160.33
  Q 184.65 159.81 184.97 159.42
  L 187.07 156.83
  Q 187.53 156.27 187.51 157.00
  Q 187.34 163.25 188.40 158.68
  Z"
/>
<path fill="#8a6952" d="
  M 48.35 119.17
  Q 49.08 120.10 52.18 119.05
  A 1.20 1.19 2.4 0 1 53.66 120.65
  Q 52.78 122.68 52.87 125.45
  L 47.38 130.50
  Q 47.01 130.83 46.53 130.70
  C 43.65 129.92 42.63 133.99 40.02 134.97
  L 40.45 133.50
  Q 42.77 129.15 47.40 127.23
  C 50.46 125.97 51.73 124.64 51.33 121.37
  Q 51.27 120.86 50.78 121.00
  Q 47.83 121.86 45.01 120.36
  Q 44.33 120.00 45.09 120.02
  Q 47.13 120.07 48.35 119.17
  Z"
/>
<path fill="#b3896a" d="
  M 146.21 173.25
  Q 146.83 172.19 147.91 171.60
  Q 148.65 171.20 148.30 171.96
  L 148.00 172.60
  A 0.36 0.36 0.0 0 0 148.16 173.07
  Q 151.00 174.53 153.96 175.72
  Q 154.41 175.90 154.87 175.75
  Q 157.05 175.05 158.86 176.23
  Q 159.20 176.45 159.37 176.80
  Q 159.83 177.70 161.11 177.45
  A 2.85 2.71 21.0 0 0 162.15 177.02
  Q 164.40 175.50 167.15 175.28
  Q 167.69 175.23 167.91 174.73
  L 169.29 171.50
  C 171.25 173.84 168.65 176.18 167.71 178.00
  C 162.81 179.40 157.60 181.64 152.44 181.16
  Q 148.40 180.79 147.03 180.90
  C 143.46 181.20 140.01 182.14 136.46 181.15
  Q 124.50 177.82 112.35 178.59
  Q 112.40 178.07 112.24 177.69
  A 1.35 1.35 0.0 0 0 109.71 177.78
  C 108.93 180.10 108.32 181.85 108.32 184.48
  C 108.32 187.89 107.10 191.07 106.81 194.21
  Q 106.49 197.77 105.62 201.31
  Q 104.98 191.34 107.22 181.73
  Q 107.62 180.02 106.20 177.53
  Q 105.90 177.01 105.36 177.29
  Q 104.39 177.79 103.97 176.67
  A 0.73 0.72 -12.7 0 0 103.21 176.20
  Q 100.64 176.48 99.50 174.32
  Q 99.25 173.84 98.75 173.63
  L 95.78 172.35
  Q 95.42 172.20 95.31 171.82
  C 94.48 168.82 91.35 169.26 90.70 165.07
  C 89.99 160.39 90.77 154.79 88.84 151.01
  Q 88.60 150.53 88.07 150.51
  Q 87.02 150.46 85.93 151.23
  C 87.25 149.18 89.49 148.29 91.31 150.22
  Q 91.68 150.61 91.77 151.15
  Q 92.88 157.57 96.90 162.69
  Q 97.17 163.04 97.16 163.48
  L 97.08 167.19
  Q 97.06 167.90 97.67 168.26
  Q 101.06 170.28 104.41 168.23
  Q 104.84 167.97 105.35 167.98
  Q 107.09 168.01 107.39 166.33
  Q 107.47 165.87 107.85 165.60
  L 112.41 162.41
  Q 113.55 157.25 113.25 151.33
  Q 114.71 146.11 116.23 141.09
  C 117.24 137.75 121.23 135.03 123.76 132.75
  C 125.19 131.47 128.02 130.34 129.37 127.89
  Q 129.61 127.44 130.09 127.28
  Q 131.82 126.73 133.61 126.57
  C 136.25 126.33 138.53 127.88 141.61 126.67
  C 144.37 125.59 146.24 125.26 148.02 127.67
  Q 148.26 127.99 148.65 128.00
  Q 148.79 128.00 148.93 128.01
  Q 149.08 128.01 149.09 128.16
  Q 149.23 131.13 151.13 133.46
  Q 151.50 133.91 151.50 134.49
  L 151.50 135.02
  A 0.95 0.95 0.0 0 0 152.04 135.88
  Q 154.47 137.05 154.81 139.68
  A 0.70 0.69 18.8 0 1 153.63 140.26
  L 152.95 139.58
  Q 152.51 139.13 151.89 139.29
  L 147.85 140.36
  Q 147.33 140.50 147.04 140.96
  Q 144.54 145.01 145.94 149.39
  A 1.31 1.31 0.0 0 1 144.66 151.10
  C 138.64 150.95 135.29 155.79 136.99 161.49
  Q 137.71 163.93 135.63 165.67
  A 1.06 1.03 70.8 0 0 135.25 166.48
  L 135.25 170.66
  Q 135.25 171.18 135.71 171.40
  Q 137.87 172.43 138.21 174.97
  Q 138.38 176.29 139.71 176.14
  L 146.13 175.41
  A 0.69 0.68 76.2 0 0 146.69 174.48
  L 146.21 173.25
  Z
  M 125.56 167.39
  C 125.98 161.99 121.72 154.68 119.71 149.55
  A 1.36 1.36 0.0 0 0 117.61 148.98
  C 115.13 150.91 115.14 157.32 115.06 160.34
  C 114.92 165.00 116.67 168.19 119.74 171.31
  Q 120.13 171.71 120.68 171.79
  L 124.95 172.40
  A 1.74 1.74 0.0 0 0 126.93 170.60
  Q 126.87 169.16 125.86 168.20
  A 1.02 1.00 -65.9 0 1 125.56 167.39
  Z"
/>
<path fill="#c59d7f" d="
  M 202.94 130.63
  Q 202.94 130.42 203.14 130.34
  Q 203.23 130.30 203.23 130.40
  L 203.26 133.56
  A 1.80 1.75 -27.8 0 1 202.92 134.60
  C 200.97 137.23 198.66 141.55 195.72 142.91
  Q 195.47 143.03 195.53 142.76
  L 195.91 141.13
  A 1.05 1.03 -8.9 0 1 196.42 140.45
  Q 197.98 139.59 198.54 137.86
  A 1.46 1.45 82.7 0 1 199.13 137.09
  C 201.23 135.71 198.56 133.14 200.13 130.82
  Q 200.43 130.37 200.96 130.47
  L 202.73 130.80
  Q 202.93 130.84 202.94 130.63
  Z"
/>
<path fill="#49392e" d="
  M 40.45 133.50
  L 40.02 134.97
  L 38.57 138.76
  Q 38.36 139.31 37.78 139.29
  L 29.85 139.03
  L 31.47 137.05
  Q 31.79 136.66 32.28 136.59
  Q 34.88 136.23 34.20 133.45
  A 1.29 1.29 0.0 0 1 36.38 132.25
  L 38.28 134.24
  Q 38.72 134.68 39.23 134.33
  L 40.45 133.50
  Z"
/>
<path fill="#49392e" d="
  M 24.47 135.86
  A 0.74 0.74 0.0 0 1 24.54 134.82
  L 25.04 134.37
  A 2.07 2.03 48.6 0 1 27.93 134.59
  L 28.11 134.78
  A 2.07 2.03 48.6 0 1 27.95 137.68
  L 27.45 138.12
  A 0.74 0.74 0.0 0 1 26.41 138.05
  L 24.47 135.86
  Z"
/>
<path fill="#8a6952" d="
  M 201.66 151.11
  L 192.66 168.93
  A 1.05 1.05 0.0 0 0 193.31 170.41
  L 193.75 170.54
  Q 190.26 175.33 192.04 181.33
  Q 190.58 187.08 196.25 190.42
  C 196.51 196.63 197.47 202.37 194.67 206.22
  Q 193.84 201.38 194.54 196.56
  Q 194.63 195.98 194.06 195.84
  Q 191.50 195.24 191.29 192.59
  A 0.19 0.19 0.0 0 0 190.91 192.59
  C 190.73 195.18 194.89 196.65 193.20 198.55
  A 1.03 1.03 0.0 0 1 191.63 198.52
  Q 187.25 193.18 187.53 186.15
  C 187.71 181.70 186.22 179.06 182.38 177.13
  A 1.29 1.28 -87.5 0 1 181.76 176.45
  L 181.00 174.54
  L 186.39 178.73
  A 0.66 0.66 0.0 0 0 187.43 178.04
  Q 186.22 173.44 188.83 169.39
  A 1.62 1.59 59.7 0 0 189.08 168.40
  L 188.40 158.68
  Q 191.52 154.08 194.88 149.05
  C 195.28 148.45 195.84 148.18 196.50 147.97
  A 1.20 1.20 0.0 0 0 197.27 147.23
  L 198.98 142.60
  A 1.41 1.41 0.0 0 1 199.54 141.89
  Q 202.60 139.85 204.56 136.72
  A 0.54 0.54 0.0 0 1 205.55 136.96
  Q 206.15 144.84 201.66 151.11
  Z
  M 193.06 162.74
  Q 196.40 158.76 197.79 153.69
  Q 197.93 153.19 197.43 153.09
  L 196.93 153.00
  A 0.82 0.81 -71.1 0 0 196.03 153.45
  Q 195.37 154.80 193.91 155.23
  Q 193.35 155.40 193.29 155.98
  L 193.17 157.17
  Q 193.12 157.67 192.75 158.02
  L 189.92 160.69
  A 1.08 1.07 -35.9 0 0 189.71 161.99
  L 191.04 164.45
  A 0.73 0.73 0.0 0 0 192.11 164.69
  Q 192.71 164.26 192.75 163.53
  A 1.41 1.36 67.6 0 1 193.06 162.74
  Z"
/>
<path fill="#b3896a" d="
  M 55.17 153.58
  L 42.86 140.92
  Q 44.94 140.04 47.66 140.56
  Q 48.07 140.64 48.31 140.99
  Q 49.46 142.67 49.42 144.79
  A 1.25 1.23 20.4 0 0 49.89 145.80
  Q 53.87 148.97 55.17 153.58
  Z"
/>
<path fill="#c59d7f" d="
  M 113.25 151.33
  Q 113.55 157.25 112.41 162.41
  L 106.48 165.66
  Q 106.01 165.92 105.49 165.82
  C 101.16 165.06 95.99 159.07 94.02 155.97
  C 92.13 152.96 94.02 150.58 89.97 148.15
  A 0.33 0.33 0.0 0 1 90.26 147.55
  C 93.49 148.79 93.34 151.74 94.54 153.79
  Q 96.18 156.61 98.64 158.82
  Q 98.98 159.12 99.11 159.55
  Q 99.39 160.44 100.36 160.79
  Q 100.84 160.96 101.21 161.33
  C 103.43 163.54 106.43 164.30 109.02 162.04
  C 112.72 158.81 111.22 155.64 112.30 151.54
  Q 113.07 148.62 113.44 145.22
  Q 113.94 148.09 113.25 151.33
  Z"
/>
<path fill="#593a26" d="
  M 119.71 149.55
  C 121.72 154.68 125.98 161.99 125.56 167.39
  A 1.02 1.00 -65.9 0 0 125.86 168.20
  Q 126.87 169.16 126.93 170.60
  A 1.74 1.74 0.0 0 1 124.95 172.40
  L 120.68 171.79
  Q 120.13 171.71 119.74 171.31
  C 116.67 168.19 114.92 165.00 115.06 160.34
  C 115.14 157.32 115.13 150.91 117.61 148.98
  A 1.36 1.36 0.0 0 1 119.71 149.55
  Z"
/>
<path fill="#593a26" d="
  M 105.62 201.31
  L 106.53 203.93
  L 105.40 212.76
  L 103.84 212.72
  Q 103.24 212.71 103.07 212.13
  Q 102.73 210.88 101.51 210.73
  Q 100.94 210.65 100.80 210.10
  Q 100.32 208.22 101.21 206.50
  Q 100.89 208.17 101.91 209.57
  A 0.53 0.52 48.9 0 0 102.71 209.63
  C 103.82 208.46 104.83 205.50 102.85 204.58
  Q 102.44 204.39 102.25 204.79
  Q 102.16 204.99 102.16 205.19
  C 98.59 198.23 104.00 194.45 103.39 187.35
  Q 103.14 184.42 103.04 181.51
  Q 103.02 181.00 102.68 180.60
  Q 98.43 175.66 90.73 169.01
  Q 86.37 165.25 88.19 159.11
  A 0.97 0.96 30.6 0 0 87.94 158.14
  Q 86.85 157.05 87.01 155.50
  Q 87.07 154.80 86.38 154.75
  Q 84.54 154.62 83.25 155.96
  Q 83.87 154.91 83.99 153.73
  L 85.93 151.23
  Q 87.02 150.46 88.07 150.51
  Q 88.60 150.53 88.84 151.01
  C 90.77 154.79 89.99 160.39 90.70 165.07
  C 91.35 169.26 94.48 168.82 95.31 171.82
  Q 95.42 172.20 95.78 172.35
  L 98.75 173.63
  Q 99.25 173.84 99.50 174.32
  Q 100.64 176.48 103.21 176.20
  A 0.73 0.72 -12.7 0 1 103.97 176.67
  Q 104.39 177.79 105.36 177.29
  Q 105.90 177.01 106.20 177.53
  Q 107.62 180.02 107.22 181.73
  Q 104.98 191.34 105.62 201.31
  Z"
/>
<path fill="#c59d7f" d="
  M 201.66 151.11
  Q 203.71 158.41 200.81 167.56
  L 193.75 170.54
  L 193.31 170.41
  A 1.05 1.05 0.0 0 1 192.66 168.93
  L 201.66 151.11
  Z"
/>
<path fill="#593a26" d="
  M 192.75 163.53
  Q 192.71 164.26 192.11 164.69
  A 0.73 0.73 0.0 0 1 191.04 164.45
  L 189.71 161.99
  A 1.08 1.07 -35.9 0 1 189.92 160.69
  L 192.75 158.02
  Q 193.12 157.67 193.17 157.17
  L 193.29 155.98
  Q 193.35 155.40 193.91 155.23
  Q 195.37 154.80 196.03 153.45
  A 0.82 0.81 -71.1 0 1 196.93 153.00
  L 197.43 153.09
  Q 197.93 153.19 197.79 153.69
  Q 196.40 158.76 193.06 162.74
  A 1.41 1.36 67.6 0 0 192.75 163.53
  Z"
/>
<path fill="#b3896a" d="
  M 83.99 153.73
  Q 83.87 154.91 83.25 155.96
  L 80.33 165.29
  A 1.38 1.34 -47.7 0 0 80.36 166.21
  Q 82.08 170.59 86.37 171.43
  C 91.85 172.51 99.96 179.14 99.99 185.25
  Q 100.03 191.02 98.93 196.76
  Q 98.80 197.45 98.49 196.82
  Q 97.73 195.28 96.48 194.66
  C 96.10 189.60 96.03 183.62 93.35 180.17
  A 1.19 1.17 73.4 0 0 92.55 179.73
  C 87.87 179.29 85.94 178.05 82.08 174.70
  Q 78.40 171.52 73.71 169.75
  Q 76.06 168.05 77.56 169.66
  A 1.62 1.52 80.5 0 0 78.02 170.01
  Q 80.41 171.17 81.24 170.22
  Q 81.62 169.79 81.20 169.40
  Q 77.19 165.70 79.91 160.65
  C 81.35 157.98 81.50 155.23 83.99 153.73
  Z"
/>
<path fill="#190f09" d="
  M 102.16 205.19
  L 101.21 206.50
  Q 100.32 208.22 100.80 210.10
  Q 100.94 210.65 101.51 210.73
  Q 102.73 210.88 103.07 212.13
  Q 103.24 212.71 103.84 212.72
  L 105.40 212.76
  C 103.19 220.90 105.52 231.66 106.95 240.73
  Q 103.93 242.51 103.27 246.85
  Q 103.54 248.70 102.82 250.08
  Q 101.20 248.60 101.72 246.53
  Q 101.97 245.54 101.18 246.19
  Q 100.53 246.73 100.24 247.53
  A 1.35 1.35 0.0 0 0 100.27 248.52
  Q 100.96 250.12 99.97 251.43
  Q 99.68 251.81 99.25 251.62
  Q 96.71 250.51 96.91 252.96
  Q 96.10 247.86 98.38 245.11
  Q 99.10 244.38 98.13 243.33
  A 0.48 0.48 0.0 0 1 98.16 242.64
  Q 99.27 241.66 99.84 240.29
  A 0.40 0.40 0.0 0 0 99.27 239.78
  Q 96.86 241.13 96.46 244.26
  Q 95.86 244.37 95.46 243.85
  A 1.29 1.29 0.0 0 1 95.46 242.27
  C 97.19 240.05 99.34 238.22 100.07 235.45
  C 101.44 230.26 100.44 224.26 99.88 216.71
  C 99.34 209.47 96.40 202.12 96.48 194.66
  Q 97.73 195.28 98.49 196.82
  Q 98.80 197.45 98.93 196.76
  Q 100.03 191.02 99.99 185.25
  C 99.96 179.14 91.85 172.51 86.37 171.43
  Q 82.08 170.59 80.36 166.21
  A 1.38 1.34 -47.7 0 1 80.33 165.29
  L 83.25 155.96
  Q 84.54 154.62 86.38 154.75
  Q 87.07 154.80 87.01 155.50
  Q 86.85 157.05 87.94 158.14
  A 0.97 0.96 30.6 0 1 88.19 159.11
  Q 86.37 165.25 90.73 169.01
  Q 98.43 175.66 102.68 180.60
  Q 103.02 181.00 103.04 181.51
  Q 103.14 184.42 103.39 187.35
  C 104.00 194.45 98.59 198.23 102.16 205.19
  Z"
/>
<path fill="#dbbca5" d="
  M 166.68 167.95
  Q 169.34 168.89 169.29 171.50
  L 167.91 174.73
  Q 167.69 175.23 167.15 175.28
  Q 164.40 175.50 162.15 177.02
  A 2.85 2.71 21.0 0 1 161.11 177.45
  Q 159.83 177.70 159.37 176.80
  Q 159.20 176.45 158.86 176.23
  Q 157.05 175.05 154.87 175.75
  Q 154.41 175.90 153.96 175.72
  Q 151.00 174.53 148.16 173.07
  A 0.36 0.36 0.0 0 1 148.00 172.60
  L 148.30 171.96
  Q 148.65 171.20 147.91 171.60
  Q 146.83 172.19 146.21 173.25
  L 138.53 169.95
  A 1.13 1.13 0.0 0 1 138.72 167.81
  L 141.21 167.21
  A 0.75 0.73 86.7 0 0 141.77 166.57
  Q 142.15 163.39 144.66 161.48
  Q 145.09 161.15 145.11 160.62
  C 145.22 157.41 149.23 156.61 151.19 158.55
  Q 151.49 158.84 151.90 158.82
  L 155.67 158.59
  A 0.08 0.08 0.0 0 0 155.75 158.51
  Q 155.75 158.38 155.75 158.25
  Q 155.76 157.76 156.25 157.75
  Q 156.39 157.75 156.53 157.75
  Q 156.71 157.75 156.72 157.93
  Q 156.72 159.81 158.58 159.63
  A 0.60 0.40 9.1 0 1 159.27 160.27
  Q 158.53 161.12 159.64 161.89
  Q 160.03 162.16 159.98 162.64
  C 159.88 163.64 160.70 163.89 161.56 163.75
  Q 164.42 163.26 166.88 164.63
  A 0.78 0.78 0.0 0 1 167.25 165.49
  L 166.68 167.95
  Z"
/>
<path fill="#593a26" d="
  M 181.00 174.54
  L 181.76 176.45
  A 1.29 1.28 -87.5 0 0 182.38 177.13
  C 186.22 179.06 187.71 181.70 187.53 186.15
  Q 187.25 193.18 191.63 198.52
  A 1.03 1.03 0.0 0 0 193.20 198.55
  C 194.89 196.65 190.73 195.18 190.91 192.59
  A 0.19 0.19 0.0 0 1 191.29 192.59
  Q 191.50 195.24 194.06 195.84
  Q 194.63 195.98 194.54 196.56
  Q 193.84 201.38 194.67 206.22
  C 193.42 212.20 192.46 218.30 190.98 224.22
  C 190.11 227.69 189.92 231.26 189.11 234.79
  A 0.85 0.84 26.2 0 0 189.40 235.62
  Q 191.10 237.05 191.04 239.27
  A 0.57 0.56 -57.4 0 1 189.97 239.51
  Q 189.36 238.26 188.06 238.69
  Q 187.51 238.87 187.46 239.44
  L 187.23 242.00
  Q 186.87 242.33 186.57 241.96
  Q 186.25 241.57 186.31 241.07
  C 186.66 238.08 188.45 236.24 188.66 233.50
  Q 189.02 228.70 188.12 223.97
  C 187.21 219.24 188.11 214.94 188.67 210.34
  C 189.16 206.32 188.98 202.83 188.69 198.94
  C 188.57 197.40 188.89 195.39 188.19 193.32
  C 187.60 191.54 185.71 190.92 186.02 188.32
  Q 186.09 187.78 185.80 187.32
  Q 184.56 185.36 184.36 183.01
  Q 184.31 182.39 183.85 181.97
  L 180.61 178.99
  Q 180.34 178.74 180.30 178.38
  Q 180.08 176.52 178.99 175.01
  Q 178.69 174.60 178.57 174.11
  C 178.14 172.23 176.58 171.10 175.75 169.63
  Q 174.18 166.86 172.18 165.69
  C 174.94 161.58 180.42 173.13 181.00 174.54
  Z"
/>
<path fill="#190f09" d="
  M 172.18 165.69
  Q 174.18 166.86 175.75 169.63
  C 176.58 171.10 178.14 172.23 178.57 174.11
  Q 178.69 174.60 178.99 175.01
  Q 180.08 176.52 180.30 178.38
  Q 180.34 178.74 180.61 178.99
  L 183.85 181.97
  Q 184.31 182.39 184.36 183.01
  Q 184.56 185.36 185.80 187.32
  Q 186.09 187.78 186.02 188.32
  C 185.71 190.92 187.60 191.54 188.19 193.32
  C 188.89 195.39 188.57 197.40 188.69 198.94
  C 188.98 202.83 189.16 206.32 188.67 210.34
  C 188.11 214.94 187.21 219.24 188.12 223.97
  Q 189.02 228.70 188.66 233.50
  C 188.45 236.24 186.66 238.08 186.31 241.07
  Q 186.25 241.57 186.57 241.96
  Q 186.87 242.33 187.23 242.00
  Q 187.13 243.61 188.03 244.70
  A 1.03 1.03 0.0 0 1 187.24 246.39
  L 178.48 246.36
  Q 178.76 244.60 180.23 243.83
  Q 180.68 243.59 180.70 243.07
  C 180.84 239.80 183.37 237.59 183.05 234.73
  Q 184.83 229.48 185.39 223.95
  L 186.90 215.10
  Q 189.73 201.52 183.10 189.21
  A 1.26 1.25 39.2 0 1 183.00 188.25
  C 184.10 184.44 182.52 182.84 179.55 180.93
  C 176.52 178.99 174.26 174.39 172.74 171.22
  C 171.97 169.60 170.83 168.45 169.78 167.02
  Q 169.53 166.69 169.77 166.36
  L 170.00 166.02
  Q 170.59 165.67 172.18 165.69
  Z"
/>
<path fill="#8a6952" d="
  M 170.00 166.02
  L 169.77 166.36
  Q 169.53 166.69 169.78 167.02
  C 170.83 168.45 171.97 169.60 172.74 171.22
  C 174.26 174.39 176.52 178.99 179.55 180.93
  C 182.52 182.84 184.10 184.44 183.00 188.25
  A 1.26 1.25 39.2 0 0 183.10 189.21
  Q 189.73 201.52 186.90 215.10
  Q 184.77 219.35 184.38 224.31
  C 183.80 225.63 179.76 234.66 183.05 234.73
  C 183.37 237.59 180.84 239.80 180.70 243.07
  Q 180.68 243.59 180.23 243.83
  Q 178.76 244.60 178.48 246.36
  Q 176.26 245.75 173.99 246.44
  Q 173.48 246.60 173.05 246.26
  L 168.51 242.68
  Q 168.47 242.01 169.19 241.59
  A 0.69 0.69 0.0 0 1 170.02 241.68
  C 172.62 244.08 174.66 237.37 175.80 234.61
  Q 176.01 234.12 176.54 234.07
  Q 178.63 233.89 179.47 235.74
  Q 179.65 236.15 180.08 236.01
  L 180.42 235.90
  A 0.42 0.41 -16.2 0 0 180.70 235.40
  Q 180.09 232.99 177.75 232.73
  Q 176.95 232.65 177.43 232.01
  C 178.06 231.16 178.37 230.72 178.58 229.66
  Q 180.36 220.90 182.91 212.34
  C 184.15 208.19 186.61 206.89 185.32 201.74
  C 183.75 195.50 183.64 191.00 177.25 188.13
  Q 173.06 182.86 167.71 178.00
  C 168.65 176.18 171.25 173.84 169.29 171.50
  Q 169.34 168.89 166.68 167.95
  Q 168.09 165.90 170.00 166.02
  Z"
/>
<path fill="#e6ccb5" d="
  M 112.35 178.59
  C 109.74 184.33 109.48 190.42 109.17 196.63
  Q 108.96 200.59 106.53 203.93
  L 105.62 201.31
  Q 106.49 197.77 106.81 194.21
  C 107.10 191.07 108.32 187.89 108.32 184.48
  C 108.32 181.85 108.93 180.10 109.71 177.78
  A 1.35 1.35 0.0 0 1 112.24 177.69
  Q 112.40 178.07 112.35 178.59
  Z"
/>
<path fill="#e6ccb5" d="
  M 192.04 181.33
  L 196.25 190.42
  Q 190.58 187.08 192.04 181.33
  Z"
/>
<path fill="#190f09" d="
  M 177.25 188.13
  C 183.64 191.00 183.75 195.50 185.32 201.74
  C 186.61 206.89 184.15 208.19 182.91 212.34
  Q 180.36 220.90 178.58 229.66
  C 178.37 230.72 178.06 231.16 177.43 232.01
  Q 176.95 232.65 177.75 232.73
  Q 180.09 232.99 180.70 235.40
  A 0.42 0.41 -16.2 0 1 180.42 235.90
  L 180.08 236.01
  Q 179.65 236.15 179.47 235.74
  Q 178.63 233.89 176.54 234.07
  Q 176.01 234.12 175.80 234.61
  C 174.66 237.37 172.62 244.08 170.02 241.68
  A 0.69 0.69 0.0 0 0 169.19 241.59
  Q 168.47 242.01 168.51 242.68
  C 165.57 241.92 172.14 232.98 172.48 232.26
  C 176.00 224.94 178.15 216.40 180.64 208.64
  Q 184.25 197.44 177.25 188.13
  Z"
/>
<path fill="#b3896a" d="
  M 101.21 206.50
  L 102.16 205.19
  Q 102.16 204.99 102.25 204.79
  Q 102.44 204.39 102.85 204.58
  C 104.83 205.50 103.82 208.46 102.71 209.63
  A 0.53 0.52 48.9 0 1 101.91 209.57
  Q 100.89 208.17 101.21 206.50
  Z"
/>
<path fill="#dbbca5" d="
  M 186.90 215.10
  L 185.39 223.95
  Q 184.99 223.95 184.38 224.31
  Q 184.77 219.35 186.90 215.10
  Z"
/>
<path fill="#49392e" d="
  M 98.38 245.11
  Q 97.41 244.32 96.46 244.26
  Q 96.86 241.13 99.27 239.78
  A 0.40 0.40 0.0 0 1 99.84 240.29
  Q 99.27 241.66 98.16 242.64
  A 0.48 0.48 0.0 0 0 98.13 243.33
  Q 99.10 244.38 98.38 245.11
  Z"
/>
<path fill="#c59d7f" d="
  M 106.95 240.73
  Q 109.13 246.12 106.42 250.36
  Q 104.12 248.71 103.27 246.85
  Q 103.93 242.51 106.95 240.73
  Z"
/>
<path fill="#593a26" d="
  M 102.82 250.08
  Q 102.91 251.20 103.88 252.27
  Q 99.40 254.08 96.91 252.96
  Q 96.71 250.51 99.25 251.62
  Q 99.68 251.81 99.97 251.43
  Q 100.96 250.12 100.27 248.52
  A 1.35 1.35 0.0 0 1 100.24 247.53
  Q 100.53 246.73 101.18 246.19
  Q 101.97 245.54 101.72 246.53
  Q 101.20 248.60 102.82 250.08
  Z"
/>
<path fill="#49392e" d="
  M 103.27 246.85
  Q 104.12 248.71 106.42 250.36
  L 103.88 252.27
  Q 102.91 251.20 102.82 250.08
  Q 103.54 248.70 103.27 246.85
  Z"
/>
</svg>
