<?xml version="1.0" encoding="UTF-8" standalone="no"?>
<!DOCTYPE svg PUBLIC "-//W3C//DTD SVG 1.1//EN" "http://www.w3.org/Graphics/SVG/1.1/DTD/svg11.dtd">
<svg xmlns="http://www.w3.org/2000/svg" version="1.1" viewBox="0.00 0.00 256.00 256.00">
<g stroke-width="2.00" fill="none" stroke-linecap="butt">
<path stroke="#2d2e2e" vector-effect="non-scaling-stroke" d="
  M 162.65 64.40
  Q 161.35 64.41 160.71 65.17
  Q 160.37 65.57 160.45 66.09
  Q 161.51 72.39 164.10 78.19
  Q 164.33 78.70 164.23 79.24
  Q 164.05 80.17 164.66 80.79
  A 0.84 0.83 36.4 0 1 164.81 81.75
  Q 164.04 83.26 165.26 84.15
  Q 165.70 84.46 165.66 85.00
  C 165.54 86.40 165.66 91.53 168.02 90.98
  A 0.52 0.51 80.9 0 1 168.65 91.44
  Q 168.76 92.81 167.72 93.85
  A 0.47 0.47 0.0 0 0 167.98 94.65
  L 169.21 94.82
  Q 169.72 94.89 169.76 95.40
  C 169.93 98.23 165.86 96.74 164.82 95.74"
/>
<path stroke="#2d2e2e" vector-effect="non-scaling-stroke" d="
  M 164.20 95.89
  Q 164.04 97.01 160.82 98.76
  A 0.39 0.39 0.0 0 0 161.14 99.47
  L 163.82 98.45
  Q 164.22 98.30 164.64 98.37
  C 165.55 98.53 172.03 99.93 172.38 99.16
  Q 172.63 98.63 172.26 97.42"
/>
<path stroke="#5b5c56" vector-effect="non-scaling-stroke" d="
  M 196.46 109.66
  Q 193.07 109.04 191.30 110.83
  Q 190.92 111.21 190.44 110.97
  Q 188.64 110.10 187.41 108.56
  A 0.97 0.97 0.0 0 0 185.68 109.11
  Q 185.62 110.03 184.93 110.15
  Q 184.05 110.30 183.99 110.29
  Q 182.09 110.21 181.16 111.97"
/>
<path stroke="#2d2e2e" vector-effect="non-scaling-stroke" d="
  M 181.16 111.97
  Q 180.93 111.93 180.76 112.18
  Q 180.48 112.56 180.76 112.95
  Q 181.53 114.02 183.05 113.94
  A 0.37 0.37 0.0 0 1 183.34 114.55
  Q 182.74 115.23 181.23 115.21"
/>
<path stroke="#4d4d48" vector-effect="non-scaling-stroke" d="
  M 181.23 115.21
  Q 179.78 115.15 178.43 115.81
  Q 177.95 116.04 177.50 115.77
  L 177.11 115.53
  Q 176.67 115.27 176.22 115.53
  Q 173.45 117.14 170.41 118.23
  C 168.11 119.05 166.02 118.28 163.49 119.13
  A 0.92 0.91 -34.5 0 1 162.62 118.97
  Q 161.92 118.41 161.70 117.86"
/>
<path stroke="#636562" vector-effect="non-scaling-stroke" d="
  M 161.70 117.86
  Q 159.88 115.64 156.96 116.11
  A 1.19 1.17 -27.4 0 1 155.99 115.81
  L 154.66 114.58
  A 0.50 0.50 0.0 0 0 153.86 114.75
  Q 153.52 115.54 153.99 115.86"
/>
<path stroke="#4d4d48" vector-effect="non-scaling-stroke" d="
  M 153.99 115.86
  Q 153.22 118.04 151.24 117.44"
/>
<path stroke="#636562" vector-effect="non-scaling-stroke" d="
  M 153.36 111.46
  L 156.28 113.92"
/>
<path stroke="#4d4d48" vector-effect="non-scaling-stroke" d="
  M 156.28 113.92
  C 157.01 116.01 160.67 114.08 162.07 113.63
  Q 162.66 113.44 162.39 112.90
  Q 161.16 110.41 158.80 111.71
  A 0.45 0.45 0.0 0 1 158.14 111.37
  Q 157.83 108.97 155.65 109.01"
/>
<path stroke="#636562" vector-effect="non-scaling-stroke" d="
  M 155.65 109.01
  Q 158.32 104.70 158.49 101.20"
/>
<path stroke="#4d4d48" vector-effect="non-scaling-stroke" d="
  M 158.49 101.20
  Q 159.06 98.14 155.73 96.03"
/>
<path stroke="#61615b" vector-effect="non-scaling-stroke" d="
  M 176.17 136.65
  C 174.19 131.40 171.13 131.17 167.19 127.80
  Q 166.67 127.36 167.34 127.44
  C 170.14 127.79 172.27 128.02 174.86 126.62
  Q 179.32 124.21 183.27 120.96
  Q 183.56 120.72 183.27 120.50
  L 181.39 119.05
  Q 180.93 118.69 181.19 118.17
  Q 181.88 116.80 181.23 115.21"
/>
<path stroke="#97988f" vector-effect="non-scaling-stroke" d="
  M 161.70 117.86
  C 155.44 121.84 157.34 127.23 159.21 133.04
  A 2.25 2.21 -49.5 0 1 159.28 134.04
  Q 158.93 135.98 160.19 137.49
  A 0.61 0.61 0.0 0 0 161.21 136.83
  Q 159.31 132.83 162.03 129.47
  Q 162.32 129.12 162.19 128.68
  L 161.79 127.27
  A 0.66 0.65 -88.6 0 1 162.63 126.47
  Q 164.58 127.14 164.93 129.25
  Q 165.01 129.76 165.52 129.89
  L 167.73 130.43
  A 0.65 0.63 4.6 0 1 168.22 130.99
  Q 168.29 131.61 167.73 132.00
  A 0.31 0.30 15.7 0 0 168.03 132.53
  Q 169.71 131.79 171.59 132.02
  A 1.35 1.35 0.0 0 1 172.39 132.42
  Q 174.52 134.55 175.49 137.57"
/>
<path stroke="#777974" vector-effect="non-scaling-stroke" d="
  M 162.98 161.04
  Q 162.23 161.06 161.40 160.71
  Q 160.96 160.52 160.82 160.97
  Q 159.87 163.89 157.69 166.00
  A 1.15 1.15 0.0 0 1 155.76 165.35
  C 155.43 163.26 156.03 159.88 154.00 158.61
  Q 153.43 158.25 153.47 158.93
  Q 153.77 163.83 155.64 168.33"
/>
<path stroke="#a5a79d" vector-effect="non-scaling-stroke" d="
  M 155.64 168.33
  Q 155.84 168.04 155.77 168.63
  Q 155.74 168.86 155.51 168.92
  Q 153.78 169.38 152.76 167.69"
/>
<path stroke="#636562" vector-effect="non-scaling-stroke" d="
  M 152.76 167.69
  C 152.41 166.08 151.10 158.54 148.45 157.17"
/>
<path stroke="#97988f" vector-effect="non-scaling-stroke" d="
  M 148.45 157.17
  L 147.38 154.38
  A 0.69 0.69 0.0 0 0 146.05 154.65
  Q 146.07 155.51 144.94 155.29"
/>
<path stroke="#636562" vector-effect="non-scaling-stroke" d="
  M 144.94 155.29
  L 142.32 151.35
  A 0.42 0.42 0.0 0 0 141.55 151.60
  Q 141.64 153.07 142.59 153.96"
/>
<path stroke="#97988f" vector-effect="non-scaling-stroke" d="
  M 142.59 153.96
  Q 140.55 155.30 140.86 157.16
  Q 140.93 157.61 140.77 158.03
  Q 140.39 159.01 140.57 160.49
  Q 140.99 163.85 138.82 166.94
  A 0.82 0.81 24.4 0 1 137.95 167.26
  Q 137.11 167.05 136.55 167.55
  Q 136.12 167.93 136.29 168.48
  L 136.49 169.09
  A 0.50 0.49 81.1 0 1 136.03 169.73
  Q 134.42 169.77 133.09 169.16"
/>
<path stroke="#a5a79d" vector-effect="non-scaling-stroke" d="
  M 133.09 169.16
  Q 130.90 168.52 129.40 167.28
  Q 129.01 166.95 128.96 166.45
  Q 128.30 160.28 123.69 156.48
  C 120.89 154.17 119.39 152.67 116.58 151.92
  C 114.28 151.31 113.11 150.43 113.28 147.96
  A 1.48 1.48 0.0 0 1 114.17 146.70
  Q 115.61 146.08 116.31 147.21
  A 0.35 0.33 31.8 0 0 116.94 147.08
  Q 117.14 143.92 120.02 142.84
  A 1.05 1.03 89.6 0 0 120.65 142.19
  Q 121.50 139.60 124.33 139.48
  Q 124.84 139.46 125.31 139.26
  Q 127.87 138.13 128.93 140.63
  Q 129.15 141.15 129.61 141.48
  Q 131.14 142.57 131.22 144.59
  Q 131.23 145.14 131.05 145.66
  Q 130.25 147.92 132.27 149.28
  Q 133.38 150.03 133.15 148.71
  Q 132.15 142.85 132.74 136.92
  A 0.67 0.67 0.0 0 0 131.93 136.20
  Q 129.43 136.76 127.82 134.89
  Q 127.50 134.53 127.04 134.67
  Q 123.89 135.64 121.94 132.90"
/>
<path stroke="#97988f" vector-effect="non-scaling-stroke" d="
  M 139.93 130.66
  Q 136.22 136.33 138.96 142.69
  Q 139.18 143.19 139.08 143.73
  Q 138.62 146.21 139.84 148.33
  A 0.34 0.34 0.0 0 0 140.46 148.09
  Q 139.18 141.72 138.90 135.23
  A 0.31 0.30 -58.2 0 1 139.48 135.09
  L 141.36 139.48
  A 0.34 0.34 0.0 0 0 142.01 139.38
  Q 142.08 138.49 141.66 137.76
  Q 141.40 137.33 141.61 136.86
  L 143.60 132.42
  A 0.71 0.71 0.0 0 1 144.25 132.00
  L 144.64 132.00
  Q 145.25 132.00 145.10 132.60
  Q 144.16 136.35 146.21 139.59
  A 0.48 0.48 0.0 0 0 147.07 139.19
  Q 145.92 135.37 145.70 131.37
  Q 145.67 130.72 146.31 130.64
  L 147.95 130.45
  Q 148.33 130.40 148.39 130.03
  L 149.41 123.70
  Q 149.54 122.88 150.11 123.49
  L 151.23 124.69
  A 0.55 0.55 0.0 0 0 152.10 124.61
  Q 153.06 123.08 152.63 121.27
  Q 152.50 120.75 153.04 120.75
  L 153.99 120.75
  A 0.74 0.73 -75.4 0 0 154.63 120.37
  Q 156.16 117.65 153.99 115.86"
/>
<path stroke="#6f7069" vector-effect="non-scaling-stroke" d="
  M 194.82 113.55
  Q 193.69 112.96 192.40 112.91
  Q 191.92 112.89 191.51 112.63
  Q 190.68 112.11 189.84 112.61
  A 0.41 0.41 0.0 0 0 189.79 113.27
  Q 191.84 114.98 194.20 114.50"
/>
<path stroke="#6f7069" vector-effect="non-scaling-stroke" d="
  M 193.45 116.04
  L 188.99 115.55
  Q 188.39 115.48 187.97 115.91
  L 187.64 116.23
  A 0.45 0.44 -66.7 0 0 187.94 116.99
  Q 188.52 117.00 188.86 117.46
  Q 189.22 117.94 188.64 118.11
  Q 185.58 119.01 183.83 116.68
  Q 183.54 116.29 183.66 115.82
  L 184.51 112.60
  Q 184.66 112.00 184.05 112.07
  L 181.72 112.34
  Q 181.49 112.37 181.35 112.19
  L 181.16 111.97"
/>
<path stroke="#97988f" vector-effect="non-scaling-stroke" d="
  M 154.36 98.17
  L 158.49 101.20"
/>
<path stroke="#97988f" vector-effect="non-scaling-stroke" d="
  M 155.65 109.01
  L 156.28 113.92"
/>
<path stroke="#97988f" vector-effect="non-scaling-stroke" d="
  M 152.96 110.24
  Q 154.47 110.61 154.57 109.66
  Q 155.20 103.51 150.79 102.18"
/>
<path stroke="#636562" vector-effect="non-scaling-stroke" d="
  M 150.79 102.18
  Q 149.59 97.73 146.71 93.34
  Q 146.60 93.18 146.43 93.27
  L 146.20 93.41
  A 0.44 0.44 0.0 0 0 146.04 94.00
  Q 147.10 95.91 147.27 98.04"
/>
<path stroke="#777974" vector-effect="non-scaling-stroke" d="
  M 147.27 98.04
  Q 146.64 100.82 148.39 103.29
  Q 148.64 103.65 149.05 103.48
  L 149.77 103.17"
/>
<path stroke="#636562" vector-effect="non-scaling-stroke" d="
  M 149.77 103.17
  L 150.45 104.76"
/>
<path stroke="#97988f" vector-effect="non-scaling-stroke" d="
  M 150.45 104.76
  Q 152.72 107.58 151.63 108.39"
/>
<path stroke="#8f8f83" vector-effect="non-scaling-stroke" d="
  M 133.09 169.16
  Q 132.12 170.11 131.63 171.38
  Q 131.40 171.97 130.93 171.55
  C 130.09 170.79 129.19 167.61 128.06 168.19
  Q 127.65 168.40 127.62 168.86
  Q 127.55 169.81 127.06 170.55
  A 0.59 0.59 0.0 0 1 126.10 170.58
  L 124.74 168.76
  Q 124.64 168.61 124.47 168.68
  Q 124.36 168.72 124.18 168.75
  Q 123.91 168.79 124.03 169.04
  L 126.50 174.23
  Q 126.74 174.74 127.29 174.87
  L 128.13 175.07
  A 0.71 0.70 -78.7 0 1 128.66 175.88
  L 128.19 178.52
  A 0.49 0.49 0.0 0 1 127.29 178.68
  Q 126.52 177.36 126.04 177.17"
/>
<path stroke="#5b5c56" vector-effect="non-scaling-stroke" d="
  M 126.04 177.17
  C 123.87 174.98 124.06 172.27 122.59 169.79
  Q 121.53 168.01 120.65 166.13
  C 119.78 164.30 120.32 162.33 118.63 160.46
  Q 118.33 160.12 117.88 160.22
  L 116.64 160.50
  A 0.61 0.61 0.0 0 1 115.92 160.09
  L 114.80 156.55
  A 0.50 0.49 43.6 0 0 113.85 156.57
  Q 113.60 157.53 113.82 158.38"
/>
<path stroke="#8f8f83" vector-effect="non-scaling-stroke" d="
  M 113.82 158.38
  Q 111.99 160.29 109.79 160.48
  Q 109.24 160.52 108.91 160.08
  Q 107.28 157.89 107.15 155.12
  A 0.68 0.68 0.0 0 0 106.45 154.47
  L 104.29 154.55
  Q 103.69 154.57 103.36 155.07
  L 101.10 158.46
  A 0.92 0.92 0.0 0 0 101.01 159.33
  Q 103.03 164.32 98.47 167.22
  A 0.68 0.68 0.0 0 0 98.34 168.25
  L 99.89 169.95
  A 0.69 0.69 0.0 0 1 99.96 170.79
  L 98.42 173.22
  Q 98.15 173.65 97.63 173.70
  L 96.25 173.84
  Q 95.77 173.89 95.93 174.34
  Q 96.20 175.14 95.19 176.51"
/>
<path stroke="#6f7069" vector-effect="non-scaling-stroke" d="
  M 95.19 176.51
  C 94.60 174.53 93.52 170.16 90.47 172.15
  Q 90.09 172.40 89.64 172.27
  L 87.00 171.48
  A 0.71 0.71 0.0 0 1 86.50 170.73
  Q 86.62 169.48 85.59 169.28
  Q 84.98 169.17 84.77 168.58
  L 82.07 161.04
  A 0.55 0.55 0.0 0 0 81.03 161.07
  Q 79.63 165.91 80.04 171.28"
/>
<path stroke="#5b5c56" vector-effect="non-scaling-stroke" d="
  M 80.04 171.28
  Q 80.79 173.74 79.59 175.40
  Q 79.30 175.80 79.26 176.28
  L 79.16 177.45"
/>
<path stroke="#6f7069" vector-effect="non-scaling-stroke" d="
  M 79.16 177.45
  L 78.94 178.29
  Q 78.79 178.83 78.30 178.55
  Q 77.46 178.06 76.74 178.08"
/>
<path stroke="#8f8f83" vector-effect="non-scaling-stroke" d="
  M 76.74 178.08
  Q 75.67 177.52 74.90 176.15
  Q 74.72 175.83 74.46 176.09
  L 71.49 179.07
  A 0.94 0.93 37.0 0 1 70.36 179.22
  Q 67.84 177.76 67.44 174.87
  A 0.10 0.09 -85.3 0 0 67.39 174.80
  Q 67.24 174.74 67.11 174.74
  Q 66.84 174.73 66.87 175.00
  L 67.48 181.39"
/>
<path stroke="#6f7069" vector-effect="non-scaling-stroke" d="
  M 67.48 181.39
  Q 68.57 182.80 68.46 183.72
  Q 68.40 184.26 67.87 184.41
  L 65.78 185.00
  Q 65.34 185.13 65.50 185.56
  Q 66.20 187.44 64.04 188.40
  Q 63.62 188.58 63.71 189.04
  C 64.18 191.39 60.11 191.77 58.53 192.17"
/>
<path stroke="#5b5c56" vector-effect="non-scaling-stroke" d="
  M 58.53 192.17
  Q 58.12 192.02 58.10 191.82"
/>
<path stroke="#6f7069" vector-effect="non-scaling-stroke" d="
  M 58.10 191.82
  Q 54.95 190.74 55.18 187.70
  Q 55.22 187.21 55.70 187.32
  L 57.43 187.72
  A 0.57 0.57 0.0 0 0 58.11 186.99
  Q 57.49 184.97 59.09 184.06
  Q 59.63 183.75 59.34 183.20
  C 58.29 181.21 59.34 176.43 58.71 173.50
  Q 57.28 166.82 58.41 159.46
  Q 58.48 159.03 57.23 157.14"
/>
<path stroke="#4d4d48" vector-effect="non-scaling-stroke" d="
  M 144.94 155.29
  Q 146.18 158.77 148.45 157.17"
/>
<path stroke="#5b5c56" vector-effect="non-scaling-stroke" d="
  M 152.76 167.69
  L 149.22 173.03
  Q 148.94 173.46 149.00 173.98
  Q 149.06 174.52 148.79 174.97
  Q 148.49 175.46 148.10 175.03
  C 146.74 173.50 141.55 178.36 140.43 179.60
  Q 140.10 179.97 140.58 180.10
  Q 144.32 181.09 147.65 183.08
  Q 148.09 183.34 148.59 183.46
  L 149.95 183.78"
/>
<path stroke="#2d2e2e" vector-effect="non-scaling-stroke" d="
  M 188.07 230.22
  Q 186.34 229.99 185.62 227.91
  Q 185.39 227.27 184.88 227.72
  L 183.91 228.57
  Q 183.58 228.86 183.15 228.93
  Q 181.41 229.21 179.27 230.90"
/>
<path stroke="#2d2e2e" vector-effect="non-scaling-stroke" d="
  M 170.71 213.88
  C 173.94 212.61 162.25 196.88 160.92 194.82"
/>
<path stroke="#4d4d48" vector-effect="non-scaling-stroke" d="
  M 160.92 194.82
  Q 160.74 192.52 159.83 193.06"
/>
<path stroke="#2d2e2e" vector-effect="non-scaling-stroke" d="
  M 159.83 193.06
  L 159.24 193.00
  Q 158.75 192.94 158.38 192.60
  C 155.80 190.26 152.15 189.12 149.90 187.75
  C 145.59 185.14 142.90 183.33 136.98 182.99"
/>
<path stroke="#4d4d48" vector-effect="non-scaling-stroke" d="
  M 136.98 182.99
  Q 135.39 183.21 134.01 182.50
  Q 133.65 182.32 133.63 181.91
  L 133.51 178.44
  Q 133.50 178.03 133.87 177.86
  Q 135.67 177.03 137.15 175.64
  Q 137.56 175.25 137.49 174.70
  L 137.34 173.45
  Q 137.30 173.06 137.59 172.80
  Q 139.44 171.14 141.96 171.26
  Q 142.50 171.29 142.76 170.81
  Q 143.81 168.91 144.30 166.77
  Q 144.40 166.33 144.70 165.98
  C 147.15 163.21 143.69 157.02 142.59 153.96"
/>
<path stroke="#6f7069" vector-effect="non-scaling-stroke" d="
  M 149.90 182.13
  Q 149.30 182.14 148.96 181.92
  A 0.38 0.38 0.0 0 1 148.97 181.27
  Q 153.10 178.83 152.64 174.07
  Q 152.59 173.61 152.94 173.32
  Q 155.18 171.44 156.30 168.77
  A 0.39 0.39 0.0 0 0 156.01 168.24
  Q 155.85 168.21 155.64 168.33"
/>
<path stroke="#61615b" vector-effect="non-scaling-stroke" d="
  M 136.98 182.99
  Q 139.17 183.89 136.13 185.63
  A 0.16 0.16 0.0 0 0 136.17 185.93
  L 138.04 186.36
  Q 138.63 186.50 138.27 186.98
  L 137.18 188.44"
/>
<path stroke="#4d4d48" vector-effect="non-scaling-stroke" d="
  M 137.18 188.44
  Q 134.44 186.47 131.76 186.48"
/>
<path stroke="#61615b" vector-effect="non-scaling-stroke" d="
  M 129.45 185.68
  Q 127.05 180.17 123.62 178.43"
/>
<path stroke="#4d4d48" vector-effect="non-scaling-stroke" d="
  M 123.62 178.43
  Q 121.46 176.39 121.60 175.27
  Q 121.68 174.64 122.22 174.96
  Q 122.84 175.33 122.98 176.02
  Q 123.08 176.48 123.42 176.81
  Q 125.24 178.54 126.04 177.17"
/>
<path stroke="#4d4d48" vector-effect="non-scaling-stroke" d="
  M 150.79 102.18
  Q 151.37 105.05 150.45 104.76"
/>
<path stroke="#2d2e2e" vector-effect="non-scaling-stroke" d="
  M 149.77 103.17
  L 147.27 98.04"
/>
<path stroke="#2d2e2e" vector-effect="non-scaling-stroke" d="
  M 58.10 191.82
  Q 56.08 192.71 54.04 192.29
  Q 53.44 192.17 53.27 192.76
  Q 52.59 195.18 50.99 196.67"
/>
<path stroke="#61615b" vector-effect="non-scaling-stroke" d="
  M 50.99 196.67
  Q 48.57 198.11 47.18 200.53
  A 0.99 0.98 48.5 0 0 47.13 201.42
  Q 47.61 202.49 49.01 202.80"
/>
<path stroke="#2d2e2e" vector-effect="non-scaling-stroke" d="
  M 49.01 202.80
  L 47.35 204.52"
/>
<path stroke="#6f7069" vector-effect="non-scaling-stroke" d="
  M 47.35 204.52
  L 42.51 204.84"
/>
<path stroke="#6f7069" vector-effect="non-scaling-stroke" d="
  M 44.12 197.84
  Q 45.33 199.18 44.60 200.63
  A 0.49 0.49 0.0 0 0 45.34 201.23
  Q 48.90 198.48 47.21 195.28"
/>
<path stroke="#4d4d48" vector-effect="non-scaling-stroke" d="
  M 113.82 158.38
  L 113.33 164.79
  Q 113.28 165.39 112.69 165.26
  Q 111.71 165.03 111.64 163.95
  A 0.58 0.58 0.0 0 0 110.54 163.75
  L 109.70 165.56"
/>
<path stroke="#61615b" vector-effect="non-scaling-stroke" d="
  M 109.70 165.56
  Q 109.17 165.80 108.91 166.20
  A 0.41 0.41 0.0 0 0 108.96 166.70
  L 109.92 167.65
  Q 110.49 168.23 109.77 168.60
  L 108.79 169.11
  A 0.47 0.47 0.0 0 0 108.97 170.00
  Q 110.66 170.13 110.19 171.90
  Q 110.08 172.32 109.65 172.36
  Q 108.06 172.49 106.71 171.68
  Q 106.06 171.28 106.28 172.01
  L 107.75 176.91
  Q 107.94 177.56 107.29 177.73
  L 105.96 178.07
  A 0.73 0.73 0.0 0 0 105.97 179.49
  Q 107.58 179.86 108.95 178.90
  Q 109.34 178.63 109.81 178.63
  Q 112.69 178.62 113.53 181.15"
/>
<path stroke="#8f8f83" vector-effect="non-scaling-stroke" d="
  M 113.53 181.15
  Q 104.97 178.74 109.47 183.45"
/>
<path stroke="#61615b" vector-effect="non-scaling-stroke" d="
  M 109.47 183.45
  Q 105.07 183.23 101.79 180.46
  Q 101.20 179.97 101.77 179.46
  L 102.67 178.64
  Q 102.98 178.35 102.89 177.94
  Q 102.70 177.13 101.80 176.88
  Q 101.17 176.70 101.09 177.35
  L 100.95 178.36
  Q 100.89 178.78 100.49 178.62
  L 95.19 176.51"
/>
<path stroke="#6f7069" vector-effect="non-scaling-stroke" d="
  M 109.47 183.45
  Q 113.43 184.08 117.91 181.76
  A 0.42 0.42 0.0 0 0 117.70 180.96
  L 113.53 181.15"
/>
<path stroke="#2d2e2e" vector-effect="non-scaling-stroke" d="
  M 112.11 186.12
  Q 103.73 186.61 98.00 185.96
  Q 96.69 185.82 97.06 184.33
  A 0.83 0.82 21.9 0 0 96.67 183.43
  C 92.21 180.85 88.65 180.32 85.59 175.51
  C 84.96 174.52 81.32 168.51 80.04 171.28"
/>
<path stroke="#2d2e2e" vector-effect="non-scaling-stroke" d="
  M 123.62 178.43
  Q 119.99 180.59 114.48 179.45
  A 0.65 0.65 0.0 0 1 114.36 178.21
  C 116.35 177.35 117.92 176.40 118.46 174.09
  C 119.15 171.15 120.16 169.27 117.98 166.67
  A 0.46 0.45 -50.0 0 0 117.23 166.74
  Q 115.82 169.19 115.84 172.06
  A 0.49 0.49 0.0 0 1 114.88 172.18
  Q 113.73 167.74 109.70 165.56"
/>
<path stroke="#61615b" vector-effect="non-scaling-stroke" d="
  M 76.74 178.08
  L 74.35 179.71
  A 0.90 0.88 70.0 0 0 73.97 180.55
  C 74.07 181.40 74.47 185.12 73.14 185.33
  A 2.99 2.98 83.2 0 1 69.69 182.61
  Q 69.60 181.47 67.48 181.39"
/>
<path stroke="#2d2e2e" vector-effect="non-scaling-stroke" d="
  M 112.53 224.32
  Q 112.02 224.43 111.52 226.05
  A 1.08 1.07 -55.0 0 1 109.63 226.39
  Q 103.87 218.68 96.96 211.53
  C 94.63 209.11 91.97 205.37 91.99 201.95
  Q 92.00 201.48 92.31 201.13
  C 95.20 197.89 98.89 196.32 100.04 191.76
  A 0.45 0.45 0.0 0 0 99.28 191.33
  C 97.43 193.19 91.98 199.31 89.55 199.57
  A 1.63 1.63 0.0 0 0 88.27 201.94
  L 92.33 209.84"
/>
<path stroke="#2d2e2e" vector-effect="non-scaling-stroke" d="
  M 26.58 245.38
  C 27.14 244.63 30.51 240.94 29.41 240.41
  A 1.44 1.41 2.7 0 1 28.74 239.69
  L 27.09 235.70
  A 0.68 0.68 0.0 0 1 27.93 234.80
  Q 29.33 235.28 30.75 234.37"
/>
<path stroke="#4d4d48" vector-effect="non-scaling-stroke" d="
  M 30.75 234.37
  Q 32.78 233.53 32.97 231.10
  Q 33.02 230.60 32.52 230.53
  Q 31.33 230.36 30.04 230.86"
/>
<path stroke="#2d2e2e" vector-effect="non-scaling-stroke" d="
  M 30.04 230.86
  L 28.51 230.46"
/>
<path stroke="#2d2e2e" vector-effect="non-scaling-stroke" d="
  M 32.19 227.69
  Q 34.99 227.05 36.55 223.37
  C 37.30 221.61 41.77 213.87 39.03 212.98"
/>
<path stroke="#5b5c56" vector-effect="non-scaling-stroke" d="
  M 40.56 209.51
  L 42.25 209.55
  Q 42.65 209.57 42.78 209.19
  Q 43.09 208.28 43.93 207.88
  Q 44.40 207.66 44.76 207.28
  L 47.35 204.52"
/>
<path stroke="#4d4d48" vector-effect="non-scaling-stroke" d="
  M 49.01 202.80
  L 50.99 196.67"
/>
<path stroke="#2d2e2e" vector-effect="non-scaling-stroke" d="
  M 58.53 192.17
  C 65.87 192.67 69.03 188.31 74.36 185.41
  A 1.43 1.39 89.1 0 0 74.97 184.76
  C 76.40 181.61 79.94 181.34 79.16 177.45"
/>
<path stroke="#61615b" vector-effect="non-scaling-stroke" d="
  M 159.83 193.06
  Q 158.81 193.68 158.51 194.16
  A 1.30 1.30 0.0 0 0 160.35 195.92
  Q 160.52 195.80 160.92 194.82"
/>
<path stroke="#2d2e2e" vector-effect="non-scaling-stroke" d="
  M 142.40 191.53
  Q 141.03 189.63 137.18 188.44"
/>
<path stroke="#2d2e2e" vector-effect="non-scaling-stroke" d="
  M 120.93 240.85
  Q 119.50 238.96 114.45 240.26
  Q 113.85 240.41 113.50 239.92
  Q 112.75 238.90 114.19 238.07"
/>
<path stroke="#4d4d48" vector-effect="non-scaling-stroke" d="
  M 114.19 238.07
  Q 115.75 237.93 115.97 236.73
  A 0.88 0.88 0.0 0 0 115.60 235.85
  Q 114.07 234.85 114.08 232.94
  A 0.48 0.48 0.0 0 0 113.45 232.49
  Q 112.05 232.96 111.51 234.68"
/>
<path stroke="#2d2e2e" vector-effect="non-scaling-stroke" d="
  M 111.51 234.68
  Q 109.26 235.79 109.75 236.70"
/>
<path stroke="#2d2e2e" vector-effect="non-scaling-stroke" d="
  M 104.26 245.00
  L 104.81 241.81
  Q 104.90 241.30 104.59 240.88
  C 103.92 240.00 101.83 234.65 104.20 235.01"
/>
<path stroke="#4d4d48" vector-effect="non-scaling-stroke" d="
  M 104.20 235.01
  Q 104.24 235.52 104.73 235.81
  A 0.91 0.89 40.0 0 0 105.76 235.73
  L 108.95 233.05
  A 0.38 0.38 0.0 0 0 108.74 232.38
  L 104.24 232.03"
/>
<path stroke="#2d2e2e" vector-effect="non-scaling-stroke" d="
  M 104.24 232.03
  Q 104.50 231.76 103.53 231.69"
/>
<path stroke="#2d2e2e" vector-effect="non-scaling-stroke" d="
  M 107.53 229.69
  Q 109.71 230.84 112.61 227.84
  Q 116.63 223.67 127.06 211.73"
/>
<path stroke="#5b5c56" vector-effect="non-scaling-stroke" d="
  M 127.06 211.73
  Q 130.58 211.96 131.11 207.91
  C 131.71 203.27 135.23 198.68 138.03 195.05
  A 0.73 0.73 0.0 0 0 136.95 194.08
  L 133.94 196.97
  Q 133.65 197.24 133.26 197.26
  Q 131.46 197.37 130.18 200.22"
/>
<path stroke="#4d4d48" vector-effect="non-scaling-stroke" d="
  M 130.18 200.22
  Q 130.12 199.85 128.92 200.00"
/>
<path stroke="#6f7069" vector-effect="non-scaling-stroke" d="
  M 125.72 209.27
  Q 125.96 210.76 127.06 211.73"
/>
<path stroke="#61615b" vector-effect="non-scaling-stroke" d="
  M 30.04 230.86
  C 27.38 231.49 29.83 233.70 30.75 234.37"
/>
<path stroke="#8f8f83" vector-effect="non-scaling-stroke" d="
  M 126.28 208.22
  C 128.55 208.24 131.42 202.23 130.18 200.22"
/>
<path stroke="#61615b" vector-effect="non-scaling-stroke" d="
  M 104.24 232.03
  L 104.20 235.01"
/>
<path stroke="#61615b" vector-effect="non-scaling-stroke" d="
  M 114.19 238.07
  Q 112.33 237.96 111.51 234.68"
/>
<path stroke="#2d2e2e" vector-effect="non-scaling-stroke" d="
  M 134.73 65.09
  A 0.34 0.34 0.0 0 0 134.55 65.60
  Q 134.88 66.08 135.34 66.47
  A 0.58 0.58 0.0 0 0 136.26 65.83
  Q 135.87 64.71 134.73 65.09"
/>
<path stroke="#2d2e2e" vector-effect="non-scaling-stroke" d="
  M 156.7657 91.2307
  A 1.31 0.81 52.6 0 0 156.6135 89.6980
  A 1.31 0.81 52.6 0 0 155.1743 89.1493
  A 1.31 0.81 52.6 0 0 155.3265 90.6820
  A 1.31 0.81 52.6 0 0 156.7657 91.2307"
/>
<path stroke="#2d2e2e" vector-effect="non-scaling-stroke" d="
  M 177.32 103.49
  L 178.34 102.65
  A 0.20 0.20 0.0 0 0 178.37 102.37
  L 178.23 102.20
  A 3.48 0.75 50.4 0 0 175.43 100.00
  L 175.26 100.14
  A 3.48 0.75 50.4 0 0 176.90 103.30
  L 177.04 103.47
  A 0.20 0.20 0.0 0 0 177.32 103.49"
/>
<path stroke="#5b5c56" vector-effect="non-scaling-stroke" d="
  M 170.96 105.85
  C 172.41 101.68 166.95 99.90 164.27 102.44
  Q 163.74 102.93 164.46 103.00
  Q 167.99 103.34 170.31 105.97
  Q 170.74 106.46 170.96 105.85"
/>
<path stroke="#4d4d48" vector-effect="non-scaling-stroke" d="
  M 165.75 106.00
  Q 165.66 106.03 165.53 106.07
  A 0.73 0.44 20.9 0 0 166.26 107.01
  Q 166.83 106.97 167.16 106.46
  A 0.43 0.43 0.0 0 0 166.98 105.83
  Q 166.49 105.62 166.12 105.82
  Q 165.78 105.99 165.75 106.00"
/>
<path stroke="#6f7069" vector-effect="non-scaling-stroke" d="
  M 194.7985 111.5320
  A 1.27 0.52 2.8 0 0 193.5554 110.9506
  A 1.27 0.52 2.8 0 0 192.2615 111.4080
  A 1.27 0.52 2.8 0 0 193.5046 111.9894
  A 1.27 0.52 2.8 0 0 194.7985 111.5320"
/>
<path stroke="#a5a79d" vector-effect="non-scaling-stroke" d="
  M 152.39 133.61
  C 151.03 136.11 155.24 138.23 156.38 140.71
  A 0.42 0.41 62.6 0 0 156.97 140.90
  L 157.46 140.61
  Q 157.76 140.44 157.56 140.15
  L 153.11 133.58
  A 0.43 0.42 42.3 0 0 152.39 133.61"
/>
<path stroke="#97988f" vector-effect="non-scaling-stroke" d="
  M 172.51 136.11
  L 171.71 135.19
  A 0.27 0.27 0.0 0 0 171.33 135.17
  L 170.71 135.71
  A 3.47 0.74 -41.0 0 0 168.58 138.54
  L 168.76 138.75
  A 3.47 0.74 -41.0 0 0 171.87 137.03
  L 172.48 136.50
  A 0.27 0.27 0.0 0 0 172.51 136.11"
/>
<path stroke="#8f8f83" vector-effect="non-scaling-stroke" d="
  M 171.45 121.85
  L 173.46 120.42
  A 0.67 0.67 0.0 0 0 173.42 119.30
  C 169.85 117.09 169.39 121.94 166.59 120.94
  A 0.93 0.93 0.0 0 0 165.66 122.52
  Q 167.79 124.41 170.37 125.45
  Q 170.82 125.63 171.03 126.06
  Q 171.41 126.80 172.17 127.01
  Q 172.78 127.17 172.91 126.56
  Q 173.74 122.94 177.68 123.86
  A 1.21 1.20 -11.1 0 0 178.94 121.99
  L 178.08 120.77
  Q 177.70 120.24 177.11 120.50
  L 171.99 122.80
  A 0.55 0.55 0.0 0 1 171.45 121.85"
/>
<path stroke="#8f8f83" vector-effect="non-scaling-stroke" d="
  M 67.10 171.49
  A 1.32 0.97 -87.5 0 0 68.50 169.75
  L 65.81 162.30
  A 0.36 0.36 0.0 0 0 65.11 162.39
  Q 64.71 166.64 65.36 170.84
  A 0.53 0.52 -13.1 0 0 66.04 171.26
  Q 66.61 171.08 67.10 171.49"
/>
<path stroke="#8f8f83" vector-effect="non-scaling-stroke" d="
  M 62.85 177.13
  L 61.94 179.17
  A 0.61 0.61 0.0 0 0 62.50 180.03
  Q 64.14 180.01 65.37 178.92
  Q 65.77 178.56 65.44 178.14
  C 64.88 177.41 63.26 172.88 63.22 172.87
  Q 62.82 172.74 62.84 173.16
  L 63.03 176.11
  Q 63.07 176.64 62.85 177.13"
/>
<path stroke="#4d4d48" vector-effect="non-scaling-stroke" d="
  M 178.18 224.63
  L 178.71 222.81
  Q 178.86 222.31 178.52 221.91
  L 176.71 219.78
  A 0.66 0.65 -35.3 0 0 175.86 219.64
  Q 174.55 220.41 175.15 222.35
  A 0.59 0.58 -39.0 0 0 176.22 222.46
  Q 176.46 222.03 176.83 222.44
  Q 177.14 222.79 177.04 223.24
  Q 176.44 225.96 178.63 227.39
  Q 178.90 227.56 178.80 227.86
  Q 178.69 228.17 178.58 228.50
  Q 178.47 228.86 178.83 228.92
  C 179.95 229.12 181.54 227.08 181.84 226.35
  A 0.56 0.55 14.2 0 0 181.38 225.58
  L 178.64 225.31
  Q 178.00 225.25 178.18 224.63"
/>
<path stroke="#5b5c56" vector-effect="non-scaling-stroke" d="
  M 146.59 177.65
  Q 147.26 177.55 147.74 177.16
  A 0.73 0.72 12.3 0 0 146.96 175.95
  L 143.91 177.45
  Q 143.25 177.78 143.73 178.35
  Q 144.50 179.25 145.46 179.90
  Q 147.26 181.11 146.51 179.08
  L 146.22 178.29
  Q 146.02 177.74 146.59 177.65"
/>
<path stroke="#777974" vector-effect="non-scaling-stroke" d="
  M 154.53 195.18
  C 153.85 192.69 151.83 191.10 149.23 191.32
  A 0.47 0.47 0.0 0 0 149.02 192.19
  L 154.20 195.42
  Q 154.68 195.73 154.53 195.18"
/>
</g>
<path fill="#191a1b" d="
  M 162.65 64.40
  Q 161.35 64.41 160.71 65.17
  Q 160.37 65.57 160.45 66.09
  Q 161.51 72.39 164.10 78.19
  Q 164.33 78.70 164.23 79.24
  Q 164.05 80.17 164.66 80.79
  A 0.84 0.83 36.4 0 1 164.81 81.75
  Q 164.04 83.26 165.26 84.15
  Q 165.70 84.46 165.66 85.00
  C 165.54 86.40 165.66 91.53 168.02 90.98
  A 0.52 0.51 80.9 0 1 168.65 91.44
  Q 168.76 92.81 167.72 93.85
  A 0.47 0.47 0.0 0 0 167.98 94.65
  L 169.21 94.82
  Q 169.72 94.89 169.76 95.40
  C 169.93 98.23 165.86 96.74 164.82 95.74
  Q 165.21 93.63 164.75 91.75
  C 162.23 81.44 159.13 71.24 158.16 60.64
  C 156.97 47.67 156.95 35.00 151.27 22.61
  C 149.95 19.74 147.61 16.95 146.17 13.70
  A 0.32 0.32 0.0 0 1 146.67 13.33
  C 151.41 17.56 155.18 26.83 157.06 32.79
  C 159.85 41.66 161.07 53.99 162.65 64.40
  Z"
/>
<path fill="#191a1b" d="
  M 164.20 95.89
  Q 164.04 97.01 160.82 98.76
  A 0.39 0.39 0.0 0 0 161.14 99.47
  L 163.82 98.45
  Q 164.22 98.30 164.64 98.37
  C 165.55 98.53 172.03 99.93 172.38 99.16
  Q 172.63 98.63 172.26 97.42
  C 175.76 97.49 177.14 99.91 179.75 101.91
  A 1.56 1.51 63.2 0 0 180.64 102.22
  Q 184.77 102.33 188.77 101.69
  C 193.26 100.97 197.56 105.62 196.46 109.66
  Q 193.07 109.04 191.30 110.83
  Q 190.92 111.21 190.44 110.97
  Q 188.64 110.10 187.41 108.56
  A 0.97 0.97 0.0 0 0 185.68 109.11
  Q 185.62 110.03 184.93 110.15
  Q 184.05 110.30 183.99 110.29
  Q 182.09 110.21 181.16 111.97
  Q 180.93 111.93 180.76 112.18
  Q 180.48 112.56 180.76 112.95
  Q 181.53 114.02 183.05 113.94
  A 0.37 0.37 0.0 0 1 183.34 114.55
  Q 182.74 115.23 181.23 115.21
  Q 179.78 115.15 178.43 115.81
  Q 177.95 116.04 177.50 115.77
  L 177.11 115.53
  Q 176.67 115.27 176.22 115.53
  Q 173.45 117.14 170.41 118.23
  C 168.11 119.05 166.02 118.28 163.49 119.13
  A 0.92 0.91 -34.5 0 1 162.62 118.97
  Q 161.92 118.41 161.70 117.86
  Q 159.88 115.64 156.96 116.11
  A 1.19 1.17 -27.4 0 1 155.99 115.81
  L 154.66 114.58
  A 0.50 0.50 0.0 0 0 153.86 114.75
  Q 153.52 115.54 153.99 115.86
  Q 153.22 118.04 151.24 117.44
  L 153.36 111.46
  L 156.28 113.92
  C 157.01 116.01 160.67 114.08 162.07 113.63
  Q 162.66 113.44 162.39 112.90
  Q 161.16 110.41 158.80 111.71
  A 0.45 0.45 0.0 0 1 158.14 111.37
  Q 157.83 108.97 155.65 109.01
  Q 158.32 104.70 158.49 101.20
  Q 159.06 98.14 155.73 96.03
  C 155.33 95.23 154.86 93.83 154.23 93.12
  C 140.11 77.37 122.74 56.05 121.18 34.06
  C 121.07 32.57 120.55 19.14 121.69 19.03
  Q 121.90 19.01 121.92 19.23
  C 122.46 25.46 122.41 32.20 123.82 37.90
  Q 126.93 50.47 133.80 59.95
  Q 145.76 76.45 164.20 95.89
  Z
  M 134.73 65.09
  A 0.34 0.34 0.0 0 0 134.55 65.60
  Q 134.88 66.08 135.34 66.47
  A 0.58 0.58 0.0 0 0 136.26 65.83
  Q 135.87 64.71 134.73 65.09
  Z
  M 156.7657 91.2307
  A 1.31 0.81 52.6 0 0 156.6135 89.6980
  A 1.31 0.81 52.6 0 0 155.1743 89.1493
  A 1.31 0.81 52.6 0 0 155.3265 90.6820
  A 1.31 0.81 52.6 0 0 156.7657 91.2307
  Z
  M 177.32 103.49
  L 178.34 102.65
  A 0.20 0.20 0.0 0 0 178.37 102.37
  L 178.23 102.20
  A 3.48 0.75 50.4 0 0 175.43 100.00
  L 175.26 100.14
  A 3.48 0.75 50.4 0 0 176.90 103.30
  L 177.04 103.47
  A 0.20 0.20 0.0 0 0 177.32 103.49
  Z
  M 170.96 105.85
  C 172.41 101.68 166.95 99.90 164.27 102.44
  Q 163.74 102.93 164.46 103.00
  Q 167.99 103.34 170.31 105.97
  Q 170.74 106.46 170.96 105.85
  Z
  M 165.75 106.00
  Q 165.66 106.03 165.53 106.07
  A 0.73 0.44 20.9 0 0 166.26 107.01
  Q 166.83 106.97 167.16 106.46
  A 0.43 0.43 0.0 0 0 166.98 105.83
  Q 166.49 105.62 166.12 105.82
  Q 165.78 105.99 165.75 106.00
  Z"
/>
<path fill="#414140" d="
  M 162.65 64.40
  Q 163.75 70.86 165.86 77.01
  C 168.13 83.64 168.98 90.37 171.71 96.96
  A 0.45 0.45 0.0 0 0 172.03 97.23
  Q 172.84 97.41 172.26 97.42
  Q 172.63 98.63 172.38 99.16
  C 172.03 99.93 165.55 98.53 164.64 98.37
  Q 164.22 98.30 163.82 98.45
  L 161.14 99.47
  A 0.39 0.39 0.0 0 1 160.82 98.76
  Q 164.04 97.01 164.20 95.89
  Q 164.38 95.66 164.82 95.74
  C 165.86 96.74 169.93 98.23 169.76 95.40
  Q 169.72 94.89 169.21 94.82
  L 167.98 94.65
  A 0.47 0.47 0.0 0 1 167.72 93.85
  Q 168.76 92.81 168.65 91.44
  A 0.52 0.51 80.9 0 0 168.02 90.98
  C 165.66 91.53 165.54 86.40 165.66 85.00
  Q 165.70 84.46 165.26 84.15
  Q 164.04 83.26 164.81 81.75
  A 0.84 0.83 36.4 0 0 164.66 80.79
  Q 164.05 80.17 164.23 79.24
  Q 164.33 78.70 164.10 78.19
  Q 161.51 72.39 160.45 66.09
  Q 160.37 65.57 160.71 65.17
  Q 161.35 64.41 162.65 64.40
  Z"
/>
<path fill="#414140" d="
  M 134.73 65.09
  Q 135.87 64.71 136.26 65.83
  A 0.58 0.58 0.0 0 1 135.34 66.47
  Q 134.88 66.08 134.55 65.60
  A 0.34 0.34 0.0 0 1 134.73 65.09
  Z"
/>
<path fill="#adb0a8" d="
  M 154.36 98.17
  L 158.49 101.20
  Q 158.32 104.70 155.65 109.01
  L 156.28 113.92
  L 153.36 111.46
  Q 153.00 110.94 152.96 110.24
  Q 154.47 110.61 154.57 109.66
  Q 155.20 103.51 150.79 102.18
  Q 149.59 97.73 146.71 93.34
  Q 146.60 93.18 146.43 93.27
  L 146.20 93.41
  A 0.44 0.44 0.0 0 0 146.04 94.00
  Q 147.10 95.91 147.27 98.04
  Q 146.64 100.82 148.39 103.29
  Q 148.64 103.65 149.05 103.48
  L 149.77 103.17
  L 150.45 104.76
  Q 152.72 107.58 151.63 108.39
  C 149.12 107.04 146.79 105.87 145.68 103.08
  C 144.81 100.91 142.53 90.89 143.88 89.21
  Q 144.92 87.90 146.05 89.14
  L 154.36 98.17
  Z"
/>
<path fill="#414140" d="
  M 156.7657 91.2307
  A 1.31 0.81 52.6 0 1 155.3265 90.6820
  A 1.31 0.81 52.6 0 1 155.1743 89.1493
  A 1.31 0.81 52.6 0 1 156.6135 89.6980
  A 1.31 0.81 52.6 0 1 156.7657 91.2307
  Z"
/>
<path fill="#191a1b" d="
  M 150.79 102.18
  Q 151.37 105.05 150.45 104.76
  L 149.77 103.17
  L 147.27 98.04
  Q 147.10 95.91 146.04 94.00
  A 0.44 0.44 0.0 0 1 146.20 93.41
  L 146.43 93.27
  Q 146.60 93.18 146.71 93.34
  Q 149.59 97.73 150.79 102.18
  Z"
/>
<path fill="#818075" d="
  M 155.73 96.03
  Q 159.06 98.14 158.49 101.20
  L 154.36 98.17
  Q 156.13 98.13 155.73 96.03
  Z"
/>
<path fill="#414140" d="
  M 147.27 98.04
  L 149.77 103.17
  L 149.05 103.48
  Q 148.64 103.65 148.39 103.29
  Q 146.64 100.82 147.27 98.04
  Z"
/>
<path fill="#414140" d="
  M 177.32 103.49
  A 0.20 0.20 0.0 0 1 177.04 103.47
  L 176.90 103.30
  A 3.48 0.75 50.4 0 1 175.26 100.14
  L 175.43 100.00
  A 3.48 0.75 50.4 0 1 178.23 102.20
  L 178.37 102.37
  A 0.20 0.20 0.0 0 1 178.34 102.65
  L 177.32 103.49
  Z"
/>
<path fill="#9d9e91" d="
  M 164.27 102.44
  C 166.95 99.90 172.41 101.68 170.96 105.85
  Q 170.74 106.46 170.31 105.97
  Q 167.99 103.34 164.46 103.00
  Q 163.74 102.93 164.27 102.44
  Z"
/>
<path fill="#818075" d="
  M 152.96 110.24
  L 151.63 108.39
  Q 152.72 107.58 150.45 104.76
  Q 151.37 105.05 150.79 102.18
  Q 155.20 103.51 154.57 109.66
  Q 154.47 110.61 152.96 110.24
  Z"
/>
<path fill="#818075" d="
  M 166.12 105.82
  Q 166.49 105.62 166.98 105.83
  A 0.43 0.43 0.0 0 1 167.16 106.46
  Q 166.83 106.97 166.26 107.01
  A 0.73 0.44 20.9 0 1 165.53 106.07
  Q 165.66 106.03 165.75 106.00
  Q 165.78 105.99 166.12 105.82
  Z"
/>
<path fill="#9d9e91" d="
  M 196.46 109.66
  Q 196.00 112.08 194.82 113.55
  Q 193.69 112.96 192.40 112.91
  Q 191.92 112.89 191.51 112.63
  Q 190.68 112.11 189.84 112.61
  A 0.41 0.41 0.0 0 0 189.79 113.27
  Q 191.84 114.98 194.20 114.50
  Q 194.19 115.37 193.45 116.04
  L 188.99 115.55
  Q 188.39 115.48 187.97 115.91
  L 187.64 116.23
  A 0.45 0.44 -66.7 0 0 187.94 116.99
  Q 188.52 117.00 188.86 117.46
  Q 189.22 117.94 188.64 118.11
  Q 185.58 119.01 183.83 116.68
  Q 183.54 116.29 183.66 115.82
  L 184.51 112.60
  Q 184.66 112.00 184.05 112.07
  L 181.72 112.34
  Q 181.49 112.37 181.35 112.19
  L 181.16 111.97
  Q 182.09 110.21 183.99 110.29
  Q 184.05 110.30 184.93 110.15
  Q 185.62 110.03 185.68 109.11
  A 0.97 0.97 0.0 0 1 187.41 108.56
  Q 188.64 110.10 190.44 110.97
  Q 190.92 111.21 191.30 110.83
  Q 193.07 109.04 196.46 109.66
  Z
  M 194.7985 111.5320
  A 1.27 0.52 2.8 0 0 193.5554 110.9506
  A 1.27 0.52 2.8 0 0 192.2615 111.4080
  A 1.27 0.52 2.8 0 0 193.5046 111.9894
  A 1.27 0.52 2.8 0 0 194.7985 111.5320
  Z"
/>
<path fill="#818075" d="
  M 155.65 109.01
  Q 157.83 108.97 158.14 111.37
  A 0.45 0.45 0.0 0 0 158.80 111.71
  Q 161.16 110.41 162.39 112.90
  Q 162.66 113.44 162.07 113.63
  C 160.67 114.08 157.01 116.01 156.28 113.92
  L 155.65 109.01
  Z"
/>
<path fill="#414140" d="
  M 194.7985 111.5320
  A 1.27 0.52 2.8 0 1 193.5046 111.9894
  A 1.27 0.52 2.8 0 1 192.2615 111.4080
  A 1.27 0.52 2.8 0 1 193.5554 110.9506
  A 1.27 0.52 2.8 0 1 194.7985 111.5320
  Z"
/>
<path fill="#414140" d="
  M 181.16 111.97
  L 181.35 112.19
  Q 181.49 112.37 181.72 112.34
  L 184.05 112.07
  Q 184.66 112.00 184.51 112.60
  L 183.66 115.82
  Q 183.54 116.29 183.83 116.68
  Q 185.58 119.01 188.64 118.11
  Q 189.22 117.94 188.86 117.46
  Q 188.52 117.00 187.94 116.99
  A 0.45 0.44 -66.7 0 1 187.64 116.23
  L 187.97 115.91
  Q 188.39 115.48 188.99 115.55
  L 193.45 116.04
  Q 190.79 118.26 188.39 120.90
  C 185.09 124.52 180.54 125.59 178.98 130.72
  Q 178.07 133.73 176.17 136.65
  C 174.19 131.40 171.13 131.17 167.19 127.80
  Q 166.67 127.36 167.34 127.44
  C 170.14 127.79 172.27 128.02 174.86 126.62
  Q 179.32 124.21 183.27 120.96
  Q 183.56 120.72 183.27 120.50
  L 181.39 119.05
  Q 180.93 118.69 181.19 118.17
  Q 181.88 116.80 181.23 115.21
  Q 182.74 115.23 183.34 114.55
  A 0.37 0.37 0.0 0 0 183.05 113.94
  Q 181.53 114.02 180.76 112.95
  Q 180.48 112.56 180.76 112.18
  Q 180.93 111.93 181.16 111.97
  Z"
/>
<path fill="#414140" d="
  M 194.82 113.55
  Q 194.66 114.03 194.20 114.50
  Q 191.84 114.98 189.79 113.27
  A 0.41 0.41 0.0 0 1 189.84 112.61
  Q 190.68 112.11 191.51 112.63
  Q 191.92 112.89 192.40 112.91
  Q 193.69 112.96 194.82 113.55
  Z"
/>
<path fill="#adb0a8" d="
  M 161.70 117.86
  C 155.44 121.84 157.34 127.23 159.21 133.04
  A 2.25 2.21 -49.5 0 1 159.28 134.04
  Q 158.93 135.98 160.19 137.49
  A 0.61 0.61 0.0 0 0 161.21 136.83
  Q 159.31 132.83 162.03 129.47
  Q 162.32 129.12 162.19 128.68
  L 161.79 127.27
  A 0.66 0.65 -88.6 0 1 162.63 126.47
  Q 164.58 127.14 164.93 129.25
  Q 165.01 129.76 165.52 129.89
  L 167.73 130.43
  A 0.65 0.63 4.6 0 1 168.22 130.99
  Q 168.29 131.61 167.73 132.00
  A 0.31 0.30 15.7 0 0 168.03 132.53
  Q 169.71 131.79 171.59 132.02
  A 1.35 1.35 0.0 0 1 172.39 132.42
  Q 174.52 134.55 175.49 137.57
  C 173.92 143.27 174.10 147.74 170.11 153.32
  C 167.88 156.44 164.73 156.85 162.98 161.04
  Q 162.23 161.06 161.40 160.71
  Q 160.96 160.52 160.82 160.97
  Q 159.87 163.89 157.69 166.00
  A 1.15 1.15 0.0 0 1 155.76 165.35
  C 155.43 163.26 156.03 159.88 154.00 158.61
  Q 153.43 158.25 153.47 158.93
  Q 153.77 163.83 155.64 168.33
  Q 155.84 168.04 155.77 168.63
  Q 155.74 168.86 155.51 168.92
  Q 153.78 169.38 152.76 167.69
  C 152.41 166.08 151.10 158.54 148.45 157.17
  L 147.38 154.38
  A 0.69 0.69 0.0 0 0 146.05 154.65
  Q 146.07 155.51 144.94 155.29
  L 142.32 151.35
  A 0.42 0.42 0.0 0 0 141.55 151.60
  Q 141.64 153.07 142.59 153.96
  Q 140.55 155.30 140.86 157.16
  Q 140.93 157.61 140.77 158.03
  Q 140.39 159.01 140.57 160.49
  Q 140.99 163.85 138.82 166.94
  A 0.82 0.81 24.4 0 1 137.95 167.26
  Q 137.11 167.05 136.55 167.55
  Q 136.12 167.93 136.29 168.48
  L 136.49 169.09
  A 0.50 0.49 81.1 0 1 136.03 169.73
  Q 134.42 169.77 133.09 169.16
  Q 130.90 168.52 129.40 167.28
  Q 129.01 166.95 128.96 166.45
  Q 128.30 160.28 123.69 156.48
  C 120.89 154.17 119.39 152.67 116.58 151.92
  C 114.28 151.31 113.11 150.43 113.28 147.96
  A 1.48 1.48 0.0 0 1 114.17 146.70
  Q 115.61 146.08 116.31 147.21
  A 0.35 0.33 31.8 0 0 116.94 147.08
  Q 117.14 143.92 120.02 142.84
  A 1.05 1.03 89.6 0 0 120.65 142.19
  Q 121.50 139.60 124.33 139.48
  Q 124.84 139.46 125.31 139.26
  Q 127.87 138.13 128.93 140.63
  Q 129.15 141.15 129.61 141.48
  Q 131.14 142.57 131.22 144.59
  Q 131.23 145.14 131.05 145.66
  Q 130.25 147.92 132.27 149.28
  Q 133.38 150.03 133.15 148.71
  Q 132.15 142.85 132.74 136.92
  A 0.67 0.67 0.0 0 0 131.93 136.20
  Q 129.43 136.76 127.82 134.89
  Q 127.50 134.53 127.04 134.67
  Q 123.89 135.64 121.94 132.90
  C 128.00 129.47 133.21 129.95 139.93 130.66
  Q 136.22 136.33 138.96 142.69
  Q 139.18 143.19 139.08 143.73
  Q 138.62 146.21 139.84 148.33
  A 0.34 0.34 0.0 0 0 140.46 148.09
  Q 139.18 141.72 138.90 135.23
  A 0.31 0.30 -58.2 0 1 139.48 135.09
  L 141.36 139.48
  A 0.34 0.34 0.0 0 0 142.01 139.38
  Q 142.08 138.49 141.66 137.76
  Q 141.40 137.33 141.61 136.86
  L 143.60 132.42
  A 0.71 0.71 0.0 0 1 144.25 132.00
  L 144.64 132.00
  Q 145.25 132.00 145.10 132.60
  Q 144.16 136.35 146.21 139.59
  A 0.48 0.48 0.0 0 0 147.07 139.19
  Q 145.92 135.37 145.70 131.37
  Q 145.67 130.72 146.31 130.64
  L 147.95 130.45
  Q 148.33 130.40 148.39 130.03
  L 149.41 123.70
  Q 149.54 122.88 150.11 123.49
  L 151.23 124.69
  A 0.55 0.55 0.0 0 0 152.10 124.61
  Q 153.06 123.08 152.63 121.27
  Q 152.50 120.75 153.04 120.75
  L 153.99 120.75
  A 0.74 0.73 -75.4 0 0 154.63 120.37
  Q 156.16 117.65 153.99 115.86
  Q 153.52 115.54 153.86 114.75
  A 0.50 0.50 0.0 0 1 154.66 114.58
  L 155.99 115.81
  A 1.19 1.17 -27.4 0 0 156.96 116.11
  Q 159.88 115.64 161.70 117.86
  Z
  M 152.39 133.61
  C 151.03 136.11 155.24 138.23 156.38 140.71
  A 0.42 0.41 62.6 0 0 156.97 140.90
  L 157.46 140.61
  Q 157.76 140.44 157.56 140.15
  L 153.11 133.58
  A 0.43 0.42 42.3 0 0 152.39 133.61
  Z
  M 172.51 136.11
  L 171.71 135.19
  A 0.27 0.27 0.0 0 0 171.33 135.17
  L 170.71 135.71
  A 3.47 0.74 -41.0 0 0 168.58 138.54
  L 168.76 138.75
  A 3.47 0.74 -41.0 0 0 171.87 137.03
  L 172.48 136.50
  A 0.27 0.27 0.0 0 0 172.51 136.11
  Z"
/>
<path fill="#818075" d="
  M 181.23 115.21
  Q 181.88 116.80 181.19 118.17
  Q 180.93 118.69 181.39 119.05
  L 183.27 120.50
  Q 183.56 120.72 183.27 120.96
  Q 179.32 124.21 174.86 126.62
  C 172.27 128.02 170.14 127.79 167.34 127.44
  Q 166.67 127.36 167.19 127.80
  C 171.13 131.17 174.19 131.40 176.17 136.65
  L 175.49 137.57
  Q 174.52 134.55 172.39 132.42
  A 1.35 1.35 0.0 0 0 171.59 132.02
  Q 169.71 131.79 168.03 132.53
  A 0.31 0.30 15.7 0 1 167.73 132.00
  Q 168.29 131.61 168.22 130.99
  A 0.65 0.63 4.6 0 0 167.73 130.43
  L 165.52 129.89
  Q 165.01 129.76 164.93 129.25
  Q 164.58 127.14 162.63 126.47
  A 0.66 0.65 -88.6 0 0 161.79 127.27
  L 162.19 128.68
  Q 162.32 129.12 162.03 129.47
  Q 159.31 132.83 161.21 136.83
  A 0.61 0.61 0.0 0 1 160.19 137.49
  Q 158.93 135.98 159.28 134.04
  A 2.25 2.21 -49.5 0 0 159.21 133.04
  C 157.34 127.23 155.44 121.84 161.70 117.86
  Q 161.92 118.41 162.62 118.97
  A 0.92 0.91 -34.5 0 0 163.49 119.13
  C 166.02 118.28 168.11 119.05 170.41 118.23
  Q 173.45 117.14 176.22 115.53
  Q 176.67 115.27 177.11 115.53
  L 177.50 115.77
  Q 177.95 116.04 178.43 115.81
  Q 179.78 115.15 181.23 115.21
  Z
  M 171.45 121.85
  L 173.46 120.42
  A 0.67 0.67 0.0 0 0 173.42 119.30
  C 169.85 117.09 169.39 121.94 166.59 120.94
  A 0.93 0.93 0.0 0 0 165.66 122.52
  Q 167.79 124.41 170.37 125.45
  Q 170.82 125.63 171.03 126.06
  Q 171.41 126.80 172.17 127.01
  Q 172.78 127.17 172.91 126.56
  Q 173.74 122.94 177.68 123.86
  A 1.21 1.20 -11.1 0 0 178.94 121.99
  L 178.08 120.77
  Q 177.70 120.24 177.11 120.50
  L 171.99 122.80
  A 0.55 0.55 0.0 0 1 171.45 121.85
  Z"
/>
<path fill="#818075" d="
  M 153.99 115.86
  Q 156.16 117.65 154.63 120.37
  A 0.74 0.73 -75.4 0 1 153.99 120.75
  L 153.04 120.75
  Q 152.50 120.75 152.63 121.27
  Q 153.06 123.08 152.10 124.61
  A 0.55 0.55 0.0 0 1 151.23 124.69
  L 150.11 123.49
  Q 149.54 122.88 149.41 123.70
  L 148.39 130.03
  Q 148.33 130.40 147.95 130.45
  L 146.31 130.64
  Q 145.67 130.72 145.70 131.37
  Q 145.92 135.37 147.07 139.19
  A 0.48 0.48 0.0 0 1 146.21 139.59
  Q 144.16 136.35 145.10 132.60
  Q 145.25 132.00 144.64 132.00
  L 144.25 132.00
  A 0.71 0.71 0.0 0 0 143.60 132.42
  L 141.61 136.86
  Q 141.40 137.33 141.66 137.76
  Q 142.08 138.49 142.01 139.38
  A 0.34 0.34 0.0 0 1 141.36 139.48
  L 139.48 135.09
  A 0.31 0.30 -58.2 0 0 138.90 135.23
  Q 139.18 141.72 140.46 148.09
  A 0.34 0.34 0.0 0 1 139.84 148.33
  Q 138.62 146.21 139.08 143.73
  Q 139.18 143.19 138.96 142.69
  Q 136.22 136.33 139.93 130.66
  C 145.35 126.66 148.40 123.70 151.24 117.44
  Q 153.22 118.04 153.99 115.86
  Z"
/>
<path fill="#9d9e91" d="
  M 171.45 121.85
  A 0.55 0.55 0.0 0 0 171.99 122.80
  L 177.11 120.50
  Q 177.70 120.24 178.08 120.77
  L 178.94 121.99
  A 1.21 1.20 -11.1 0 1 177.68 123.86
  Q 173.74 122.94 172.91 126.56
  Q 172.78 127.17 172.17 127.01
  Q 171.41 126.80 171.03 126.06
  Q 170.82 125.63 170.37 125.45
  Q 167.79 124.41 165.66 122.52
  A 0.93 0.93 0.0 0 1 166.59 120.94
  C 169.39 121.94 169.85 117.09 173.42 119.30
  A 0.67 0.67 0.0 0 1 173.46 120.42
  L 171.45 121.85
  Z"
/>
<path fill="#9d9e91" d="
  M 121.94 132.90
  Q 123.89 135.64 127.04 134.67
  Q 127.50 134.53 127.82 134.89
  Q 129.43 136.76 131.93 136.20
  A 0.67 0.67 0.0 0 1 132.74 136.92
  Q 132.15 142.85 133.15 148.71
  Q 133.38 150.03 132.27 149.28
  Q 130.25 147.92 131.05 145.66
  Q 131.23 145.14 131.22 144.59
  Q 131.14 142.57 129.61 141.48
  Q 129.15 141.15 128.93 140.63
  Q 127.87 138.13 125.31 139.26
  Q 124.84 139.46 124.33 139.48
  Q 121.50 139.60 120.65 142.19
  A 1.05 1.03 89.6 0 1 120.02 142.84
  Q 117.14 143.92 116.94 147.08
  A 0.35 0.33 31.8 0 1 116.31 147.21
  Q 115.61 146.08 114.17 146.70
  A 1.48 1.48 0.0 0 0 113.28 147.96
  C 113.11 150.43 114.28 151.31 116.58 151.92
  C 119.39 152.67 120.89 154.17 123.69 156.48
  Q 128.30 160.28 128.96 166.45
  Q 129.01 166.95 129.40 167.28
  Q 130.90 168.52 133.09 169.16
  Q 132.12 170.11 131.63 171.38
  Q 131.40 171.97 130.93 171.55
  C 130.09 170.79 129.19 167.61 128.06 168.19
  Q 127.65 168.40 127.62 168.86
  Q 127.55 169.81 127.06 170.55
  A 0.59 0.59 0.0 0 1 126.10 170.58
  L 124.74 168.76
  Q 124.64 168.61 124.47 168.68
  Q 124.36 168.72 124.18 168.75
  Q 123.91 168.79 124.03 169.04
  L 126.50 174.23
  Q 126.74 174.74 127.29 174.87
  L 128.13 175.07
  A 0.71 0.70 -78.7 0 1 128.66 175.88
  L 128.19 178.52
  A 0.49 0.49 0.0 0 1 127.29 178.68
  Q 126.52 177.36 126.04 177.17
  C 123.87 174.98 124.06 172.27 122.59 169.79
  Q 121.53 168.01 120.65 166.13
  C 119.78 164.30 120.32 162.33 118.63 160.46
  Q 118.33 160.12 117.88 160.22
  L 116.64 160.50
  A 0.61 0.61 0.0 0 1 115.92 160.09
  L 114.80 156.55
  A 0.50 0.49 43.6 0 0 113.85 156.57
  Q 113.60 157.53 113.82 158.38
  Q 111.99 160.29 109.79 160.48
  Q 109.24 160.52 108.91 160.08
  Q 107.28 157.89 107.15 155.12
  A 0.68 0.68 0.0 0 0 106.45 154.47
  L 104.29 154.55
  Q 103.69 154.57 103.36 155.07
  L 101.10 158.46
  A 0.92 0.92 0.0 0 0 101.01 159.33
  Q 103.03 164.32 98.47 167.22
  A 0.68 0.68 0.0 0 0 98.34 168.25
  L 99.89 169.95
  A 0.69 0.69 0.0 0 1 99.96 170.79
  L 98.42 173.22
  Q 98.15 173.65 97.63 173.70
  L 96.25 173.84
  Q 95.77 173.89 95.93 174.34
  Q 96.20 175.14 95.19 176.51
  C 94.60 174.53 93.52 170.16 90.47 172.15
  Q 90.09 172.40 89.64 172.27
  L 87.00 171.48
  A 0.71 0.71 0.0 0 1 86.50 170.73
  Q 86.62 169.48 85.59 169.28
  Q 84.98 169.17 84.77 168.58
  L 82.07 161.04
  A 0.55 0.55 0.0 0 0 81.03 161.07
  Q 79.63 165.91 80.04 171.28
  Q 80.79 173.74 79.59 175.40
  Q 79.30 175.80 79.26 176.28
  L 79.16 177.45
  L 78.94 178.29
  Q 78.79 178.83 78.30 178.55
  Q 77.46 178.06 76.74 178.08
  Q 75.67 177.52 74.90 176.15
  Q 74.72 175.83 74.46 176.09
  L 71.49 179.07
  A 0.94 0.93 37.0 0 1 70.36 179.22
  Q 67.84 177.76 67.44 174.87
  A 0.10 0.09 -85.3 0 0 67.39 174.80
  Q 67.24 174.74 67.11 174.74
  Q 66.84 174.73 66.87 175.00
  L 67.48 181.39
  Q 68.57 182.80 68.46 183.72
  Q 68.40 184.26 67.87 184.41
  L 65.78 185.00
  Q 65.34 185.13 65.50 185.56
  Q 66.20 187.44 64.04 188.40
  Q 63.62 188.58 63.71 189.04
  C 64.18 191.39 60.11 191.77 58.53 192.17
  Q 58.12 192.02 58.10 191.82
  Q 54.95 190.74 55.18 187.70
  Q 55.22 187.21 55.70 187.32
  L 57.43 187.72
  A 0.57 0.57 0.0 0 0 58.11 186.99
  Q 57.49 184.97 59.09 184.06
  Q 59.63 183.75 59.34 183.20
  C 58.29 181.21 59.34 176.43 58.71 173.50
  Q 57.28 166.82 58.41 159.46
  Q 58.48 159.03 57.23 157.14
  Q 60.98 148.20 71.57 142.32
  Q 79.09 138.14 87.07 138.08
  C 95.80 138.01 104.31 136.68 113.70 136.16
  Q 118.00 135.92 121.94 132.90
  Z
  M 67.10 171.49
  A 1.32 0.97 -87.5 0 0 68.50 169.75
  L 65.81 162.30
  A 0.36 0.36 0.0 0 0 65.11 162.39
  Q 64.71 166.64 65.36 170.84
  A 0.53 0.52 -13.1 0 0 66.04 171.26
  Q 66.61 171.08 67.10 171.49
  Z
  M 62.85 177.13
  L 61.94 179.17
  A 0.61 0.61 0.0 0 0 62.50 180.03
  Q 64.14 180.01 65.37 178.92
  Q 65.77 178.56 65.44 178.14
  C 64.88 177.41 63.26 172.88 63.22 172.87
  Q 62.82 172.74 62.84 173.16
  L 63.03 176.11
  Q 63.07 176.64 62.85 177.13
  Z"
/>
<path fill="#9d9e91" d="
  M 156.38 140.71
  C 155.24 138.23 151.03 136.11 152.39 133.61
  A 0.43 0.42 42.3 0 1 153.11 133.58
  L 157.56 140.15
  Q 157.76 140.44 157.46 140.61
  L 156.97 140.90
  A 0.42 0.41 62.6 0 1 156.38 140.71
  Z"
/>
<path fill="#818075" d="
  M 172.51 136.11
  A 0.27 0.27 0.0 0 1 172.48 136.50
  L 171.87 137.03
  A 3.47 0.74 -41.0 0 1 168.76 138.75
  L 168.58 138.54
  A 3.47 0.74 -41.0 0 1 170.71 135.71
  L 171.33 135.17
  A 0.27 0.27 0.0 0 1 171.71 135.19
  L 172.51 136.11
  Z"
/>
<path fill="#191a1b" d="
  M 144.94 155.29
  Q 146.18 158.77 148.45 157.17
  C 151.10 158.54 152.41 166.08 152.76 167.69
  L 149.22 173.03
  Q 148.94 173.46 149.00 173.98
  Q 149.06 174.52 148.79 174.97
  Q 148.49 175.46 148.10 175.03
  C 146.74 173.50 141.55 178.36 140.43 179.60
  Q 140.10 179.97 140.58 180.10
  Q 144.32 181.09 147.65 183.08
  Q 148.09 183.34 148.59 183.46
  L 149.95 183.78
  Q 150.71 184.72 151.08 184.91
  C 155.74 187.28 160.65 189.87 163.65 194.37
  Q 169.65 203.37 176.09 212.05
  C 180.34 217.78 183.99 224.20 188.07 230.22
  Q 186.34 229.99 185.62 227.91
  Q 185.39 227.27 184.88 227.72
  L 183.91 228.57
  Q 183.58 228.86 183.15 228.93
  Q 181.41 229.21 179.27 230.90
  Q 176.91 228.81 174.77 225.10
  C 172.70 221.51 173.33 217.65 170.71 213.88
  C 173.94 212.61 162.25 196.88 160.92 194.82
  Q 160.74 192.52 159.83 193.06
  L 159.24 193.00
  Q 158.75 192.94 158.38 192.60
  C 155.80 190.26 152.15 189.12 149.90 187.75
  C 145.59 185.14 142.90 183.33 136.98 182.99
  Q 135.39 183.21 134.01 182.50
  Q 133.65 182.32 133.63 181.91
  L 133.51 178.44
  Q 133.50 178.03 133.87 177.86
  Q 135.67 177.03 137.15 175.64
  Q 137.56 175.25 137.49 174.70
  L 137.34 173.45
  Q 137.30 173.06 137.59 172.80
  Q 139.44 171.14 141.96 171.26
  Q 142.50 171.29 142.76 170.81
  Q 143.81 168.91 144.30 166.77
  Q 144.40 166.33 144.70 165.98
  C 147.15 163.21 143.69 157.02 142.59 153.96
  Q 141.64 153.07 141.55 151.60
  A 0.42 0.42 0.0 0 1 142.32 151.35
  L 144.94 155.29
  Z
  M 178.18 224.63
  L 178.71 222.81
  Q 178.86 222.31 178.52 221.91
  L 176.71 219.78
  A 0.66 0.65 -35.3 0 0 175.86 219.64
  Q 174.55 220.41 175.15 222.35
  A 0.59 0.58 -39.0 0 0 176.22 222.46
  Q 176.46 222.03 176.83 222.44
  Q 177.14 222.79 177.04 223.24
  Q 176.44 225.96 178.63 227.39
  Q 178.90 227.56 178.80 227.86
  Q 178.69 228.17 178.58 228.50
  Q 178.47 228.86 178.83 228.92
  C 179.95 229.12 181.54 227.08 181.84 226.35
  A 0.56 0.55 14.2 0 0 181.38 225.58
  L 178.64 225.31
  Q 178.00 225.25 178.18 224.63
  Z"
/>
<path fill="#818075" d="
  M 142.59 153.96
  C 143.69 157.02 147.15 163.21 144.70 165.98
  Q 144.40 166.33 144.30 166.77
  Q 143.81 168.91 142.76 170.81
  Q 142.50 171.29 141.96 171.26
  Q 139.44 171.14 137.59 172.80
  Q 137.30 173.06 137.34 173.45
  L 137.49 174.70
  Q 137.56 175.25 137.15 175.64
  Q 135.67 177.03 133.87 177.86
  Q 133.50 178.03 133.51 178.44
  L 133.63 181.91
  Q 133.65 182.32 134.01 182.50
  Q 135.39 183.21 136.98 182.99
  Q 139.17 183.89 136.13 185.63
  A 0.16 0.16 0.0 0 0 136.17 185.93
  L 138.04 186.36
  Q 138.63 186.50 138.27 186.98
  L 137.18 188.44
  Q 134.44 186.47 131.76 186.48
  Q 130.13 185.51 129.45 185.68
  Q 127.05 180.17 123.62 178.43
  Q 121.46 176.39 121.60 175.27
  Q 121.68 174.64 122.22 174.96
  Q 122.84 175.33 122.98 176.02
  Q 123.08 176.48 123.42 176.81
  Q 125.24 178.54 126.04 177.17
  Q 126.52 177.36 127.29 178.68
  A 0.49 0.49 0.0 0 0 128.19 178.52
  L 128.66 175.88
  A 0.71 0.70 -78.7 0 0 128.13 175.07
  L 127.29 174.87
  Q 126.74 174.74 126.50 174.23
  L 124.03 169.04
  Q 123.91 168.79 124.18 168.75
  Q 124.36 168.72 124.47 168.68
  Q 124.64 168.61 124.74 168.76
  L 126.10 170.58
  A 0.59 0.59 0.0 0 0 127.06 170.55
  Q 127.55 169.81 127.62 168.86
  Q 127.65 168.40 128.06 168.19
  C 129.19 167.61 130.09 170.79 130.93 171.55
  Q 131.40 171.97 131.63 171.38
  Q 132.12 170.11 133.09 169.16
  Q 134.42 169.77 136.03 169.73
  A 0.50 0.49 81.1 0 0 136.49 169.09
  L 136.29 168.48
  Q 136.12 167.93 136.55 167.55
  Q 137.11 167.05 137.95 167.26
  A 0.82 0.81 24.4 0 0 138.82 166.94
  Q 140.99 163.85 140.57 160.49
  Q 140.39 159.01 140.77 158.03
  Q 140.93 157.61 140.86 157.16
  Q 140.55 155.30 142.59 153.96
  Z"
/>
<path fill="#818075" d="
  M 148.45 157.17
  Q 146.18 158.77 144.94 155.29
  Q 146.07 155.51 146.05 154.65
  A 0.69 0.69 0.0 0 1 147.38 154.38
  L 148.45 157.17
  Z"
/>
<path fill="#818075" d="
  M 113.82 158.38
  L 113.33 164.79
  Q 113.28 165.39 112.69 165.26
  Q 111.71 165.03 111.64 163.95
  A 0.58 0.58 0.0 0 0 110.54 163.75
  L 109.70 165.56
  Q 109.17 165.80 108.91 166.20
  A 0.41 0.41 0.0 0 0 108.96 166.70
  L 109.92 167.65
  Q 110.49 168.23 109.77 168.60
  L 108.79 169.11
  A 0.47 0.47 0.0 0 0 108.97 170.00
  Q 110.66 170.13 110.19 171.90
  Q 110.08 172.32 109.65 172.36
  Q 108.06 172.49 106.71 171.68
  Q 106.06 171.28 106.28 172.01
  L 107.75 176.91
  Q 107.94 177.56 107.29 177.73
  L 105.96 178.07
  A 0.73 0.73 0.0 0 0 105.97 179.49
  Q 107.58 179.86 108.95 178.90
  Q 109.34 178.63 109.81 178.63
  Q 112.69 178.62 113.53 181.15
  Q 104.97 178.74 109.47 183.45
  Q 105.07 183.23 101.79 180.46
  Q 101.20 179.97 101.77 179.46
  L 102.67 178.64
  Q 102.98 178.35 102.89 177.94
  Q 102.70 177.13 101.80 176.88
  Q 101.17 176.70 101.09 177.35
  L 100.95 178.36
  Q 100.89 178.78 100.49 178.62
  L 95.19 176.51
  Q 96.20 175.14 95.93 174.34
  Q 95.77 173.89 96.25 173.84
  L 97.63 173.70
  Q 98.15 173.65 98.42 173.22
  L 99.96 170.79
  A 0.69 0.69 0.0 0 0 99.89 169.95
  L 98.34 168.25
  A 0.68 0.68 0.0 0 1 98.47 167.22
  Q 103.03 164.32 101.01 159.33
  A 0.92 0.92 0.0 0 1 101.10 158.46
  L 103.36 155.07
  Q 103.69 154.57 104.29 154.55
  L 106.45 154.47
  A 0.68 0.68 0.0 0 1 107.15 155.12
  Q 107.28 157.89 108.91 160.08
  Q 109.24 160.52 109.79 160.48
  Q 111.99 160.29 113.82 158.38
  Z"
/>
<path fill="#191a1b" d="
  M 126.04 177.17
  Q 125.24 178.54 123.42 176.81
  Q 123.08 176.48 122.98 176.02
  Q 122.84 175.33 122.22 174.96
  Q 121.68 174.64 121.60 175.27
  Q 121.46 176.39 123.62 178.43
  Q 119.99 180.59 114.48 179.45
  A 0.65 0.65 0.0 0 1 114.36 178.21
  C 116.35 177.35 117.92 176.40 118.46 174.09
  C 119.15 171.15 120.16 169.27 117.98 166.67
  A 0.46 0.45 -50.0 0 0 117.23 166.74
  Q 115.82 169.19 115.84 172.06
  A 0.49 0.49 0.0 0 1 114.88 172.18
  Q 113.73 167.74 109.70 165.56
  L 110.54 163.75
  A 0.58 0.58 0.0 0 1 111.64 163.95
  Q 111.71 165.03 112.69 165.26
  Q 113.28 165.39 113.33 164.79
  L 113.82 158.38
  Q 113.60 157.53 113.85 156.57
  A 0.50 0.49 43.6 0 1 114.80 156.55
  L 115.92 160.09
  A 0.61 0.61 0.0 0 0 116.64 160.50
  L 117.88 160.22
  Q 118.33 160.12 118.63 160.46
  C 120.32 162.33 119.78 164.30 120.65 166.13
  Q 121.53 168.01 122.59 169.79
  C 124.06 172.27 123.87 174.98 126.04 177.17
  Z"
/>
<path fill="#414140" d="
  M 57.23 157.14
  Q 58.48 159.03 58.41 159.46
  Q 57.28 166.82 58.71 173.50
  C 59.34 176.43 58.29 181.21 59.34 183.20
  Q 59.63 183.75 59.09 184.06
  Q 57.49 184.97 58.11 186.99
  A 0.57 0.57 0.0 0 1 57.43 187.72
  L 55.70 187.32
  Q 55.22 187.21 55.18 187.70
  Q 54.95 190.74 58.10 191.82
  Q 56.08 192.71 54.04 192.29
  Q 53.44 192.17 53.27 192.76
  Q 52.59 195.18 50.99 196.67
  Q 48.57 198.11 47.18 200.53
  A 0.99 0.98 48.5 0 0 47.13 201.42
  Q 47.61 202.49 49.01 202.80
  L 47.35 204.52
  L 42.51 204.84
  L 44.12 197.84
  Q 45.33 199.18 44.60 200.63
  A 0.49 0.49 0.0 0 0 45.34 201.23
  Q 48.90 198.48 47.21 195.28
  C 53.07 191.47 55.37 184.00 56.43 177.16
  C 57.29 171.63 55.82 165.90 56.75 160.39
  Q 56.99 158.98 57.23 157.14
  Z"
/>
<path fill="#414140" d="
  M 162.98 161.04
  C 160.80 164.88 157.63 168.14 156.09 172.27
  C 154.30 177.07 153.63 178.54 149.90 182.13
  Q 149.30 182.14 148.96 181.92
  A 0.38 0.38 0.0 0 1 148.97 181.27
  Q 153.10 178.83 152.64 174.07
  Q 152.59 173.61 152.94 173.32
  Q 155.18 171.44 156.30 168.77
  A 0.39 0.39 0.0 0 0 156.01 168.24
  Q 155.85 168.21 155.64 168.33
  Q 153.77 163.83 153.47 158.93
  Q 153.43 158.25 154.00 158.61
  C 156.03 159.88 155.43 163.26 155.76 165.35
  A 1.15 1.15 0.0 0 0 157.69 166.00
  Q 159.87 163.89 160.82 160.97
  Q 160.96 160.52 161.40 160.71
  Q 162.23 161.06 162.98 161.04
  Z"
/>
<path fill="#414140" d="
  M 95.19 176.51
  L 100.49 178.62
  Q 100.89 178.78 100.95 178.36
  L 101.09 177.35
  Q 101.17 176.70 101.80 176.88
  Q 102.70 177.13 102.89 177.94
  Q 102.98 178.35 102.67 178.64
  L 101.77 179.46
  Q 101.20 179.97 101.79 180.46
  Q 105.07 183.23 109.47 183.45
  Q 113.43 184.08 117.91 181.76
  A 0.42 0.42 0.0 0 0 117.70 180.96
  L 113.53 181.15
  Q 112.69 178.62 109.81 178.63
  Q 109.34 178.63 108.95 178.90
  Q 107.58 179.86 105.97 179.49
  A 0.73 0.73 0.0 0 1 105.96 178.07
  L 107.29 177.73
  Q 107.94 177.56 107.75 176.91
  L 106.28 172.01
  Q 106.06 171.28 106.71 171.68
  Q 108.06 172.49 109.65 172.36
  Q 110.08 172.32 110.19 171.90
  Q 110.66 170.13 108.97 170.00
  A 0.47 0.47 0.0 0 1 108.79 169.11
  L 109.77 168.60
  Q 110.49 168.23 109.92 167.65
  L 108.96 166.70
  A 0.41 0.41 0.0 0 1 108.91 166.20
  Q 109.17 165.80 109.70 165.56
  Q 113.73 167.74 114.88 172.18
  A 0.49 0.49 0.0 0 0 115.84 172.06
  Q 115.82 169.19 117.23 166.74
  A 0.46 0.45 -50.0 0 1 117.98 166.67
  C 120.16 169.27 119.15 171.15 118.46 174.09
  C 117.92 176.40 116.35 177.35 114.36 178.21
  A 0.65 0.65 0.0 0 0 114.48 179.45
  Q 119.99 180.59 123.62 178.43
  Q 127.05 180.17 129.45 185.68
  L 112.11 186.12
  Q 103.73 186.61 98.00 185.96
  Q 96.69 185.82 97.06 184.33
  A 0.83 0.82 21.9 0 0 96.67 183.43
  C 92.21 180.85 88.65 180.32 85.59 175.51
  C 84.96 174.52 81.32 168.51 80.04 171.28
  Q 79.63 165.91 81.03 161.07
  A 0.55 0.55 0.0 0 1 82.07 161.04
  L 84.77 168.58
  Q 84.98 169.17 85.59 169.28
  Q 86.62 169.48 86.50 170.73
  A 0.71 0.71 0.0 0 0 87.00 171.48
  L 89.64 172.27
  Q 90.09 172.40 90.47 172.15
  C 93.52 170.16 94.60 174.53 95.19 176.51
  Z"
/>
<path fill="#818075" d="
  M 67.10 171.49
  Q 66.61 171.08 66.04 171.26
  A 0.53 0.52 -13.1 0 1 65.36 170.84
  Q 64.71 166.64 65.11 162.39
  A 0.36 0.36 0.0 0 1 65.81 162.30
  L 68.50 169.75
  A 1.32 0.97 -87.5 0 1 67.10 171.49
  Z"
/>
<path fill="#9d9e91" d="
  M 152.76 167.69
  Q 153.78 169.38 155.51 168.92
  Q 155.74 168.86 155.77 168.63
  Q 155.84 168.04 155.64 168.33
  Q 155.85 168.21 156.01 168.24
  A 0.39 0.39 0.0 0 1 156.30 168.77
  Q 155.18 171.44 152.94 173.32
  Q 152.59 173.61 152.64 174.07
  Q 153.10 178.83 148.97 181.27
  A 0.38 0.38 0.0 0 0 148.96 181.92
  Q 149.30 182.14 149.90 182.13
  Q 150.10 183.03 149.95 183.78
  L 148.59 183.46
  Q 148.09 183.34 147.65 183.08
  Q 144.32 181.09 140.58 180.10
  Q 140.10 179.97 140.43 179.60
  C 141.55 178.36 146.74 173.50 148.10 175.03
  Q 148.49 175.46 148.79 174.97
  Q 149.06 174.52 149.00 173.98
  Q 148.94 173.46 149.22 173.03
  L 152.76 167.69
  Z
  M 146.59 177.65
  Q 147.26 177.55 147.74 177.16
  A 0.73 0.72 12.3 0 0 146.96 175.95
  L 143.91 177.45
  Q 143.25 177.78 143.73 178.35
  Q 144.50 179.25 145.46 179.90
  Q 147.26 181.11 146.51 179.08
  L 146.22 178.29
  Q 146.02 177.74 146.59 177.65
  Z"
/>
<path fill="#191a1b" d="
  M 112.11 186.12
  Q 106.25 192.64 100.95 196.70
  Q 97.70 199.18 96.64 203.01
  Q 96.50 203.53 96.78 204.00
  Q 103.54 214.94 112.53 224.32
  Q 112.02 224.43 111.52 226.05
  A 1.08 1.07 -55.0 0 1 109.63 226.39
  Q 103.87 218.68 96.96 211.53
  C 94.63 209.11 91.97 205.37 91.99 201.95
  Q 92.00 201.48 92.31 201.13
  C 95.20 197.89 98.89 196.32 100.04 191.76
  A 0.45 0.45 0.0 0 0 99.28 191.33
  C 97.43 193.19 91.98 199.31 89.55 199.57
  A 1.63 1.63 0.0 0 0 88.27 201.94
  L 92.33 209.84
  Q 87.73 206.61 85.60 203.40
  A 2.63 2.61 -39.2 0 1 85.95 200.09
  C 89.39 196.68 93.70 191.21 94.23 186.16
  Q 94.28 185.65 93.80 185.44
  C 88.62 183.21 83.74 180.94 79.01 185.21
  C 76.12 187.81 71.44 193.04 67.49 193.46
  Q 64.99 193.73 60.89 196.34
  C 48.13 204.46 43.50 216.36 38.30 229.97
  C 36.73 234.08 33.62 237.27 31.53 241.27
  Q 30.41 243.40 26.58 245.38
  C 27.14 244.63 30.51 240.94 29.41 240.41
  A 1.44 1.41 2.7 0 1 28.74 239.69
  L 27.09 235.70
  A 0.68 0.68 0.0 0 1 27.93 234.80
  Q 29.33 235.28 30.75 234.37
  Q 32.78 233.53 32.97 231.10
  Q 33.02 230.60 32.52 230.53
  Q 31.33 230.36 30.04 230.86
  L 28.51 230.46
  L 32.19 227.69
  Q 34.99 227.05 36.55 223.37
  C 37.30 221.61 41.77 213.87 39.03 212.98
  L 40.56 209.51
  L 42.25 209.55
  Q 42.65 209.57 42.78 209.19
  Q 43.09 208.28 43.93 207.88
  Q 44.40 207.66 44.76 207.28
  L 47.35 204.52
  L 49.01 202.80
  L 50.99 196.67
  Q 52.59 195.18 53.27 192.76
  Q 53.44 192.17 54.04 192.29
  Q 56.08 192.71 58.10 191.82
  Q 58.12 192.02 58.53 192.17
  C 65.87 192.67 69.03 188.31 74.36 185.41
  A 1.43 1.39 89.1 0 0 74.97 184.76
  C 76.40 181.61 79.94 181.34 79.16 177.45
  L 79.26 176.28
  Q 79.30 175.80 79.59 175.40
  Q 80.79 173.74 80.04 171.28
  C 81.32 168.51 84.96 174.52 85.59 175.51
  C 88.65 180.32 92.21 180.85 96.67 183.43
  A 0.83 0.82 21.9 0 1 97.06 184.33
  Q 96.69 185.82 98.00 185.96
  Q 103.73 186.61 112.11 186.12
  Z"
/>
<path fill="#818075" d="
  M 63.03 176.11
  L 62.84 173.16
  Q 62.82 172.74 63.22 172.87
  C 63.26 172.88 64.88 177.41 65.44 178.14
  Q 65.77 178.56 65.37 178.92
  Q 64.14 180.01 62.50 180.03
  A 0.61 0.61 0.0 0 1 61.94 179.17
  L 62.85 177.13
  Q 63.07 176.64 63.03 176.11
  Z"
/>
<path fill="#818075" d="
  M 76.74 178.08
  L 74.35 179.71
  A 0.90 0.88 70.0 0 0 73.97 180.55
  C 74.07 181.40 74.47 185.12 73.14 185.33
  A 2.99 2.98 83.2 0 1 69.69 182.61
  Q 69.60 181.47 67.48 181.39
  L 66.87 175.00
  Q 66.84 174.73 67.11 174.74
  Q 67.24 174.74 67.39 174.80
  A 0.10 0.09 -85.3 0 1 67.44 174.87
  Q 67.84 177.76 70.36 179.22
  A 0.94 0.93 37.0 0 0 71.49 179.07
  L 74.46 176.09
  Q 74.72 175.83 74.90 176.15
  Q 75.67 177.52 76.74 178.08
  Z"
/>
<path fill="#191a1b" d="
  M 146.22 178.29
  L 146.51 179.08
  Q 147.26 181.11 145.46 179.90
  Q 144.50 179.25 143.73 178.35
  Q 143.25 177.78 143.91 177.45
  L 146.96 175.95
  A 0.73 0.72 12.3 0 1 147.74 177.16
  Q 147.26 177.55 146.59 177.65
  Q 146.02 177.74 146.22 178.29
  Z"
/>
<path fill="#414140" d="
  M 79.16 177.45
  C 79.94 181.34 76.40 181.61 74.97 184.76
  A 1.43 1.39 89.1 0 1 74.36 185.41
  C 69.03 188.31 65.87 192.67 58.53 192.17
  C 60.11 191.77 64.18 191.39 63.71 189.04
  Q 63.62 188.58 64.04 188.40
  Q 66.20 187.44 65.50 185.56
  Q 65.34 185.13 65.78 185.00
  L 67.87 184.41
  Q 68.40 184.26 68.46 183.72
  Q 68.57 182.80 67.48 181.39
  Q 69.60 181.47 69.69 182.61
  A 2.99 2.98 83.2 0 0 73.14 185.33
  C 74.47 185.12 74.07 181.40 73.97 180.55
  A 0.90 0.88 70.0 0 1 74.35 179.71
  L 76.74 178.08
  Q 77.46 178.06 78.30 178.55
  Q 78.79 178.83 78.94 178.29
  L 79.16 177.45
  Z"
/>
<path fill="#9d9e91" d="
  M 113.53 181.15
  L 117.70 180.96
  A 0.42 0.42 0.0 0 1 117.91 181.76
  Q 113.43 184.08 109.47 183.45
  Q 104.97 178.74 113.53 181.15
  Z"
/>
<path fill="#414140" d="
  M 136.98 182.99
  C 142.90 183.33 145.59 185.14 149.90 187.75
  C 152.15 189.12 155.80 190.26 158.38 192.60
  Q 158.75 192.94 159.24 193.00
  L 159.83 193.06
  Q 158.81 193.68 158.51 194.16
  A 1.30 1.30 0.0 0 0 160.35 195.92
  Q 160.52 195.80 160.92 194.82
  C 162.25 196.88 173.94 212.61 170.71 213.88
  C 168.68 210.52 167.44 206.94 164.73 204.24
  C 159.42 198.96 153.44 196.47 147.30 192.97
  C 145.61 192.01 144.27 191.79 142.40 191.53
  Q 141.03 189.63 137.18 188.44
  L 138.27 186.98
  Q 138.63 186.50 138.04 186.36
  L 136.17 185.93
  A 0.16 0.16 0.0 0 1 136.13 185.63
  Q 139.17 183.89 136.98 182.99
  Z
  M 154.53 195.18
  C 153.85 192.69 151.83 191.10 149.23 191.32
  A 0.47 0.47 0.0 0 0 149.02 192.19
  L 154.20 195.42
  Q 154.68 195.73 154.53 195.18
  Z"
/>
<path fill="#191a1b" d="
  M 137.18 188.44
  Q 141.03 189.63 142.40 191.53
  Q 136.78 198.83 134.04 209.28
  C 133.11 212.82 129.44 214.20 127.39 216.32
  Q 121.90 221.99 116.79 228.01
  A 1.22 1.22 0.0 0 0 116.52 228.88
  C 117.04 234.30 120.36 236.41 120.93 240.85
  Q 119.50 238.96 114.45 240.26
  Q 113.85 240.41 113.50 239.92
  Q 112.75 238.90 114.19 238.07
  Q 115.75 237.93 115.97 236.73
  A 0.88 0.88 0.0 0 0 115.60 235.85
  Q 114.07 234.85 114.08 232.94
  A 0.48 0.48 0.0 0 0 113.45 232.49
  Q 112.05 232.96 111.51 234.68
  Q 109.26 235.79 109.75 236.70
  L 104.26 245.00
  L 104.81 241.81
  Q 104.90 241.30 104.59 240.88
  C 103.92 240.00 101.83 234.65 104.20 235.01
  Q 104.24 235.52 104.73 235.81
  A 0.91 0.89 40.0 0 0 105.76 235.73
  L 108.95 233.05
  A 0.38 0.38 0.0 0 0 108.74 232.38
  L 104.24 232.03
  Q 104.50 231.76 103.53 231.69
  L 107.53 229.69
  Q 109.71 230.84 112.61 227.84
  Q 116.63 223.67 127.06 211.73
  Q 130.58 211.96 131.11 207.91
  C 131.71 203.27 135.23 198.68 138.03 195.05
  A 0.73 0.73 0.0 0 0 136.95 194.08
  L 133.94 196.97
  Q 133.65 197.24 133.26 197.26
  Q 131.46 197.37 130.18 200.22
  Q 130.12 199.85 128.92 200.00
  Q 131.17 193.37 131.76 186.48
  Q 134.44 186.47 137.18 188.44
  Z"
/>
<path fill="#414140" d="
  M 112.53 224.32
  L 125.72 209.27
  Q 125.96 210.76 127.06 211.73
  Q 116.63 223.67 112.61 227.84
  Q 109.71 230.84 107.53 229.69
  Q 100.57 218.97 92.33 209.84
  L 88.27 201.94
  A 1.63 1.63 0.0 0 1 89.55 199.57
  C 91.98 199.31 97.43 193.19 99.28 191.33
  A 0.45 0.45 0.0 0 1 100.04 191.76
  C 98.89 196.32 95.20 197.89 92.31 201.13
  Q 92.00 201.48 91.99 201.95
  C 91.97 205.37 94.63 209.11 96.96 211.53
  Q 103.87 218.68 109.63 226.39
  A 1.08 1.07 -55.0 0 0 111.52 226.05
  Q 112.02 224.43 112.53 224.32
  Z"
/>
<path fill="#adb0a8" d="
  M 149.23 191.32
  C 151.83 191.10 153.85 192.69 154.53 195.18
  Q 154.68 195.73 154.20 195.42
  L 149.02 192.19
  A 0.47 0.47 0.0 0 1 149.23 191.32
  Z"
/>
<path fill="#818075" d="
  M 159.83 193.06
  Q 160.74 192.52 160.92 194.82
  Q 160.52 195.80 160.35 195.92
  A 1.30 1.30 0.0 0 1 158.51 194.16
  Q 158.81 193.68 159.83 193.06
  Z"
/>
<path fill="#9d9e91" d="
  M 127.06 211.73
  Q 125.96 210.76 125.72 209.27
  Q 125.80 208.55 126.28 208.22
  C 128.55 208.24 131.42 202.23 130.18 200.22
  Q 131.46 197.37 133.26 197.26
  Q 133.65 197.24 133.94 196.97
  L 136.95 194.08
  A 0.73 0.73 0.0 0 1 138.03 195.05
  C 135.23 198.68 131.71 203.27 131.11 207.91
  Q 130.58 211.96 127.06 211.73
  Z"
/>
<path fill="#9d9e91" d="
  M 47.21 195.28
  Q 48.90 198.48 45.34 201.23
  A 0.49 0.49 0.0 0 1 44.60 200.63
  Q 45.33 199.18 44.12 197.84
  Q 44.85 196.50 47.21 195.28
  Z"
/>
<path fill="#818075" d="
  M 50.99 196.67
  L 49.01 202.80
  Q 47.61 202.49 47.13 201.42
  A 0.99 0.98 48.5 0 1 47.18 200.53
  Q 48.57 198.11 50.99 196.67
  Z"
/>
<path fill="#818075" d="
  M 128.92 200.00
  Q 130.12 199.85 130.18 200.22
  C 131.42 202.23 128.55 208.24 126.28 208.22
  L 128.92 200.00
  Z"
/>
<path fill="#9d9e91" d="
  M 47.35 204.52
  L 44.76 207.28
  Q 44.40 207.66 43.93 207.88
  Q 43.09 208.28 42.78 209.19
  Q 42.65 209.57 42.25 209.55
  L 40.56 209.51
  L 42.51 204.84
  L 47.35 204.52
  Z"
/>
<path fill="#414140" d="
  M 39.03 212.98
  C 41.77 213.87 37.30 221.61 36.55 223.37
  Q 34.99 227.05 32.19 227.69
  L 39.03 212.98
  Z"
/>
<path fill="#818075" d="
  M 178.64 225.31
  L 181.38 225.58
  A 0.56 0.55 14.2 0 1 181.84 226.35
  C 181.54 227.08 179.95 229.12 178.83 228.92
  Q 178.47 228.86 178.58 228.50
  Q 178.69 228.17 178.80 227.86
  Q 178.90 227.56 178.63 227.39
  Q 176.44 225.96 177.04 223.24
  Q 177.14 222.79 176.83 222.44
  Q 176.46 222.03 176.22 222.46
  A 0.59 0.58 -39.0 0 1 175.15 222.35
  Q 174.55 220.41 175.86 219.64
  A 0.66 0.65 -35.3 0 1 176.71 219.78
  L 178.52 221.91
  Q 178.86 222.31 178.71 222.81
  L 178.18 224.63
  Q 178.00 225.25 178.64 225.31
  Z"
/>
<path fill="#414140" d="
  M 188.07 230.22
  Q 188.84 231.88 188.35 233.05
  A 0.90 0.90 0.0 0 1 187.60 233.60
  Q 183.40 233.99 179.27 230.90
  Q 181.41 229.21 183.15 228.93
  Q 183.58 228.86 183.91 228.57
  L 184.88 227.72
  Q 185.39 227.27 185.62 227.91
  Q 186.34 229.99 188.07 230.22
  Z"
/>
<path fill="#414140" d="
  M 28.51 230.46
  L 30.04 230.86
  C 27.38 231.49 29.83 233.70 30.75 234.37
  Q 29.33 235.28 27.93 234.80
  A 0.68 0.68 0.0 0 0 27.09 235.70
  L 28.74 239.69
  A 1.44 1.41 2.7 0 0 29.41 240.41
  C 30.51 240.94 27.14 244.63 26.58 245.38
  C 23.99 242.18 26.09 236.26 26.40 232.43
  Q 26.52 230.94 28.51 230.46
  Z"
/>
<path fill="#818075" d="
  M 30.75 234.37
  C 29.83 233.70 27.38 231.49 30.04 230.86
  Q 31.33 230.36 32.52 230.53
  Q 33.02 230.60 32.97 231.10
  Q 32.78 233.53 30.75 234.37
  Z"
/>
<path fill="#414140" d="
  M 103.53 231.69
  Q 104.50 231.76 104.24 232.03
  L 104.20 235.01
  C 101.83 234.65 103.92 240.00 104.59 240.88
  Q 104.90 241.30 104.81 241.81
  L 104.26 245.00
  Q 103.33 246.56 102.25 246.50
  Q 101.71 246.47 101.46 245.99
  C 99.04 241.41 100.90 235.46 103.53 231.69
  Z"
/>
<path fill="#818075" d="
  M 104.24 232.03
  L 108.74 232.38
  A 0.38 0.38 0.0 0 1 108.95 233.05
  L 105.76 235.73
  A 0.91 0.89 40.0 0 1 104.73 235.81
  Q 104.24 235.52 104.20 235.01
  L 104.24 232.03
  Z"
/>
<path fill="#818075" d="
  M 114.19 238.07
  Q 112.33 237.96 111.51 234.68
  Q 112.05 232.96 113.45 232.49
  A 0.48 0.48 0.0 0 1 114.08 232.94
  Q 114.07 234.85 115.60 235.85
  A 0.88 0.88 0.0 0 1 115.97 236.73
  Q 115.75 237.93 114.19 238.07
  Z"
/>
<path fill="#414140" d="
  M 111.51 234.68
  Q 112.33 237.96 114.19 238.07
  Q 112.75 238.90 113.50 239.92
  Q 113.85 240.41 114.45 240.26
  Q 119.50 238.96 120.93 240.85
  Q 122.09 244.02 120.96 245.03
  A 0.89 0.89 0.0 0 1 120.11 245.23
  Q 113.25 243.20 109.75 236.70
  Q 109.26 235.79 111.51 234.68
  Z"
/>
</svg>
