<?xml version="1.0" encoding="UTF-8" standalone="no"?>
<!DOCTYPE svg PUBLIC "-//W3C//DTD SVG 1.1//EN" "http://www.w3.org/Graphics/SVG/1.1/DTD/svg11.dtd">
<svg xmlns="http://www.w3.org/2000/svg" version="1.1" viewBox="0.00 0.00 906.00 906.00">
<g stroke-width="2.00" fill="none" stroke-linecap="butt">
<path stroke="#cecec8" vector-effect="non-scaling-stroke" d="
  M 169.84 391.73
  Q 170.79 399.57 175.31 405.25"
/>
<path stroke="#8c8d8e" vector-effect="non-scaling-stroke" d="
  M 175.31 405.25
  L 177.09 407.71"
/>
<path stroke="#cecec8" vector-effect="non-scaling-stroke" d="
  M 177.09 407.71
  C 176.66 409.37 179.16 412.48 179.57 414.66"
/>
<path stroke="#8c8d8e" vector-effect="non-scaling-stroke" d="
  M 179.57 414.66
  C 190.86 422.77 199.28 433.67 210.49 442.07
  C 217.69 447.46 224.60 452.36 229.17 459.89
  Q 230.65 462.32 233.17 469.41
  Q 236.89 479.87 243.32 488.95"
/>
<path stroke="#cecec8" vector-effect="non-scaling-stroke" d="
  M 243.32 488.95
  Q 248.46 501.74 250.92 515.39
  C 253.27 528.41 257.20 538.54 264.71 549.20
  C 272.54 560.31 285.73 565.16 291.15 578.38"
/>
<path stroke="#8c8d8e" vector-effect="non-scaling-stroke" d="
  M 291.15 578.38
  Q 299.22 591.65 308.17 604.41
  C 314.38 613.26 318.24 623.37 321.92 633.36
  C 325.72 643.68 331.84 648.22 338.75 655.58"
/>
<path stroke="#cecec8" vector-effect="non-scaling-stroke" d="
  M 338.75 655.58
  L 338.56 660.81"
/>
<path stroke="#8c8d8e" vector-effect="non-scaling-stroke" d="
  M 338.56 660.81
  Q 336.11 664.46 334.48 665.26
  C 316.73 674.03 298.74 684.51 287.18 701.92
  Q 263.88 737.01 238.25 770.42
  C 231.30 779.48 226.31 790.09 220.12 799.24
  C 212.33 810.75 204.83 821.07 198.41 834.55
  C 196.71 838.11 197.82 841.95 201.95 842.41
  C 212.28 843.58 221.72 839.45 230.02 832.72
  C 232.53 830.69 235.34 830.45 238.27 829.17
  Q 238.76 828.96 238.94 828.46
  Q 243.72 815.56 251.82 804.47
  C 252.28 803.83 252.79 802.03 252.83 801.27
  C 253.77 786.35 260.36 775.04 267.64 761.73
  Q 273.75 750.57 278.12 744.74
  C 295.89 721.06 322.47 707.75 348.21 694.73
  C 353.96 691.82 364.93 686.52 369.66 693.56
  Q 383.84 714.66 392.35 740.55
  C 394.52 747.17 396.62 756.28 400.36 761.60
  C 405.73 769.24 414.48 773.13 420.84 779.72
  Q 440.88 800.49 459.56 822.50
  C 460.21 823.27 460.33 824.06 460.24 825.00
  C 458.51 843.72 444.06 859.30 442.40 879.48
  C 441.96 884.84 445.70 885.49 449.81 883.97
  C 461.97 879.49 478.25 870.04 482.01 856.57
  A 1.84 1.84 0.0 0 1 484.76 855.50
  Q 485.35 855.87 485.97 856.76
  Q 496.24 871.63 506.37 886.62
  C 511.72 894.53 516.28 885.91 517.41 881.18
  C 521.77 862.88 516.73 838.33 497.48 830.51
  C 494.09 829.14 492.77 827.53 495.13 824.14
  Q 518.79 790.19 543.01 761.95
  Q 546.63 757.73 551.32 753.90
  C 560.21 746.62 566.60 741.22 572.39 732.88
  C 576.53 726.91 574.05 722.88 569.30 718.04
  Q 550.25 698.61 541.44 672.65
  Q 540.03 668.48 543.44 666.90
  Q 550.19 663.76 560.58 660.57
  C 575.36 656.02 586.87 656.21 597.88 667.39
  Q 602.06 671.63 615.66 683.58
  C 623.31 690.29 629.86 694.39 639.56 696.44
  Q 648.49 698.32 656.96 703.29
  Q 694.43 725.26 715.49 762.60
  C 725.90 781.05 733.54 800.39 741.49 819.95
  C 748.58 837.39 758.21 853.17 769.06 868.28
  C 774.02 875.19 779.00 880.14 785.73 884.46
  A 2.06 2.06 0.0 0 0 788.50 883.94
  C 793.13 877.66 792.78 868.40 791.67 861.12
  Q 789.87 849.28 787.83 837.48
  Q 787.33 834.55 785.04 833.17
  C 754.12 814.64 749.69 780.80 734.95 751.42
  Q 730.45 742.44 729.74 739.26
  Q 727.20 727.85 724.32 716.51
  C 724.19 715.98 724.25 715.20 724.25 714.64
  A 1.88 1.84 -59.6 0 0 724.03 713.76
  Q 721.01 708.33 718.58 706.90
  C 691.19 690.82 680.16 658.31 678.32 628.26
  C 677.34 612.18 679.79 595.33 678.00 578.66
  Q 677.26 571.80 676.60 564.96"
/>
<path stroke="#cecec8" vector-effect="non-scaling-stroke" d="
  M 676.60 564.96
  C 659.80 529.05 624.96 504.35 586.38 496.76
  Q 579.24 495.36 566.50 494.83
  C 536.70 493.59 510.38 491.18 471.79 487.81
  C 454.31 486.28 444.67 476.49 429.19 470.66
  C 413.78 464.85 399.39 465.07 383.05 467.02
  C 366.55 469.00 346.30 442.70 339.38 430.31
  Q 336.56 425.25 333.78 419.79"
/>
<path stroke="#8c8d8e" vector-effect="non-scaling-stroke" d="
  M 333.78 419.79
  L 326.49 398.02"
/>
<path stroke="#cecec8" vector-effect="non-scaling-stroke" d="
  M 326.49 398.02
  C 329.08 387.33 338.18 382.75 346.80 377.41
  C 351.02 374.80 351.85 372.99 353.23 368.49
  C 358.19 352.33 362.60 337.94 361.88 322.32
  C 361.57 315.53 355.68 313.38 351.21 318.46
  Q 339.21 332.06 327.38 345.82
  C 323.38 350.46 317.75 350.92 317.16 342.92"
/>
<path stroke="#8c8d8e" vector-effect="non-scaling-stroke" d="
  M 317.16 342.92
  C 319.13 337.98 320.91 333.45 324.55 329.31
  C 365.54 282.73 404.66 234.84 428.53 177.05
  Q 438.64 152.57 442.13 125.40
  C 444.08 110.26 444.02 93.68 443.82 77.94
  Q 443.72 70.18 442.48 62.25
  A 0.94 0.93 41.8 0 0 440.62 62.35
  Q 439.47 89.45 436.05 116.97
  Q 435.17 124.06 432.74 133.01
  C 425.14 160.89 413.41 186.66 397.09 210.21
  Q 380.45 234.22 361.39 256.40
  Q 326.05 297.52 290.16 338.16
  C 281.99 347.40 284.04 328.07 284.64 325.72
  C 294.78 286.17 306.12 246.95 309.23 205.28
  C 312.41 162.56 315.46 120.90 330.98 81.00
  C 336.33 67.27 345.44 55.06 352.17 41.94
  A 0.99 0.99 0.0 0 0 351.50 40.52
  C 348.02 39.77 333.68 62.44 332.27 65.05
  Q 322.96 82.29 315.16 103.46
  C 311.24 114.09 309.20 119.16 307.61 127.82
  Q 303.47 150.30 301.43 164.28
  C 296.33 199.15 291.55 233.68 281.85 267.66
  C 276.88 285.07 273.02 300.21 268.85 316.57
  C 266.34 326.43 262.92 335.48 259.38 344.65
  A 3.11 3.10 -81.9 0 1 256.76 346.62
  C 245.83 347.60 239.68 354.52 232.11 361.62
  C 224.75 368.52 201.12 360.90 190.32 362.57
  C 176.65 364.69 166.70 377.53 169.84 391.73"
/>
<path stroke="#5b5c57" vector-effect="non-scaling-stroke" d="
  M 317.16 342.92
  Q 310.16 346.26 306.78 354.76
  Q 305.80 357.23 307.34 358.74
  Q 307.70 359.09 307.73 359.59
  C 308.27 369.23 309.15 375.08 315.46 382.54
  C 319.56 387.39 311.64 389.36 309.86 392.91
  Q 308.64 395.32 308.63 398.10
  A 0.96 0.96 0.0 0 1 307.23 398.96
  Q 297.24 393.83 292.97 403.75
  A 1.35 1.35 0.0 0 0 293.83 405.58
  L 310.03 410.41
  Q 312.11 411.03 313.73 409.57
  L 326.49 398.02"
/>
<path stroke="#5b5c57" vector-effect="non-scaling-stroke" d="
  M 333.78 419.79
  C 329.09 420.17 324.28 418.43 324.56 413.30
  Q 324.65 411.66 324.78 410.00
  Q 324.82 409.47 324.45 409.10
  Q 323.22 407.88 321.62 408.47
  Q 321.15 408.64 320.88 409.06
  C 316.16 416.44 308.08 413.41 301.37 416.72
  Q 295.73 419.51 293.10 425.16
  A 1.69 1.68 -70.4 0 1 291.15 426.09
  Q 283.08 424.06 275.31 423.95
  C 263.66 423.78 252.51 417.77 242.59 412.19
  A 2.46 2.46 0.0 0 0 239.80 412.44
  C 237.02 414.79 230.12 411.97 226.76 411.21
  C 221.00 409.92 224.70 420.97 224.77 424.14
  A 1.32 1.29 -20.4 0 1 224.27 425.20
  L 216.82 431.08
  Q 216.35 431.45 216.82 431.83
  Q 226.58 439.89 237.27 446.63
  Q 247.37 453.00 251.35 454.57
  C 259.36 457.73 267.75 457.30 276.18 455.94
  A 0.41 0.41 0.0 0 1 276.48 456.67
  C 275.29 457.55 274.20 458.86 273.04 459.61
  C 259.26 468.57 248.02 474.48 243.32 488.95"
/>
<path stroke="#5b5c57" vector-effect="non-scaling-stroke" d="
  M 179.57 414.66
  Q 186.81 414.00 194.07 413.13
  Q 199.37 412.49 201.95 415.73
  Q 202.32 416.21 201.80 416.51
  L 197.14 419.29
  A 1.45 1.45 0.0 0 0 197.45 421.92
  Q 209.25 425.53 216.02 415.62
  A 1.30 1.28 -35.3 0 0 216.21 414.56
  L 213.03 402.56
  A 1.64 1.64 0.0 0 1 214.29 400.53
  Q 218.30 399.72 221.88 401.71
  Q 222.38 401.99 222.93 401.88
  Q 224.76 401.54 224.99 399.81
  Q 225.05 399.34 224.78 398.94
  C 221.79 394.60 215.96 394.19 211.37 392.85
  C 207.49 391.73 206.46 385.23 201.14 388.97
  C 198.61 390.75 192.97 396.06 190.29 396.53
  Q 189.78 396.63 189.35 396.32
  C 182.71 391.64 178.52 388.51 169.84 391.73"
/>
<path stroke="#5b5c57" vector-effect="non-scaling-stroke" d="
  M 177.09 407.71
  C 180.28 412.34 191.25 406.40 194.00 403.67
  Q 194.35 403.33 194.07 402.93
  Q 192.27 400.37 189.67 401.12
  Q 182.46 403.21 175.31 405.25"
/>
<path stroke="#5b5c57" vector-effect="non-scaling-stroke" d="
  M 676.60 564.96
  Q 670.87 569.42 672.05 576.23
  C 674.75 591.95 673.14 607.35 670.71 623.70
  C 669.42 632.36 670.02 641.49 669.97 650.25
  C 669.95 653.79 669.43 656.75 668.12 659.76
  A 1.59 1.59 0.0 0 0 668.75 661.76
  Q 674.89 665.50 672.78 672.54
  A 2.10 2.10 0.0 0 0 674.88 675.24
  C 677.41 675.14 687.22 672.89 683.77 679.56
  C 679.57 687.69 671.25 692.90 662.31 689.50
  C 656.83 687.42 652.51 685.45 652.02 679.28
  Q 651.98 678.76 651.57 678.44
  C 647.89 675.48 643.71 672.73 646.28 667.48
  A 1.28 1.28 0.0 0 0 645.50 665.69
  Q 641.19 664.37 636.96 662.95
  A 2.46 2.46 0.0 0 1 635.31 660.29
  L 636.03 655.02
  A 0.90 0.90 0.0 0 0 635.35 654.02
  C 632.44 653.30 625.49 664.14 624.23 666.31
  A 1.95 1.94 -67.4 0 1 622.03 667.22
  C 615.45 665.40 613.48 660.51 614.82 654.24
  C 616.38 646.96 610.56 642.49 604.01 640.99
  C 602.23 640.58 600.57 641.09 599.26 642.19
  A 1.47 1.47 0.0 0 1 596.85 641.11
  Q 596.53 632.78 592.38 625.57
  Q 592.09 625.07 592.13 624.49
  Q 592.35 620.90 593.17 612.25
  C 593.54 608.40 592.78 580.22 588.29 577.26
  A 1.71 1.70 26.8 0 0 585.75 578.09
  Q 580.96 591.06 576.15 604.67
  C 574.47 609.44 568.35 607.60 569.63 614.01
  A 1.55 1.54 -14.5 0 1 568.58 615.78
  L 557.39 619.36
  A 2.42 2.40 56.4 0 1 555.10 618.89
  Q 552.36 616.55 549.10 617.12
  C 539.57 618.77 539.67 636.72 533.87 637.13
  Q 525.46 637.71 518.83 642.89
  A 0.89 0.89 0.0 0 1 517.41 642.36
  C 517.03 640.44 516.10 632.87 511.97 636.85
  Q 510.58 638.20 509.86 640.14
  Q 509.65 640.70 510.04 641.15
  L 515.06 647.09
  Q 515.55 647.66 514.99 648.18
  Q 514.12 648.98 512.56 650.03
  Q 484.76 668.66 454.87 653.39
  A 1.18 1.18 0.0 0 1 455.49 651.17
  L 469.45 652.14
  Q 470.05 652.18 470.45 651.73
  C 472.14 649.84 473.28 647.36 475.03 645.93
  C 478.23 643.29 483.00 641.52 487.06 643.36
  Q 491.88 645.56 497.23 645.68
  C 500.99 645.76 502.23 641.17 498.74 640.24
  Q 495.73 639.44 493.72 638.73
  Q 491.73 638.03 492.33 636.00
  L 497.76 617.71
  A 0.90 0.90 0.0 0 0 496.46 616.67
  C 494.10 618.01 484.55 621.70 483.47 617.30
  C 481.91 610.94 486.20 612.11 489.97 610.15
  A 0.78 0.77 -41.2 0 0 490.06 608.83
  C 486.22 606.12 479.65 602.89 488.50 599.53
  A 1.05 1.05 0.0 0 0 488.78 597.72
  Q 483.81 593.78 482.10 587.75
  A 1.85 1.85 0.0 0 0 478.64 587.48
  C 477.45 590.06 477.50 593.68 473.43 593.38
  A 1.39 1.39 0.0 0 1 472.15 592.10
  Q 470.99 577.34 470.13 563.45
  C 470.02 561.78 469.13 560.76 467.39 561.15
  A 1.28 1.26 -86.6 0 0 466.45 562.00
  L 462.43 574.61
  A 2.18 2.18 0.0 0 1 460.03 576.09
  Q 458.46 575.85 456.28 575.31
  C 448.60 573.40 447.70 589.75 445.95 593.73
  Q 436.52 615.11 426.79 637.01
  A 1.03 0.99 62.4 0 0 426.69 637.35
  Q 426.32 639.79 428.46 639.26
  C 434.39 637.79 436.84 634.17 438.99 628.69
  A 1.32 1.32 0.0 0 1 441.54 629.28
  C 440.72 639.77 431.26 641.36 425.21 648.21
  Q 417.62 656.80 413.06 667.39"
/>
<path stroke="#cecec8" vector-effect="non-scaling-stroke" d="
  M 413.06 667.39
  L 404.65 670.74"
/>
<path stroke="#5b5c57" vector-effect="non-scaling-stroke" d="
  M 404.65 670.74
  Q 395.38 671.41 387.24 676.20
  C 383.42 678.45 381.95 674.03 380.32 671.33
  A 0.79 0.79 0.0 0 1 381.07 670.13
  Q 385.65 670.54 389.28 667.94
  A 0.70 0.70 0.0 0 0 389.06 666.70
  C 385.78 665.81 381.80 665.37 382.03 660.82
  Q 382.05 660.29 382.51 660.01
  C 385.50 658.19 392.85 657.68 396.32 656.92
  Q 397.92 656.56 397.99 654.93
  L 398.54 642.11
  A 1.73 1.71 -71.0 0 0 397.83 640.64
  Q 392.26 636.61 386.80 632.41
  C 383.22 629.65 384.30 626.27 384.52 622.61
  Q 384.55 622.11 384.19 621.77
  Q 377.21 615.22 367.48 615.26
  Q 364.95 615.27 364.13 613.07
  Q 359.92 601.75 355.55 592.54
  C 351.33 583.66 359.14 568.35 362.46 559.50
  C 364.47 554.12 368.55 549.41 369.24 543.72
  A 1.42 1.42 0.0 0 0 366.58 542.87
  C 362.73 549.84 355.75 562.75 348.77 566.49
  Q 348.31 566.74 347.83 566.50
  C 340.10 562.60 338.45 566.90 336.51 573.24
  Q 332.47 586.43 328.62 599.67
  Q 328.11 601.39 328.11 602.87
  Q 328.11 603.41 328.46 603.82
  Q 338.13 615.26 343.39 629.30
  A 0.72 0.72 0.0 0 0 344.18 629.75
  Q 345.61 629.51 346.49 628.36
  A 1.72 1.71 30.6 0 1 348.55 627.84
  Q 362.49 634.13 372.69 645.53
  Q 373.96 646.94 372.19 647.64
  L 338.56 660.81"
/>
<path stroke="#5b5c57" vector-effect="non-scaling-stroke" d="
  M 338.75 655.58
  Q 341.33 655.33 342.79 653.22
  Q 343.11 652.77 342.67 652.43
  C 332.72 644.71 327.67 638.77 328.87 624.65
  A 1.02 1.01 -66.9 0 0 328.53 623.79
  C 325.41 621.07 313.94 609.56 316.96 605.20
  Q 322.02 597.91 322.60 589.09
  C 322.71 587.39 329.64 566.21 323.14 568.36
  A 1.55 1.55 0.0 0 0 322.11 569.54
  Q 321.43 573.11 319.03 575.85
  Q 318.66 576.27 318.64 576.83
  Q 318.31 584.53 317.59 592.17
  C 317.12 597.18 313.73 599.57 309.68 595.36
  Q 302.25 587.64 298.97 577.60
  A 1.19 1.18 -15.8 0 0 297.57 576.82
  L 291.15 578.38"
/>
<path stroke="#8c8d8e" vector-effect="non-scaling-stroke" d="
  M 404.65 670.74
  C 408.14 688.25 411.09 706.30 415.95 723.13
  C 418.66 732.50 421.39 742.10 425.28 750.58
  Q 426.73 753.73 429.28 756.64
  Q 451.49 782.00 473.96 807.59
  A 0.98 0.97 46.4 0 0 475.39 807.63
  Q 508.29 773.62 532.76 733.13
  A 2.30 2.29 51.3 0 0 532.97 731.21
  Q 529.83 722.00 523.11 714.39
  C 509.52 699.02 493.23 686.07 478.19 672.13
  C 475.53 669.66 473.20 668.21 469.75 668.49
  Q 451.74 669.99 435.76 669.42
  C 428.70 669.16 420.63 668.09 413.06 667.39"
/>
<path stroke="#5b5c57" vector-effect="non-scaling-stroke" d="
  M 286.82 364.92
  Q 278.92 359.56 271.39 361.30
  C 263.35 363.15 259.03 369.84 262.49 377.95
  A 0.94 0.94 0.0 0 0 264.03 378.23
  C 270.71 371.17 276.93 368.83 286.45 366.83
  A 1.06 1.06 0.0 0 0 286.82 364.92"
/>
<path stroke="#5b5c57" vector-effect="non-scaling-stroke" d="
  M 282.5910 379.8781
  A 3.59 2.05 10.4 0 0 279.4301 377.2137
  A 3.59 2.05 10.4 0 0 275.5290 378.5819
  A 3.59 2.05 10.4 0 0 278.6899 381.2463
  A 3.59 2.05 10.4 0 0 282.5910 379.8781"
/>
<path stroke="#5b5c57" vector-effect="non-scaling-stroke" d="
  M 339.60 368.01
  L 342.82 368.80
  A 1.52 1.52 0.0 0 0 344.47 368.13
  Q 349.19 360.51 348.77 352.07
  C 348.41 344.96 349.56 339.95 353.36 334.03
  Q 353.71 333.48 353.21 333.05
  L 351.71 331.77
  Q 350.99 331.17 350.45 331.93
  Q 337.73 350.08 334.40 372.08
  A 1.10 1.10 0.0 0 0 336.22 373.06
  Q 338.30 371.22 338.88 368.45
  Q 339.01 367.86 339.60 368.01"
/>
<path stroke="#5b5c57" vector-effect="non-scaling-stroke" d="
  M 184.5463 397.6862
  A 4.58 1.87 -2.3 0 0 179.8950 396.0015
  A 4.58 1.87 -2.3 0 0 175.3937 398.0538
  A 4.58 1.87 -2.3 0 0 180.0450 399.7385
  A 4.58 1.87 -2.3 0 0 184.5463 397.6862"
/>
<path stroke="#5b5c57" vector-effect="non-scaling-stroke" d="
  M 352.28 640.22
  L 350.43 645.98
  A 2.01 1.72 -76.5 0 0 351.73 648.53
  C 353.85 648.82 360.19 642.45 361.66 640.71
  A 1.42 1.41 -54.5 0 0 361.31 638.58
  Q 355.76 635.26 349.38 632.57
  C 347.84 631.92 346.88 632.32 346.02 633.61
  C 343.79 636.97 350.04 638.70 351.88 639.40
  Q 352.47 639.63 352.28 640.22"
/>
<path stroke="#5b5c57" vector-effect="non-scaling-stroke" d="
  M 222.39 815.77
  C 224.47 819.87 228.38 824.69 233.00 825.40
  A 1.37 1.36 75.4 0 0 234.28 823.21
  Q 233.44 822.13 233.48 820.78
  Q 233.50 820.28 233.91 820.00
  Q 242.02 814.39 239.93 804.24
  Q 239.64 802.83 241.34 801.37
  Q 241.66 801.10 242.00 801.34
  L 244.14 802.86
  A 0.99 0.99 0.0 0 0 245.08 802.97
  C 249.65 801.18 247.39 793.72 243.62 791.38
  A 1.61 1.60 35.8 0 0 241.54 791.71
  L 233.68 801.12
  Q 233.28 801.60 233.46 802.20
  L 235.80 810.06
  A 1.61 1.61 0.0 0 1 234.44 812.11
  L 223.70 813.33
  A 1.69 1.68 73.3 0 0 222.39 815.77"
/>
<path stroke="#5b5c57" vector-effect="non-scaling-stroke" d="
  M 774.44 844.36
  L 779.32 837.57
  A 1.94 1.94 0.0 0 0 778.87 834.86
  L 778.67 834.71
  A 13.07 6.05 35.7 0 0 764.52 832.00
  L 764.44 832.11
  A 13.07 6.05 35.7 0 0 771.53 844.65
  L 771.73 844.80
  A 1.94 1.94 0.0 0 0 774.44 844.36"
/>
<path stroke="#5b5c57" vector-effect="non-scaling-stroke" d="
  M 489.03 841.45
  C 492.98 844.52 496.60 847.94 500.44 850.94
  A 2.27 2.26 34.0 0 0 503.79 850.29
  C 505.84 846.76 504.52 843.00 504.98 839.06
  A 2.33 2.32 -88.9 0 0 502.50 836.47
  L 488.98 837.47
  A 1.65 1.65 0.0 0 0 487.65 839.90
  Q 488.11 840.73 489.03 841.45"
/>
<path stroke="#5b5c57" vector-effect="non-scaling-stroke" d="
  M 462.41 852.96
  C 461.28 856.91 465.74 859.27 469.04 858.50
  C 479.08 856.14 482.10 841.70 470.70 838.35
  Q 470.14 838.19 469.88 838.71
  Q 468.43 841.61 468.42 844.87
  A 1.33 1.32 66.5 0 1 468.07 845.77
  C 466.25 847.80 463.06 850.69 462.41 852.96"
/>
</g>
<!-- <path fill="#ffffff" d="
  M 0.00 0.00
  L 906.00 0.00
  L 906.00 906.00
  L 0.00 906.00
  L 0.00 0.00
  Z
  M 169.84 391.73
  Q 170.79 399.57 175.31 405.25
  L 177.09 407.71
  C 176.66 409.37 179.16 412.48 179.57 414.66
  C 190.86 422.77 199.28 433.67 210.49 442.07
  C 217.69 447.46 224.60 452.36 229.17 459.89
  Q 230.65 462.32 233.17 469.41
  Q 236.89 479.87 243.32 488.95
  Q 248.46 501.74 250.92 515.39
  C 253.27 528.41 257.20 538.54 264.71 549.20
  C 272.54 560.31 285.73 565.16 291.15 578.38
  Q 299.22 591.65 308.17 604.41
  C 314.38 613.26 318.24 623.37 321.92 633.36
  C 325.72 643.68 331.84 648.22 338.75 655.58
  L 338.56 660.81
  Q 336.11 664.46 334.48 665.26
  C 316.73 674.03 298.74 684.51 287.18 701.92
  Q 263.88 737.01 238.25 770.42
  C 231.30 779.48 226.31 790.09 220.12 799.24
  C 212.33 810.75 204.83 821.07 198.41 834.55
  C 196.71 838.11 197.82 841.95 201.95 842.41
  C 212.28 843.58 221.72 839.45 230.02 832.72
  C 232.53 830.69 235.34 830.45 238.27 829.17
  Q 238.76 828.96 238.94 828.46
  Q 243.72 815.56 251.82 804.47
  C 252.28 803.83 252.79 802.03 252.83 801.27
  C 253.77 786.35 260.36 775.04 267.64 761.73
  Q 273.75 750.57 278.12 744.74
  C 295.89 721.06 322.47 707.75 348.21 694.73
  C 353.96 691.82 364.93 686.52 369.66 693.56
  Q 383.84 714.66 392.35 740.55
  C 394.52 747.17 396.62 756.28 400.36 761.60
  C 405.73 769.24 414.48 773.13 420.84 779.72
  Q 440.88 800.49 459.56 822.50
  C 460.21 823.27 460.33 824.06 460.24 825.00
  C 458.51 843.72 444.06 859.30 442.40 879.48
  C 441.96 884.84 445.70 885.49 449.81 883.97
  C 461.97 879.49 478.25 870.04 482.01 856.57
  A 1.84 1.84 0.0 0 1 484.76 855.50
  Q 485.35 855.87 485.97 856.76
  Q 496.24 871.63 506.37 886.62
  C 511.72 894.53 516.28 885.91 517.41 881.18
  C 521.77 862.88 516.73 838.33 497.48 830.51
  C 494.09 829.14 492.77 827.53 495.13 824.14
  Q 518.79 790.19 543.01 761.95
  Q 546.63 757.73 551.32 753.90
  C 560.21 746.62 566.60 741.22 572.39 732.88
  C 576.53 726.91 574.05 722.88 569.30 718.04
  Q 550.25 698.61 541.44 672.65
  Q 540.03 668.48 543.44 666.90
  Q 550.19 663.76 560.58 660.57
  C 575.36 656.02 586.87 656.21 597.88 667.39
  Q 602.06 671.63 615.66 683.58
  C 623.31 690.29 629.86 694.39 639.56 696.44
  Q 648.49 698.32 656.96 703.29
  Q 694.43 725.26 715.49 762.60
  C 725.90 781.05 733.54 800.39 741.49 819.95
  C 748.58 837.39 758.21 853.17 769.06 868.28
  C 774.02 875.19 779.00 880.14 785.73 884.46
  A 2.06 2.06 0.0 0 0 788.50 883.94
  C 793.13 877.66 792.78 868.40 791.67 861.12
  Q 789.87 849.28 787.83 837.48
  Q 787.33 834.55 785.04 833.17
  C 754.12 814.64 749.69 780.80 734.95 751.42
  Q 730.45 742.44 729.74 739.26
  Q 727.20 727.85 724.32 716.51
  C 724.19 715.98 724.25 715.20 724.25 714.64
  A 1.88 1.84 -59.6 0 0 724.03 713.76
  Q 721.01 708.33 718.58 706.90
  C 691.19 690.82 680.16 658.31 678.32 628.26
  C 677.34 612.18 679.79 595.33 678.00 578.66
  Q 677.26 571.80 676.60 564.96
  C 659.80 529.05 624.96 504.35 586.38 496.76
  Q 579.24 495.36 566.50 494.83
  C 536.70 493.59 510.38 491.18 471.79 487.81
  C 454.31 486.28 444.67 476.49 429.19 470.66
  C 413.78 464.85 399.39 465.07 383.05 467.02
  C 366.55 469.00 346.30 442.70 339.38 430.31
  Q 336.56 425.25 333.78 419.79
  L 326.49 398.02
  C 329.08 387.33 338.18 382.75 346.80 377.41
  C 351.02 374.80 351.85 372.99 353.23 368.49
  C 358.19 352.33 362.60 337.94 361.88 322.32
  C 361.57 315.53 355.68 313.38 351.21 318.46
  Q 339.21 332.06 327.38 345.82
  C 323.38 350.46 317.75 350.92 317.16 342.92
  C 319.13 337.98 320.91 333.45 324.55 329.31
  C 365.54 282.73 404.66 234.84 428.53 177.05
  Q 438.64 152.57 442.13 125.40
  C 444.08 110.26 444.02 93.68 443.82 77.94
  Q 443.72 70.18 442.48 62.25
  A 0.94 0.93 41.8 0 0 440.62 62.35
  Q 439.47 89.45 436.05 116.97
  Q 435.17 124.06 432.74 133.01
  C 425.14 160.89 413.41 186.66 397.09 210.21
  Q 380.45 234.22 361.39 256.40
  Q 326.05 297.52 290.16 338.16
  C 281.99 347.40 284.04 328.07 284.64 325.72
  C 294.78 286.17 306.12 246.95 309.23 205.28
  C 312.41 162.56 315.46 120.90 330.98 81.00
  C 336.33 67.27 345.44 55.06 352.17 41.94
  A 0.99 0.99 0.0 0 0 351.50 40.52
  C 348.02 39.77 333.68 62.44 332.27 65.05
  Q 322.96 82.29 315.16 103.46
  C 311.24 114.09 309.20 119.16 307.61 127.82
  Q 303.47 150.30 301.43 164.28
  C 296.33 199.15 291.55 233.68 281.85 267.66
  C 276.88 285.07 273.02 300.21 268.85 316.57
  C 266.34 326.43 262.92 335.48 259.38 344.65
  A 3.11 3.10 -81.9 0 1 256.76 346.62
  C 245.83 347.60 239.68 354.52 232.11 361.62
  C 224.75 368.52 201.12 360.90 190.32 362.57
  C 176.65 364.69 166.70 377.53 169.84 391.73
  Z"
/> -->
<path fill="#191a1c" d="
  M 317.16 342.92
  Q 310.16 346.26 306.78 354.76
  Q 305.80 357.23 307.34 358.74
  Q 307.70 359.09 307.73 359.59
  C 308.27 369.23 309.15 375.08 315.46 382.54
  C 319.56 387.39 311.64 389.36 309.86 392.91
  Q 308.64 395.32 308.63 398.10
  A 0.96 0.96 0.0 0 1 307.23 398.96
  Q 297.24 393.83 292.97 403.75
  A 1.35 1.35 0.0 0 0 293.83 405.58
  L 310.03 410.41
  Q 312.11 411.03 313.73 409.57
  L 326.49 398.02
  L 333.78 419.79
  C 329.09 420.17 324.28 418.43 324.56 413.30
  Q 324.65 411.66 324.78 410.00
  Q 324.82 409.47 324.45 409.10
  Q 323.22 407.88 321.62 408.47
  Q 321.15 408.64 320.88 409.06
  C 316.16 416.44 308.08 413.41 301.37 416.72
  Q 295.73 419.51 293.10 425.16
  A 1.69 1.68 -70.4 0 1 291.15 426.09
  Q 283.08 424.06 275.31 423.95
  C 263.66 423.78 252.51 417.77 242.59 412.19
  A 2.46 2.46 0.0 0 0 239.80 412.44
  C 237.02 414.79 230.12 411.97 226.76 411.21
  C 221.00 409.92 224.70 420.97 224.77 424.14
  A 1.32 1.29 -20.4 0 1 224.27 425.20
  L 216.82 431.08
  Q 216.35 431.45 216.82 431.83
  Q 226.58 439.89 237.27 446.63
  Q 247.37 453.00 251.35 454.57
  C 259.36 457.73 267.75 457.30 276.18 455.94
  A 0.41 0.41 0.0 0 1 276.48 456.67
  C 275.29 457.55 274.20 458.86 273.04 459.61
  C 259.26 468.57 248.02 474.48 243.32 488.95
  Q 236.89 479.87 233.17 469.41
  Q 230.65 462.32 229.17 459.89
  C 224.60 452.36 217.69 447.46 210.49 442.07
  C 199.28 433.67 190.86 422.77 179.57 414.66
  Q 186.81 414.00 194.07 413.13
  Q 199.37 412.49 201.95 415.73
  Q 202.32 416.21 201.80 416.51
  L 197.14 419.29
  A 1.45 1.45 0.0 0 0 197.45 421.92
  Q 209.25 425.53 216.02 415.62
  A 1.30 1.28 -35.3 0 0 216.21 414.56
  L 213.03 402.56
  A 1.64 1.64 0.0 0 1 214.29 400.53
  Q 218.30 399.72 221.88 401.71
  Q 222.38 401.99 222.93 401.88
  Q 224.76 401.54 224.99 399.81
  Q 225.05 399.34 224.78 398.94
  C 221.79 394.60 215.96 394.19 211.37 392.85
  C 207.49 391.73 206.46 385.23 201.14 388.97
  C 198.61 390.75 192.97 396.06 190.29 396.53
  Q 189.78 396.63 189.35 396.32
  C 182.71 391.64 178.52 388.51 169.84 391.73
  C 166.70 377.53 176.65 364.69 190.32 362.57
  C 201.12 360.90 224.75 368.52 232.11 361.62
  C 239.68 354.52 245.83 347.60 256.76 346.62
  A 3.11 3.10 -81.9 0 0 259.38 344.65
  C 262.92 335.48 266.34 326.43 268.85 316.57
  C 273.02 300.21 276.88 285.07 281.85 267.66
  C 291.55 233.68 296.33 199.15 301.43 164.28
  Q 303.47 150.30 307.61 127.82
  C 309.20 119.16 311.24 114.09 315.16 103.46
  Q 322.96 82.29 332.27 65.05
  C 333.68 62.44 348.02 39.77 351.50 40.52
  A 0.99 0.99 0.0 0 1 352.17 41.94
  C 345.44 55.06 336.33 67.27 330.98 81.00
  C 315.46 120.90 312.41 162.56 309.23 205.28
  C 306.12 246.95 294.78 286.17 284.64 325.72
  C 284.04 328.07 281.99 347.40 290.16 338.16
  Q 326.05 297.52 361.39 256.40
  Q 380.45 234.22 397.09 210.21
  C 413.41 186.66 425.14 160.89 432.74 133.01
  Q 435.17 124.06 436.05 116.97
  Q 439.47 89.45 440.62 62.35
  A 0.94 0.93 41.8 0 1 442.48 62.25
  Q 443.72 70.18 443.82 77.94
  C 444.02 93.68 444.08 110.26 442.13 125.40
  Q 438.64 152.57 428.53 177.05
  C 404.66 234.84 365.54 282.73 324.55 329.31
  C 320.91 333.45 319.13 337.98 317.16 342.92
  Z
  M 286.82 364.92
  Q 278.92 359.56 271.39 361.30
  C 263.35 363.15 259.03 369.84 262.49 377.95
  A 0.94 0.94 0.0 0 0 264.03 378.23
  C 270.71 371.17 276.93 368.83 286.45 366.83
  A 1.06 1.06 0.0 0 0 286.82 364.92
  Z
  M 282.5910 379.8781
  A 3.59 2.05 10.4 0 0 279.4301 377.2137
  A 3.59 2.05 10.4 0 0 275.5290 378.5819
  A 3.59 2.05 10.4 0 0 278.6899 381.2463
  A 3.59 2.05 10.4 0 0 282.5910 379.8781
  Z"
/>
<path fill="#9d9d91" d="
  M 326.49 398.02
  L 313.73 409.57
  Q 312.11 411.03 310.03 410.41
  L 293.83 405.58
  A 1.35 1.35 0.0 0 1 292.97 403.75
  Q 297.24 393.83 307.23 398.96
  A 0.96 0.96 0.0 0 0 308.63 398.10
  Q 308.64 395.32 309.86 392.91
  C 311.64 389.36 319.56 387.39 315.46 382.54
  C 309.15 375.08 308.27 369.23 307.73 359.59
  Q 307.70 359.09 307.34 358.74
  Q 305.80 357.23 306.78 354.76
  Q 310.16 346.26 317.16 342.92
  C 317.75 350.92 323.38 350.46 327.38 345.82
  Q 339.21 332.06 351.21 318.46
  C 355.68 313.38 361.57 315.53 361.88 322.32
  C 362.60 337.94 358.19 352.33 353.23 368.49
  C 351.85 372.99 351.02 374.80 346.80 377.41
  C 338.18 382.75 329.08 387.33 326.49 398.02
  Z
  M 339.60 368.01
  L 342.82 368.80
  A 1.52 1.52 0.0 0 0 344.47 368.13
  Q 349.19 360.51 348.77 352.07
  C 348.41 344.96 349.56 339.95 353.36 334.03
  Q 353.71 333.48 353.21 333.05
  L 351.71 331.77
  Q 350.99 331.17 350.45 331.93
  Q 337.73 350.08 334.40 372.08
  A 1.10 1.10 0.0 0 0 336.22 373.06
  Q 338.30 371.22 338.88 368.45
  Q 339.01 367.86 339.60 368.01
  Z"
/>
<path fill="#191a1c" d="
  M 338.88 368.45
  Q 338.30 371.22 336.22 373.06
  A 1.10 1.10 0.0 0 1 334.40 372.08
  Q 337.73 350.08 350.45 331.93
  Q 350.99 331.17 351.71 331.77
  L 353.21 333.05
  Q 353.71 333.48 353.36 334.03
  C 349.56 339.95 348.41 344.96 348.77 352.07
  Q 349.19 360.51 344.47 368.13
  A 1.52 1.52 0.0 0 1 342.82 368.80
  L 339.60 368.01
  Q 339.01 367.86 338.88 368.45
  Z"
/>
<path fill="#9d9d91" d="
  M 286.82 364.92
  A 1.06 1.06 0.0 0 1 286.45 366.83
  C 276.93 368.83 270.71 371.17 264.03 378.23
  A 0.94 0.94 0.0 0 1 262.49 377.95
  C 259.03 369.84 263.35 363.15 271.39 361.30
  Q 278.92 359.56 286.82 364.92
  Z"
/>
<path fill="#9d9d91" d="
  M 282.5910 379.8781
  A 3.59 2.05 10.4 0 1 278.6899 381.2463
  A 3.59 2.05 10.4 0 1 275.5290 378.5819
  A 3.59 2.05 10.4 0 1 279.4301 377.2137
  A 3.59 2.05 10.4 0 1 282.5910 379.8781
  Z"
/>
<path fill="#9d9d91" d="
  M 179.57 414.66
  C 179.16 412.48 176.66 409.37 177.09 407.71
  C 180.28 412.34 191.25 406.40 194.00 403.67
  Q 194.35 403.33 194.07 402.93
  Q 192.27 400.37 189.67 401.12
  Q 182.46 403.21 175.31 405.25
  Q 170.79 399.57 169.84 391.73
  C 178.52 388.51 182.71 391.64 189.35 396.32
  Q 189.78 396.63 190.29 396.53
  C 192.97 396.06 198.61 390.75 201.14 388.97
  C 206.46 385.23 207.49 391.73 211.37 392.85
  C 215.96 394.19 221.79 394.60 224.78 398.94
  Q 225.05 399.34 224.99 399.81
  Q 224.76 401.54 222.93 401.88
  Q 222.38 401.99 221.88 401.71
  Q 218.30 399.72 214.29 400.53
  A 1.64 1.64 0.0 0 0 213.03 402.56
  L 216.21 414.56
  A 1.30 1.28 -35.3 0 1 216.02 415.62
  Q 209.25 425.53 197.45 421.92
  A 1.45 1.45 0.0 0 1 197.14 419.29
  L 201.80 416.51
  Q 202.32 416.21 201.95 415.73
  Q 199.37 412.49 194.07 413.13
  Q 186.81 414.00 179.57 414.66
  Z
  M 184.5463 397.6862
  A 4.58 1.87 -2.3 0 0 179.8950 396.0015
  A 4.58 1.87 -2.3 0 0 175.3937 398.0538
  A 4.58 1.87 -2.3 0 0 180.0450 399.7385
  A 4.58 1.87 -2.3 0 0 184.5463 397.6862
  Z"
/>
<path fill="#191a1c" d="
  M 184.5463 397.6862
  A 4.58 1.87 -2.3 0 1 180.0450 399.7385
  A 4.58 1.87 -2.3 0 1 175.3937 398.0538
  A 4.58 1.87 -2.3 0 1 179.8950 396.0015
  A 4.58 1.87 -2.3 0 1 184.5463 397.6862
  Z"
/>
<path fill="#191a1c" d="
  M 177.09 407.71
  L 175.31 405.25
  Q 182.46 403.21 189.67 401.12
  Q 192.27 400.37 194.07 402.93
  Q 194.35 403.33 194.00 403.67
  C 191.25 406.40 180.28 412.34 177.09 407.71
  Z"
/>
<path fill="#9d9d91" d="
  M 333.78 419.79
  Q 336.56 425.25 339.38 430.31
  C 346.30 442.70 366.55 469.00 383.05 467.02
  C 399.39 465.07 413.78 464.85 429.19 470.66
  C 444.67 476.49 454.31 486.28 471.79 487.81
  C 510.38 491.18 536.70 493.59 566.50 494.83
  Q 579.24 495.36 586.38 496.76
  C 624.96 504.35 659.80 529.05 676.60 564.96
  Q 670.87 569.42 672.05 576.23
  C 674.75 591.95 673.14 607.35 670.71 623.70
  C 669.42 632.36 670.02 641.49 669.97 650.25
  C 669.95 653.79 669.43 656.75 668.12 659.76
  A 1.59 1.59 0.0 0 0 668.75 661.76
  Q 674.89 665.50 672.78 672.54
  A 2.10 2.10 0.0 0 0 674.88 675.24
  C 677.41 675.14 687.22 672.89 683.77 679.56
  C 679.57 687.69 671.25 692.90 662.31 689.50
  C 656.83 687.42 652.51 685.45 652.02 679.28
  Q 651.98 678.76 651.57 678.44
  C 647.89 675.48 643.71 672.73 646.28 667.48
  A 1.28 1.28 0.0 0 0 645.50 665.69
  Q 641.19 664.37 636.96 662.95
  A 2.46 2.46 0.0 0 1 635.31 660.29
  L 636.03 655.02
  A 0.90 0.90 0.0 0 0 635.35 654.02
  C 632.44 653.30 625.49 664.14 624.23 666.31
  A 1.95 1.94 -67.4 0 1 622.03 667.22
  C 615.45 665.40 613.48 660.51 614.82 654.24
  C 616.38 646.96 610.56 642.49 604.01 640.99
  C 602.23 640.58 600.57 641.09 599.26 642.19
  A 1.47 1.47 0.0 0 1 596.85 641.11
  Q 596.53 632.78 592.38 625.57
  Q 592.09 625.07 592.13 624.49
  Q 592.35 620.90 593.17 612.25
  C 593.54 608.40 592.78 580.22 588.29 577.26
  A 1.71 1.70 26.8 0 0 585.75 578.09
  Q 580.96 591.06 576.15 604.67
  C 574.47 609.44 568.35 607.60 569.63 614.01
  A 1.55 1.54 -14.5 0 1 568.58 615.78
  L 557.39 619.36
  A 2.42 2.40 56.4 0 1 555.10 618.89
  Q 552.36 616.55 549.10 617.12
  C 539.57 618.77 539.67 636.72 533.87 637.13
  Q 525.46 637.71 518.83 642.89
  A 0.89 0.89 0.0 0 1 517.41 642.36
  C 517.03 640.44 516.10 632.87 511.97 636.85
  Q 510.58 638.20 509.86 640.14
  Q 509.65 640.70 510.04 641.15
  L 515.06 647.09
  Q 515.55 647.66 514.99 648.18
  Q 514.12 648.98 512.56 650.03
  Q 484.76 668.66 454.87 653.39
  A 1.18 1.18 0.0 0 1 455.49 651.17
  L 469.45 652.14
  Q 470.05 652.18 470.45 651.73
  C 472.14 649.84 473.28 647.36 475.03 645.93
  C 478.23 643.29 483.00 641.52 487.06 643.36
  Q 491.88 645.56 497.23 645.68
  C 500.99 645.76 502.23 641.17 498.74 640.24
  Q 495.73 639.44 493.72 638.73
  Q 491.73 638.03 492.33 636.00
  L 497.76 617.71
  A 0.90 0.90 0.0 0 0 496.46 616.67
  C 494.10 618.01 484.55 621.70 483.47 617.30
  C 481.91 610.94 486.20 612.11 489.97 610.15
  A 0.78 0.77 -41.2 0 0 490.06 608.83
  C 486.22 606.12 479.65 602.89 488.50 599.53
  A 1.05 1.05 0.0 0 0 488.78 597.72
  Q 483.81 593.78 482.10 587.75
  A 1.85 1.85 0.0 0 0 478.64 587.48
  C 477.45 590.06 477.50 593.68 473.43 593.38
  A 1.39 1.39 0.0 0 1 472.15 592.10
  Q 470.99 577.34 470.13 563.45
  C 470.02 561.78 469.13 560.76 467.39 561.15
  A 1.28 1.26 -86.6 0 0 466.45 562.00
  L 462.43 574.61
  A 2.18 2.18 0.0 0 1 460.03 576.09
  Q 458.46 575.85 456.28 575.31
  C 448.60 573.40 447.70 589.75 445.95 593.73
  Q 436.52 615.11 426.79 637.01
  A 1.03 0.99 62.4 0 0 426.69 637.35
  Q 426.32 639.79 428.46 639.26
  C 434.39 637.79 436.84 634.17 438.99 628.69
  A 1.32 1.32 0.0 0 1 441.54 629.28
  C 440.72 639.77 431.26 641.36 425.21 648.21
  Q 417.62 656.80 413.06 667.39
  L 404.65 670.74
  Q 395.38 671.41 387.24 676.20
  C 383.42 678.45 381.95 674.03 380.32 671.33
  A 0.79 0.79 0.0 0 1 381.07 670.13
  Q 385.65 670.54 389.28 667.94
  A 0.70 0.70 0.0 0 0 389.06 666.70
  C 385.78 665.81 381.80 665.37 382.03 660.82
  Q 382.05 660.29 382.51 660.01
  C 385.50 658.19 392.85 657.68 396.32 656.92
  Q 397.92 656.56 397.99 654.93
  L 398.54 642.11
  A 1.73 1.71 -71.0 0 0 397.83 640.64
  Q 392.26 636.61 386.80 632.41
  C 383.22 629.65 384.30 626.27 384.52 622.61
  Q 384.55 622.11 384.19 621.77
  Q 377.21 615.22 367.48 615.26
  Q 364.95 615.27 364.13 613.07
  Q 359.92 601.75 355.55 592.54
  C 351.33 583.66 359.14 568.35 362.46 559.50
  C 364.47 554.12 368.55 549.41 369.24 543.72
  A 1.42 1.42 0.0 0 0 366.58 542.87
  C 362.73 549.84 355.75 562.75 348.77 566.49
  Q 348.31 566.74 347.83 566.50
  C 340.10 562.60 338.45 566.90 336.51 573.24
  Q 332.47 586.43 328.62 599.67
  Q 328.11 601.39 328.11 602.87
  Q 328.11 603.41 328.46 603.82
  Q 338.13 615.26 343.39 629.30
  A 0.72 0.72 0.0 0 0 344.18 629.75
  Q 345.61 629.51 346.49 628.36
  A 1.72 1.71 30.6 0 1 348.55 627.84
  Q 362.49 634.13 372.69 645.53
  Q 373.96 646.94 372.19 647.64
  L 338.56 660.81
  L 338.75 655.58
  Q 341.33 655.33 342.79 653.22
  Q 343.11 652.77 342.67 652.43
  C 332.72 644.71 327.67 638.77 328.87 624.65
  A 1.02 1.01 -66.9 0 0 328.53 623.79
  C 325.41 621.07 313.94 609.56 316.96 605.20
  Q 322.02 597.91 322.60 589.09
  C 322.71 587.39 329.64 566.21 323.14 568.36
  A 1.55 1.55 0.0 0 0 322.11 569.54
  Q 321.43 573.11 319.03 575.85
  Q 318.66 576.27 318.64 576.83
  Q 318.31 584.53 317.59 592.17
  C 317.12 597.18 313.73 599.57 309.68 595.36
  Q 302.25 587.64 298.97 577.60
  A 1.19 1.18 -15.8 0 0 297.57 576.82
  L 291.15 578.38
  C 285.73 565.16 272.54 560.31 264.71 549.20
  C 257.20 538.54 253.27 528.41 250.92 515.39
  Q 248.46 501.74 243.32 488.95
  C 248.02 474.48 259.26 468.57 273.04 459.61
  C 274.20 458.86 275.29 457.55 276.48 456.67
  A 0.41 0.41 0.0 0 0 276.18 455.94
  C 267.75 457.30 259.36 457.73 251.35 454.57
  Q 247.37 453.00 237.27 446.63
  Q 226.58 439.89 216.82 431.83
  Q 216.35 431.45 216.82 431.08
  L 224.27 425.20
  A 1.32 1.29 -20.4 0 0 224.77 424.14
  C 224.70 420.97 221.00 409.92 226.76 411.21
  C 230.12 411.97 237.02 414.79 239.80 412.44
  A 2.46 2.46 0.0 0 1 242.59 412.19
  C 252.51 417.77 263.66 423.78 275.31 423.95
  Q 283.08 424.06 291.15 426.09
  A 1.69 1.68 -70.4 0 0 293.10 425.16
  Q 295.73 419.51 301.37 416.72
  C 308.08 413.41 316.16 416.44 320.88 409.06
  Q 321.15 408.64 321.62 408.47
  Q 323.22 407.88 324.45 409.10
  Q 324.82 409.47 324.78 410.00
  Q 324.65 411.66 324.56 413.30
  C 324.28 418.43 329.09 420.17 333.78 419.79
  Z
  M 352.28 640.22
  L 350.43 645.98
  A 2.01 1.72 -76.5 0 0 351.73 648.53
  C 353.85 648.82 360.19 642.45 361.66 640.71
  A 1.42 1.41 -54.5 0 0 361.31 638.58
  Q 355.76 635.26 349.38 632.57
  C 347.84 631.92 346.88 632.32 346.02 633.61
  C 343.79 636.97 350.04 638.70 351.88 639.40
  Q 352.47 639.63 352.28 640.22
  Z"
/>
<path fill="#191a1c" d="
  M 404.65 670.74
  C 408.14 688.25 411.09 706.30 415.95 723.13
  C 418.66 732.50 421.39 742.10 425.28 750.58
  Q 426.73 753.73 429.28 756.64
  Q 451.49 782.00 473.96 807.59
  A 0.98 0.97 46.4 0 0 475.39 807.63
  Q 508.29 773.62 532.76 733.13
  A 2.30 2.29 51.3 0 0 532.97 731.21
  Q 529.83 722.00 523.11 714.39
  C 509.52 699.02 493.23 686.07 478.19 672.13
  C 475.53 669.66 473.20 668.21 469.75 668.49
  Q 451.74 669.99 435.76 669.42
  C 428.70 669.16 420.63 668.09 413.06 667.39
  Q 417.62 656.80 425.21 648.21
  C 431.26 641.36 440.72 639.77 441.54 629.28
  A 1.32 1.32 0.0 0 0 438.99 628.69
  C 436.84 634.17 434.39 637.79 428.46 639.26
  Q 426.32 639.79 426.69 637.35
  A 1.03 0.99 62.4 0 1 426.79 637.01
  Q 436.52 615.11 445.95 593.73
  C 447.70 589.75 448.60 573.40 456.28 575.31
  Q 458.46 575.85 460.03 576.09
  A 2.18 2.18 0.0 0 0 462.43 574.61
  L 466.45 562.00
  A 1.28 1.26 -86.6 0 1 467.39 561.15
  C 469.13 560.76 470.02 561.78 470.13 563.45
  Q 470.99 577.34 472.15 592.10
  A 1.39 1.39 0.0 0 0 473.43 593.38
  C 477.50 593.68 477.45 590.06 478.64 587.48
  A 1.85 1.85 0.0 0 1 482.10 587.75
  Q 483.81 593.78 488.78 597.72
  A 1.05 1.05 0.0 0 1 488.50 599.53
  C 479.65 602.89 486.22 606.12 490.06 608.83
  A 0.78 0.77 -41.2 0 1 489.97 610.15
  C 486.20 612.11 481.91 610.94 483.47 617.30
  C 484.55 621.70 494.10 618.01 496.46 616.67
  A 0.90 0.90 0.0 0 1 497.76 617.71
  L 492.33 636.00
  Q 491.73 638.03 493.72 638.73
  Q 495.73 639.44 498.74 640.24
  C 502.23 641.17 500.99 645.76 497.23 645.68
  Q 491.88 645.56 487.06 643.36
  C 483.00 641.52 478.23 643.29 475.03 645.93
  C 473.28 647.36 472.14 649.84 470.45 651.73
  Q 470.05 652.18 469.45 652.14
  L 455.49 651.17
  A 1.18 1.18 0.0 0 0 454.87 653.39
  Q 484.76 668.66 512.56 650.03
  Q 514.12 648.98 514.99 648.18
  Q 515.55 647.66 515.06 647.09
  L 510.04 641.15
  Q 509.65 640.70 509.86 640.14
  Q 510.58 638.20 511.97 636.85
  C 516.10 632.87 517.03 640.44 517.41 642.36
  A 0.89 0.89 0.0 0 0 518.83 642.89
  Q 525.46 637.71 533.87 637.13
  C 539.67 636.72 539.57 618.77 549.10 617.12
  Q 552.36 616.55 555.10 618.89
  A 2.42 2.40 56.4 0 0 557.39 619.36
  L 568.58 615.78
  A 1.55 1.54 -14.5 0 0 569.63 614.01
  C 568.35 607.60 574.47 609.44 576.15 604.67
  Q 580.96 591.06 585.75 578.09
  A 1.71 1.70 26.8 0 1 588.29 577.26
  C 592.78 580.22 593.54 608.40 593.17 612.25
  Q 592.35 620.90 592.13 624.49
  Q 592.09 625.07 592.38 625.57
  Q 596.53 632.78 596.85 641.11
  A 1.47 1.47 0.0 0 0 599.26 642.19
  C 600.57 641.09 602.23 640.58 604.01 640.99
  C 610.56 642.49 616.38 646.96 614.82 654.24
  C 613.48 660.51 615.45 665.40 622.03 667.22
  A 1.95 1.94 -67.4 0 0 624.23 666.31
  C 625.49 664.14 632.44 653.30 635.35 654.02
  A 0.90 0.90 0.0 0 1 636.03 655.02
  L 635.31 660.29
  A 2.46 2.46 0.0 0 0 636.96 662.95
  Q 641.19 664.37 645.50 665.69
  A 1.28 1.28 0.0 0 1 646.28 667.48
  C 643.71 672.73 647.89 675.48 651.57 678.44
  Q 651.98 678.76 652.02 679.28
  C 652.51 685.45 656.83 687.42 662.31 689.50
  C 671.25 692.90 679.57 687.69 683.77 679.56
  C 687.22 672.89 677.41 675.14 674.88 675.24
  A 2.10 2.10 0.0 0 1 672.78 672.54
  Q 674.89 665.50 668.75 661.76
  A 1.59 1.59 0.0 0 1 668.12 659.76
  C 669.43 656.75 669.95 653.79 669.97 650.25
  C 670.02 641.49 669.42 632.36 670.71 623.70
  C 673.14 607.35 674.75 591.95 672.05 576.23
  Q 670.87 569.42 676.60 564.96
  Q 677.26 571.80 678.00 578.66
  C 679.79 595.33 677.34 612.18 678.32 628.26
  C 680.16 658.31 691.19 690.82 718.58 706.90
  Q 721.01 708.33 724.03 713.76
  A 1.88 1.84 -59.6 0 1 724.25 714.64
  C 724.25 715.20 724.19 715.98 724.32 716.51
  Q 727.20 727.85 729.74 739.26
  Q 730.45 742.44 734.95 751.42
  C 749.69 780.80 754.12 814.64 785.04 833.17
  Q 787.33 834.55 787.83 837.48
  Q 789.87 849.28 791.67 861.12
  C 792.78 868.40 793.13 877.66 788.50 883.94
  A 2.06 2.06 0.0 0 1 785.73 884.46
  C 779.00 880.14 774.02 875.19 769.06 868.28
  C 758.21 853.17 748.58 837.39 741.49 819.95
  C 733.54 800.39 725.90 781.05 715.49 762.60
  Q 694.43 725.26 656.96 703.29
  Q 648.49 698.32 639.56 696.44
  C 629.86 694.39 623.31 690.29 615.66 683.58
  Q 602.06 671.63 597.88 667.39
  C 586.87 656.21 575.36 656.02 560.58 660.57
  Q 550.19 663.76 543.44 666.90
  Q 540.03 668.48 541.44 672.65
  Q 550.25 698.61 569.30 718.04
  C 574.05 722.88 576.53 726.91 572.39 732.88
  C 566.60 741.22 560.21 746.62 551.32 753.90
  Q 546.63 757.73 543.01 761.95
  Q 518.79 790.19 495.13 824.14
  C 492.77 827.53 494.09 829.14 497.48 830.51
  C 516.73 838.33 521.77 862.88 517.41 881.18
  C 516.28 885.91 511.72 894.53 506.37 886.62
  Q 496.24 871.63 485.97 856.76
  Q 485.35 855.87 484.76 855.50
  A 1.84 1.84 0.0 0 0 482.01 856.57
  C 478.25 870.04 461.97 879.49 449.81 883.97
  C 445.70 885.49 441.96 884.84 442.40 879.48
  C 444.06 859.30 458.51 843.72 460.24 825.00
  C 460.33 824.06 460.21 823.27 459.56 822.50
  Q 440.88 800.49 420.84 779.72
  C 414.48 773.13 405.73 769.24 400.36 761.60
  C 396.62 756.28 394.52 747.17 392.35 740.55
  Q 383.84 714.66 369.66 693.56
  C 364.93 686.52 353.96 691.82 348.21 694.73
  C 322.47 707.75 295.89 721.06 278.12 744.74
  Q 273.75 750.57 267.64 761.73
  C 260.36 775.04 253.77 786.35 252.83 801.27
  C 252.79 802.03 252.28 803.83 251.82 804.47
  Q 243.72 815.56 238.94 828.46
  Q 238.76 828.96 238.27 829.17
  C 235.34 830.45 232.53 830.69 230.02 832.72
  C 221.72 839.45 212.28 843.58 201.95 842.41
  C 197.82 841.95 196.71 838.11 198.41 834.55
  C 204.83 821.07 212.33 810.75 220.12 799.24
  C 226.31 790.09 231.30 779.48 238.25 770.42
  Q 263.88 737.01 287.18 701.92
  C 298.74 684.51 316.73 674.03 334.48 665.26
  Q 336.11 664.46 338.56 660.81
  L 372.19 647.64
  Q 373.96 646.94 372.69 645.53
  Q 362.49 634.13 348.55 627.84
  A 1.72 1.71 30.6 0 0 346.49 628.36
  Q 345.61 629.51 344.18 629.75
  A 0.72 0.72 0.0 0 1 343.39 629.30
  Q 338.13 615.26 328.46 603.82
  Q 328.11 603.41 328.11 602.87
  Q 328.11 601.39 328.62 599.67
  Q 332.47 586.43 336.51 573.24
  C 338.45 566.90 340.10 562.60 347.83 566.50
  Q 348.31 566.74 348.77 566.49
  C 355.75 562.75 362.73 549.84 366.58 542.87
  A 1.42 1.42 0.0 0 1 369.24 543.72
  C 368.55 549.41 364.47 554.12 362.46 559.50
  C 359.14 568.35 351.33 583.66 355.55 592.54
  Q 359.92 601.75 364.13 613.07
  Q 364.95 615.27 367.48 615.26
  Q 377.21 615.22 384.19 621.77
  Q 384.55 622.11 384.52 622.61
  C 384.30 626.27 383.22 629.65 386.80 632.41
  Q 392.26 636.61 397.83 640.64
  A 1.73 1.71 -71.0 0 1 398.54 642.11
  L 397.99 654.93
  Q 397.92 656.56 396.32 656.92
  C 392.85 657.68 385.50 658.19 382.51 660.01
  Q 382.05 660.29 382.03 660.82
  C 381.80 665.37 385.78 665.81 389.06 666.70
  A 0.70 0.70 0.0 0 1 389.28 667.94
  Q 385.65 670.54 381.07 670.13
  A 0.79 0.79 0.0 0 0 380.32 671.33
  C 381.95 674.03 383.42 678.45 387.24 676.20
  Q 395.38 671.41 404.65 670.74
  Z
  M 222.39 815.77
  C 224.47 819.87 228.38 824.69 233.00 825.40
  A 1.37 1.36 75.4 0 0 234.28 823.21
  Q 233.44 822.13 233.48 820.78
  Q 233.50 820.28 233.91 820.00
  Q 242.02 814.39 239.93 804.24
  Q 239.64 802.83 241.34 801.37
  Q 241.66 801.10 242.00 801.34
  L 244.14 802.86
  A 0.99 0.99 0.0 0 0 245.08 802.97
  C 249.65 801.18 247.39 793.72 243.62 791.38
  A 1.61 1.60 35.8 0 0 241.54 791.71
  L 233.68 801.12
  Q 233.28 801.60 233.46 802.20
  L 235.80 810.06
  A 1.61 1.61 0.0 0 1 234.44 812.11
  L 223.70 813.33
  A 1.69 1.68 73.3 0 0 222.39 815.77
  Z
  M 774.44 844.36
  L 779.32 837.57
  A 1.94 1.94 0.0 0 0 778.87 834.86
  L 778.67 834.71
  A 13.07 6.05 35.7 0 0 764.52 832.00
  L 764.44 832.11
  A 13.07 6.05 35.7 0 0 771.53 844.65
  L 771.73 844.80
  A 1.94 1.94 0.0 0 0 774.44 844.36
  Z
  M 489.03 841.45
  C 492.98 844.52 496.60 847.94 500.44 850.94
  A 2.27 2.26 34.0 0 0 503.79 850.29
  C 505.84 846.76 504.52 843.00 504.98 839.06
  A 2.33 2.32 -88.9 0 0 502.50 836.47
  L 488.98 837.47
  A 1.65 1.65 0.0 0 0 487.65 839.90
  Q 488.11 840.73 489.03 841.45
  Z
  M 462.41 852.96
  C 461.28 856.91 465.74 859.27 469.04 858.50
  C 479.08 856.14 482.10 841.70 470.70 838.35
  Q 470.14 838.19 469.88 838.71
  Q 468.43 841.61 468.42 844.87
  A 1.33 1.32 66.5 0 1 468.07 845.77
  C 466.25 847.80 463.06 850.69 462.41 852.96
  Z"
/>
<path fill="#191a1c" d="
  M 338.75 655.58
  C 331.84 648.22 325.72 643.68 321.92 633.36
  C 318.24 623.37 314.38 613.26 308.17 604.41
  Q 299.22 591.65 291.15 578.38
  L 297.57 576.82
  A 1.19 1.18 -15.8 0 1 298.97 577.60
  Q 302.25 587.64 309.68 595.36
  C 313.73 599.57 317.12 597.18 317.59 592.17
  Q 318.31 584.53 318.64 576.83
  Q 318.66 576.27 319.03 575.85
  Q 321.43 573.11 322.11 569.54
  A 1.55 1.55 0.0 0 1 323.14 568.36
  C 329.64 566.21 322.71 587.39 322.60 589.09
  Q 322.02 597.91 316.96 605.20
  C 313.94 609.56 325.41 621.07 328.53 623.79
  A 1.02 1.01 -66.9 0 1 328.87 624.65
  C 327.67 638.77 332.72 644.71 342.67 652.43
  Q 343.11 652.77 342.79 653.22
  Q 341.33 655.33 338.75 655.58
  Z"
/>
<path fill="#191a1c" d="
  M 351.88 639.40
  C 350.04 638.70 343.79 636.97 346.02 633.61
  C 346.88 632.32 347.84 631.92 349.38 632.57
  Q 355.76 635.26 361.31 638.58
  A 1.42 1.41 -54.5 0 1 361.66 640.71
  C 360.19 642.45 353.85 648.82 351.73 648.53
  A 2.01 1.72 -76.5 0 1 350.43 645.98
  L 352.28 640.22
  Q 352.47 639.63 351.88 639.40
  Z"
/>
<!-- <path fill="#ffffff" d="
  M 413.06 667.39
  C 420.63 668.09 428.70 669.16 435.76 669.42
  Q 451.74 669.99 469.75 668.49
  C 473.20 668.21 475.53 669.66 478.19 672.13
  C 493.23 686.07 509.52 699.02 523.11 714.39
  Q 529.83 722.00 532.97 731.21
  A 2.30 2.29 51.3 0 1 532.76 733.13
  Q 508.29 773.62 475.39 807.63
  A 0.98 0.97 46.4 0 1 473.96 807.59
  Q 451.49 782.00 429.28 756.64
  Q 426.73 753.73 425.28 750.58
  C 421.39 742.10 418.66 732.50 415.95 723.13
  C 411.09 706.30 408.14 688.25 404.65 670.74
  L 413.06 667.39
  Z"
/> -->
<path fill="#9d9d91" d="
  M 233.00 825.40
  C 228.38 824.69 224.47 819.87 222.39 815.77
  A 1.69 1.68 73.3 0 1 223.70 813.33
  L 234.44 812.11
  A 1.61 1.61 0.0 0 0 235.80 810.06
  L 233.46 802.20
  Q 233.28 801.60 233.68 801.12
  L 241.54 791.71
  A 1.61 1.60 35.8 0 1 243.62 791.38
  C 247.39 793.72 249.65 801.18 245.08 802.97
  A 0.99 0.99 0.0 0 1 244.14 802.86
  L 242.00 801.34
  Q 241.66 801.10 241.34 801.37
  Q 239.64 802.83 239.93 804.24
  Q 242.02 814.39 233.91 820.00
  Q 233.50 820.28 233.48 820.78
  Q 233.44 822.13 234.28 823.21
  A 1.37 1.36 75.4 0 1 233.00 825.40
  Z"
/>
<path fill="#9d9d91" d="
  M 774.44 844.36
  A 1.94 1.94 0.0 0 1 771.73 844.80
  L 771.53 844.65
  A 13.07 6.05 35.7 0 1 764.44 832.11
  L 764.52 832.00
  A 13.07 6.05 35.7 0 1 778.67 834.71
  L 778.87 834.86
  A 1.94 1.94 0.0 0 1 779.32 837.57
  L 774.44 844.36
  Z"
/>
<path fill="#9d9d91" d="
  M 489.03 841.45
  Q 488.11 840.73 487.65 839.90
  A 1.65 1.65 0.0 0 1 488.98 837.47
  L 502.50 836.47
  A 2.33 2.32 -88.9 0 1 504.98 839.06
  C 504.52 843.00 505.84 846.76 503.79 850.29
  A 2.27 2.26 34.0 0 1 500.44 850.94
  C 496.60 847.94 492.98 844.52 489.03 841.45
  Z"
/>
<path fill="#9d9d91" d="
  M 469.04 858.50
  C 465.74 859.27 461.28 856.91 462.41 852.96
  C 463.06 850.69 466.25 847.80 468.07 845.77
  A 1.33 1.32 66.5 0 0 468.42 844.87
  Q 468.43 841.61 469.88 838.71
  Q 470.14 838.19 470.70 838.35
  C 482.10 841.70 479.08 856.14 469.04 858.50
  Z"
/>
</svg>
